<?xml version="1.0" encoding="UTF-8" standalone="no"?>
<!-- Created with Inkscape (http://www.inkscape.org/) -->

<svg
   width="80mm"
   height="35mm"
   viewBox="0 0 80 35"
   version="1.1"
   id="svg5"
   inkscape:version="1.2.1 (9c6d41e410, 2022-07-14, custom)"
   sodipodi:docname="merch-flag.svg"
   xmlns:inkscape="http://www.inkscape.org/namespaces/inkscape"
   xmlns:sodipodi="http://sodipodi.sourceforge.net/DTD/sodipodi-0.dtd"
   xmlns:xlink="http://www.w3.org/1999/xlink"
   xmlns="http://www.w3.org/2000/svg"
   xmlns:svg="http://www.w3.org/2000/svg">
  <sodipodi:namedview
     id="namedview7"
     pagecolor="#ffffff"
     bordercolor="#666666"
     borderopacity="1.0"
     inkscape:pageshadow="2"
     inkscape:pageopacity="0.0"
     inkscape:pagecheckerboard="0"
     inkscape:document-units="mm"
     showgrid="false"
     width="50mm"
     inkscape:zoom="1.4142136"
     inkscape:cx="-75.660424"
     inkscape:cy="166.17009"
     inkscape:window-width="1920"
     inkscape:window-height="1023"
     inkscape:window-x="0"
     inkscape:window-y="29"
     inkscape:window-maximized="1"
     inkscape:current-layer="text52038"
     height="800mm"
     showguides="false"
     inkscape:showpageshadow="0"
     inkscape:deskcolor="#d1d1d1" />
  <defs
     id="defs2">
    <rect
       x="599.62653"
       y="431.33511"
       width="861.25604"
       height="528.91583"
       id="rect16368" />
    <rect
       x="397.73492"
       y="448.37491"
       width="621.39484"
       height="247.92494"
       id="rect1097" />
    <linearGradient
       inkscape:collect="always"
       xlink:href="#linearGradient1698"
       id="linearGradient1700"
       x1="-129.42067"
       y1="-69.248573"
       x2="-25.638176"
       y2="-69.248573"
       gradientUnits="userSpaceOnUse"
       gradientTransform="matrix(0.78702526,0,0,0.78388218,-18.990046,-20.489709)" />
    <linearGradient
       inkscape:collect="always"
       id="linearGradient1698">
      <stop
         style="stop-color:#ffffff;stop-opacity:1;"
         offset="0"
         id="stop1694" />
      <stop
         style="stop-color:#ffffff;stop-opacity:0;"
         offset="1"
         id="stop1696" />
    </linearGradient>
    <linearGradient
       inkscape:collect="always"
       xlink:href="#linearGradient1698"
       id="linearGradient8148"
       gradientUnits="userSpaceOnUse"
       gradientTransform="matrix(0.79115345,0,0,0.79137377,-25.411185,-14.472046)"
       x1="-129.42067"
       y1="-69.248573"
       x2="-25.638176"
       y2="-69.248573" />
  </defs>
  <g
     inkscape:label="Layer 1"
     inkscape:groupmode="layer"
     id="layer1">
    <g
       aria-label="Is't full yet?"
       transform="matrix(1.1336524,0,0,0.8821046,-2.3140452,0.80830206)"
       id="text6353"
       style="font-size:5.01023px;line-height:1.65;letter-spacing:0.0111937px;word-spacing:0.00447742px;fill:#666666;stroke:#575e63;stroke-width:0;stroke-miterlimit:4;stroke-dasharray:none;stroke-opacity:1" />
    <g
       transform="scale(0.26458333)"
       id="text1095"
       style="font-size:40px;line-height:1.25;white-space:pre;shape-inside:url(#rect1097)" />
    <g
       aria-label="Global trade starts here"
       id="text1558"
       style="font-size:5.65978px;line-height:1.25;font-family:'Eras Medium ITC';-inkscape-font-specification:'Eras Medium ITC';fill:#000000;fill-opacity:1;stroke-width:0.141493"
       transform="matrix(0.71901224,0,0,0.71901224,2.6423134,0.94909198)">
      <g
         aria-label="Global trade starts here"
         id="text52038"
         style="font-size:6.30308px;fill:#000000;fill-opacity:1;stroke-width:0.0222961"
         transform="translate(126.97874,14.050926)">
        <g
           id="g2424"
           style="opacity:0.819106;fill:#ffffff" />
        <rect
           style="opacity:1;fill:#375bc1;fill-opacity:1;stroke-width:3.19954;paint-order:stroke fill markers"
           id="rect1124"
           width="108.64645"
           height="47.781292"
           x="-129.26927"
           y="-14.754579"
           ry="5.4234948" />
        <g
           aria-label="MERCH"
           id="text2676"
           style="font-weight:bold;font-size:24.777px;font-family:'Code Bold';-inkscape-font-specification:'Code Bold,  Bold';fill:#ffffff;stroke-width:0.0138106"
           transform="matrix(0.95498011,0,0,0.95498011,-91.507194,55.525707)">
          <path
             d="m -118.24872,5.3205169 5.97564,8.8818301 h 1.86127 l 5.97564,-8.8818301 V 21.418833 h 3.26536 V -1.4388156 h -2.61229 l -7.54302,11.1022866 -7.54302,-11.1022866 h -2.67761 V 21.418833 h 3.29803 z"
             id="path11588"
             style="stroke-width:0.018201" />
          <path
             d="m -95.358414,11.655353 h 10.351249 V 8.3246648 H -95.358414 V 1.89187 h 10.579825 v -3.2980318 h -13.91051 V 21.418833 h 13.943164 v -3.298032 h -10.612479 z"
             id="path11590"
             style="stroke-width:0.018201" />
          <path
             d="m -78.770279,11.394122 8.326713,10.024711 h 4.277646 l -7.216486,-8.587945 c 3.918453,-0.685729 5.910334,-3.7551857 5.910334,-6.9879106 0,-3.6245696 -2.481687,-7.281793 -7.445061,-7.281793 h -8.326716 V 21.418833 h 3.265379 V 1.89187 h 5.061337 c 2.77557,0 4.147029,1.9918806 4.147029,3.9511074 0,1.9918802 -1.371459,3.983763 -4.147029,3.983763 h -3.853146 z"
             id="path11592"
             style="stroke-width:0.018201" />
          <path
             d="m -66.492442,10.055317 c 0,3.167416 1.30615,6.040949 3.265378,8.130792 1.991879,2.089841 4.800105,3.395992 7.902214,3.395992 5.322565,0 9.50225,-3.526608 10.808401,-8.718559 h -3.232725 c -1.175535,3.461301 -4.114376,5.453181 -7.575676,5.453181 -2.187803,0 -4.179684,-0.946959 -5.61645,-2.449033 -1.436766,-1.502073 -2.351072,-3.526609 -2.351072,-5.812373 0,-2.3510741 0.914306,-4.3756086 2.351072,-5.8776825 1.436766,-1.5020738 3.428647,-2.4490335 5.61645,-2.4490335 3.363339,0 6.171564,1.7306504 7.379754,5.1592974 h 3.265378 c -1.306151,-5.1592974 -5.420528,-8.4246753 -10.645132,-8.4246753 -3.102109,0 -5.910335,1.33880499 -7.902214,3.395993 -1.959228,2.0898419 -3.265378,4.9633747 -3.265378,8.1961009 z"
             id="path11594"
             style="stroke-width:0.018201" />
          <path
             d="m -39.618412,-1.4061618 h -3.298031 V 21.418833 h 3.298031 v -9.92675 h 9.665519 v 9.92675 h 3.330686 V -1.4061618 h -3.330686 v 9.6328653 h -9.665519 z"
             id="path11596"
             style="stroke-width:0.018201" />
        </g>
        <g
           aria-label="MERCH"
           id="text11312"
           style="font-weight:bold;font-size:27.3612px;font-family:'Code Bold';-inkscape-font-specification:'Code Bold,  Bold';fill:#ffffff;stroke-width:0.015251">
          <path
             d="m -111.77909,19.255653 -4.28855,-15.323875 h -0.12024 q 0.0802,1.2291164 0.1336,2.3780731 0.0267,0.4943185 0.0401,1.015357 0.0267,0.5210385 0.0401,1.028717 0.0267,0.5076785 0.0267,0.9752772 0.0134,0.4675986 0.0134,0.8416777 v 9.084773 h -3.70071 V -0.27660975 h 5.63791 l 4.22174,14.93643675 h 0.0802 l 4.48895,-14.93643675 h 5.637905 V 19.255653 h -3.861025 V 10.01056 q 0,-0.3473587 0,-0.7882374 0.0134,-0.4408787 0.0267,-0.9351973 0.0134,-0.4943185 0.0267,-1.0019971 0.0267,-0.5076785 0.0401,-0.9886371 0.0534,-1.1222367 0.0935,-2.3379932 h -0.10688 l -4.62255,15.2971551 z"
             style="font-family:'Droid Sans';-inkscape-font-specification:'Droid Sans Bold'"
             id="path15450" />
          <path
             d="M -83.402532,19.255653 H -94.651619 V -0.27660975 h 11.249087 V 3.1168204 h -7.107499 v 4.2885475 h 6.613181 v 3.3934301 h -6.613181 v 5.036705 h 7.107499 z"
             style="font-family:'Droid Sans';-inkscape-font-specification:'Droid Sans Bold'"
             id="path15452" />
          <path
             d="m -75.186156,8.394005 h 1.122237 q 1.723435,0 2.471593,-0.681358 0.748158,-0.694718 0.748158,-2.0307141 0,-1.389436 -0.801598,-1.9772742 -0.801598,-0.5878383 -2.484953,-0.5878383 h -1.055437 z m 0,3.36671 v 7.494938 h -4.141588 V -0.27660975 h 5.343985 q 3.754149,0 5.544384,1.45623575 1.790235,1.4428758 1.790235,4.3954272 0,1.0019971 -0.2672,1.8169547 -0.267199,0.8149577 -0.721438,1.4562358 -0.440878,0.6279182 -1.028717,1.1088768 -0.574478,0.4675985 -1.215756,0.7882375 1.482956,2.378073 2.658632,4.248468 0.507679,0.801597 0.975277,1.563115 0.480959,0.761518 0.855038,1.362716 0.374079,0.601199 0.614558,0.961917 l 0.227119,0.374079 h -4.595826 l -4.235108,-7.494938 z"
             style="font-family:'Droid Sans';-inkscape-font-specification:'Droid Sans Bold'"
             id="path15454" />
          <path
             d="m -53.796859,2.889701 q -1.189037,0 -2.110874,0.4675987 -0.908478,0.4542386 -1.536396,1.3226361 -0.614558,0.8550375 -0.935197,2.0975139 -0.320639,1.2291164 -0.320639,2.765512 0,1.5631153 0.280559,2.7788723 0.293919,1.215756 0.881757,2.057434 0.601199,0.828317 1.523036,1.269196 0.935197,0.427519 2.217754,0.427519 1.189036,0 2.378073,-0.2672 1.202396,-0.267199 2.605192,-0.761517 v 3.47359 q -0.641278,0.267199 -1.269196,0.454238 -0.627918,0.18704 -1.282557,0.307279 -0.654638,0.12024 -1.349356,0.17368 -0.681358,0.0668 -1.469595,0.0668 -2.257834,0 -3.914469,-0.721438 -1.656635,-0.721438 -2.738792,-2.030714 -1.082157,-1.309277 -1.603195,-3.152951 -0.521039,-1.843675 -0.521039,-4.1015083 0,-2.2177535 0.601199,-4.0614281 0.601198,-1.8570346 1.763514,-3.1930307 1.162317,-1.33599615 2.872392,-2.07079401 1.710075,-0.74815782 3.927829,-0.74815782 1.456235,0 2.912471,0.37407891 1.469596,0.36071895 2.805592,1.00199708 L -49.414792,4.1856173 Q -50.510309,3.6645788 -51.619186,3.2771399 -52.728063,2.889701 -53.796859,2.889701 Z"
             style="font-family:'Droid Sans';-inkscape-font-specification:'Droid Sans Bold'"
             id="path15456" />
          <path
             d="m -29.748925,19.255653 h -4.128228 v -8.430135 h -6.639901 v 8.430135 h -4.141588 V -0.27660975 h 4.141588 V 7.378648 h 6.639901 v -7.65525775 h 4.128228 z"
             style="font-family:'Droid Sans';-inkscape-font-specification:'Droid Sans Bold'"
             id="path15458" />
        </g>
        <g
           id="g8174"
           transform="matrix(1.4247203,-0.30045841,0.30045841,1.4247203,80.884213,-30.051099)"
           style="font-size:6.30308px;line-height:1.25;font-family:'Eras Medium ITC';-inkscape-font-specification:'Eras Medium ITC';fill:#000000;fill-opacity:1;stroke-width:0.0222961">
          <rect
             style="opacity:0.256098;fill:url(#linearGradient1700);fill-opacity:1;stroke-width:2.74061;paint-order:stroke fill markers"
             id="rect1484"
             width="81.679443"
             height="21.0193"
             x="-120.84737"
             y="-85.282082"
             transform="matrix(0.77367876,-0.63357808,0.7233256,0.69050711,0,0)" />
          <rect
             style="opacity:0.256098;fill:url(#linearGradient8148);fill-opacity:1;stroke-width:2.76089;paint-order:stroke fill markers"
             id="rect8146"
             width="82.10788"
             height="21.220184"
             x="-127.80279"
             y="-79.883644"
             transform="matrix(0.75576103,-0.65484751,0.70355628,0.71063955,0,0)" />
        </g>
      </g>
    </g>
    <g
       aria-label="TM"
       id="text6353-5"
       style="font-size:3.03538px;line-height:1.65;letter-spacing:0.00678142px;word-spacing:0.00271257px;fill:#4a67be;fill-opacity:1;stroke:none;stroke-width:0.1;stroke-miterlimit:4;stroke-dasharray:none;stroke-opacity:1"
       transform="matrix(1.0433305,0,0,1.0433305,2.4014551,0.18837884)" />
  </g>
</svg>
