<?xml version="1.0" encoding="UTF-8" standalone="no"?>
<!-- Generator: Adobe Illustrator 24.2.0, SVG Export Plug-In . SVG Version: 6.00 Build 0)  -->

<svg
   version="1.1"
   id="svg5"
   x="0px"
   y="0px"
   viewBox="0 0 250 120"
   xml:space="preserve"
   sodipodi:docname="pro-buyer.svg"
   inkscape:version="1.1.2 (b8e25be833, 2022-02-05)"
   width="250"
   height="120"
   xmlns:inkscape="http://www.inkscape.org/namespaces/inkscape"
   xmlns:sodipodi="http://sodipodi.sourceforge.net/DTD/sodipodi-0.dtd"
   xmlns:xlink="http://www.w3.org/1999/xlink"
   xmlns="http://www.w3.org/2000/svg"
   xmlns:svg="http://www.w3.org/2000/svg"><defs
   id="defs12"><linearGradient
     inkscape:collect="always"
     id="linearGradient946"><stop
       style="stop-color:#bfa06e;stop-opacity:1"
       offset="0"
       id="stop942" /><stop
       style="stop-color:#f2cb8e;stop-opacity:0"
       offset="1"
       id="stop944" /></linearGradient><linearGradient
     inkscape:collect="always"
     xlink:href="#linearGradient946"
     id="linearGradient948"
     x1="132.44916"
     y1="79.599815"
     x2="-22.692814"
     y2="-5.7124734"
     gradientUnits="userSpaceOnUse" /></defs>
<style
   type="text/css"
   id="style2">
	.st0{opacity:0.8191;}
	.st1{fill:#352F2F;}
</style>
<sodipodi:namedview
   bordercolor="#666666"
   borderopacity="1.0"
   height="800mm"
   id="namedview7"
   inkscape:current-layer="svg5"
   inkscape:cx="142.30524"
   inkscape:cy="63.993162"
   inkscape:document-units="mm"
   inkscape:pagecheckerboard="0"
   inkscape:pageopacity="0.0"
   inkscape:pageshadow="2"
   inkscape:window-height="1057"
   inkscape:window-maximized="1"
   inkscape:window-width="1920"
   inkscape:window-x="-8"
   inkscape:window-y="-8"
   inkscape:zoom="2.8284272"
   pagecolor="#ffffff"
   showgrid="false"
   showguides="false"
   width="226.8px">
	</sodipodi:namedview>
<g
   id="text6353"
   transform="matrix(1.1336524,0,0,0.8821046,-2.3140452,0.80830206)">
</g>
<g
   id="text1095"
   transform="scale(0.26458333)">
</g>
<g
   id="g2424"
   class="st0">
</g>
<polygon
   class="st1"
   points="15.4,38.6 49.4,81.6 60.4,81.6 65.4,81.6 186.4,81.6 211.4,30.6 95.4,30.6 82.4,17.6 41.4,17.6 "
   id="polygon8"
   transform="matrix(1.2566961,0,0,1.2566961,-17.973934,-7.3462775)"
   style="fill:url(#linearGradient948);fill-opacity:1" />
<g
   id="text6353-5"
   transform="matrix(1.0433305,0,0,1.0433305,2.4014551,0.18837884)">
</g>
<path
   style="fill:#2e3031;fill-opacity:1;stroke:none;stroke-width:1.12311px;stroke-linecap:butt;stroke-linejoin:miter;stroke-opacity:1"
   d="M 34.053285,14.771608 1.3791824,41.162219 52.778111,106.18726 110.45674,42.544395 85.577824,14.771574 Z"
   id="path3192" /><path
   style="fill:#333333;fill-opacity:1;stroke:none;stroke-width:1.12311px;stroke-linecap:butt;stroke-linejoin:miter;stroke-opacity:1"
   d="m 110.44433,42.556804 0.94032,-0.808234 0.91824,-0.744526 -26.737475,-26.220061 z"
   id="path3441" /><g
   aria-label="PRO"
   transform="matrix(1.0351005,0,0,1.2186069,-2.416018,-1.8185585)"
   id="text4143"
   style="font-size:42.4899px;line-height:1.25;font-family:'Eras Medium ITC';-inkscape-font-specification:'Eras Medium ITC';fill:#333333;stroke-width:1.06225"><path
     d="m 143.28829,50.465494 q -0.93899,4.637462 -3.94759,7.511921 -3.2194,3.046928 -7.79937,3.046928 -0.76652,0 -2.29957,-0.07665 -1.51389,-0.09582 -2.28041,-0.09582 -0.82401,0 -0.95815,0.709034 -0.17246,0.881501 -0.36409,2.62534 -0.17247,1.743839 -0.34494,2.606177 -0.0767,0.44075 -0.47907,0.44075 -1.16895,0 -3.50685,-0.07665 -2.31873,-0.05749 -3.48768,-0.05749 -0.55573,0 -0.44075,-0.555729 0.42159,-2.1271 1.34141,-6.3813 0.91983,-4.273364 1.34143,-6.400464 1.20727,-6.017203 2.01211,-12.647623 l 0.0383,-0.268283 q 0.0383,-0.364099 0.67071,-0.440751 1.53304,-0.19163 6.63042,-0.19163 3.0086,0 5.74892,0.07665 4.50332,0.134141 6.7454,2.855296 2.28041,2.797808 1.37974,7.320292 z m -7.72271,0.306609 q 0.90066,-4.464993 -3.44936,-4.464993 -3.06609,0 -3.29605,0.344934 -0.17247,0.24912 -1.01564,4.426669 -0.11498,0.594054 -0.30661,1.763002 -0.17246,1.149783 -0.28745,1.743839 -0.0767,0.383261 3.3727,0.383261 4.15839,0 4.98241,-4.196712 z"
     style="font-style:italic;font-family:'Berlin Sans FB Demi';-inkscape-font-specification:'Berlin Sans FB Demi';fill:#333333;stroke-width:0.981151"
     id="path10045" /><path
     d="m 171.47308,66.907404 q -0.0192,0.134141 -0.42159,0.19163 -0.74736,0.114979 -3.6793,0.114979 -2.51037,0 -3.39187,-0.114979 -0.40242,-0.05749 -0.45991,-0.09582 -0.0958,-0.05749 -0.19164,-0.383261 -0.13413,-0.747359 -0.40242,-2.222916 -0.3641,-1.916306 -1.20727,-5.653104 -0.19164,-0.747359 -1.41806,-0.824012 0.55572,0.03832 -1.99296,0.03832 -0.28745,0 -0.47908,0.977316 -0.24912,1.303089 -0.53657,3.890103 -0.26829,2.587013 -0.53656,3.890102 -0.0575,0.325772 -0.24912,0.383261 -0.26829,0.01917 -0.53657,0.03832 -1.14978,0.07665 -3.54517,0.07665 -2.74031,0 -3.27688,-0.114978 -0.53657,-0.114978 -0.44075,-0.594054 0.42158,-2.107938 1.47555,-6.362138 1.05397,-4.254201 1.47556,-6.381301 1.62886,-8.105976 2.16542,-12.647623 l 0.0383,-0.268282 q 0.0383,-0.325773 0.68986,-0.440751 0.65155,-0.114979 5.90222,-0.229957 3.56434,-0.07665 5.67227,-0.07665 4.36918,0 6.72624,1.973796 2.68283,2.222915 1.83966,6.419626 -0.55574,2.797808 -1.70552,4.464995 -1.13062,1.667186 -3.60266,3.238557 -0.49824,0.30661 -0.55572,0.574892 0,-0.01917 1.36057,4.809929 1.37974,4.829093 1.28393,5.327333 z m -4.6183,-17.189269 q 0.47907,-2.337894 -0.8815,-3.238558 -1.05397,-0.689871 -3.58349,-0.689871 -1.8205,0 -2.03129,0.55573 -0.24911,0.651543 -0.8815,3.75596 -0.0767,0.44075 -0.22996,1.303088 -0.1533,0.862338 -0.24911,1.283926 -0.0191,0.09582 0.57489,0.191631 1.14978,0.172467 2.4337,0.172467 4.19672,0 4.84826,-3.334373 z"
     style="font-style:italic;font-family:'Berlin Sans FB Demi';-inkscape-font-specification:'Berlin Sans FB Demi';fill:#333333;stroke-width:0.981151"
     id="path10047" /><path
     d="m 208.91363,53.68489 q -1.18812,5.978875 -5.82557,10.022283 -4.69495,4.100895 -10.65467,4.100895 -5.92139,0 -9.00664,-4.139221 -3.02777,-4.043408 -1.83965,-9.983957 1.1881,-5.959714 5.84473,-10.022283 4.73328,-4.158386 10.65466,-4.158386 5.88307,0 8.98749,4.158386 3.02776,4.100895 1.83965,10.022283 z m -7.2628,-0.03832 q 0.57489,-2.87446 -0.76653,-4.886582 -1.3989,-2.107937 -4.23503,-2.107937 -2.70199,0 -5.00157,2.184589 -2.24208,2.107938 -2.7978,4.848256 -0.59406,2.931949 0.7282,4.886582 1.3989,2.050447 4.29252,2.050447 2.70199,0 5.02073,-2.165426 2.22291,-2.069611 2.75948,-4.809929 z"
     style="font-style:italic;font-family:'Berlin Sans FB Demi';-inkscape-font-specification:'Berlin Sans FB Demi';fill:#333333;stroke-width:0.981151"
     id="path10049" /></g><path
   style="fill:#bfa06e;fill-opacity:1;stroke:none;stroke-width:1px;stroke-linecap:butt;stroke-linejoin:miter;stroke-opacity:1"
   d="m 34.236387,55.932486 14.518853,14.485437 60.95963,-57.130754 -2.72528,-1.35011 -58.351378,46.68102 -16.577455,-9.496734 -3.13074,-1.642701 z"
   id="path10216" /></svg>
