<?xml version="1.0" encoding="UTF-8" standalone="no"?>
<!-- Created with Inkscape (http://www.inkscape.org/) -->

<svg
   width="100mm"
   height="60mm"
   viewBox="0 0 100 60"
   version="1.1"
   id="svg5"
   inkscape:version="1.1.2 (b8e25be833, 2022-02-05)"
   sodipodi:docname="expo-merch.svg"
   xmlns:inkscape="http://www.inkscape.org/namespaces/inkscape"
   xmlns:sodipodi="http://sodipodi.sourceforge.net/DTD/sodipodi-0.dtd"
   xmlns="http://www.w3.org/2000/svg"
   xmlns:svg="http://www.w3.org/2000/svg">
  <sodipodi:namedview
     id="namedview7"
     pagecolor="#ffffff"
     bordercolor="#666666"
     borderopacity="1.0"
     inkscape:pageshadow="2"
     inkscape:pageopacity="0.0"
     inkscape:pagecheckerboard="0"
     inkscape:document-units="mm"
     showgrid="false"
     width="100mm"
     inkscape:zoom="1.4142136"
     inkscape:cx="54.093667"
     inkscape:cy="132.93607"
     inkscape:window-width="1920"
     inkscape:window-height="1057"
     inkscape:window-x="-8"
     inkscape:window-y="-8"
     inkscape:window-maximized="1"
     inkscape:current-layer="text52038"
     height="80mm" />
  <defs
     id="defs2">
    <rect
       x="599.62652"
       y="431.33512"
       width="861.25602"
       height="528.91585"
       id="rect16368" />
    <rect
       x="397.73492"
       y="448.37491"
       width="621.39484"
       height="247.92494"
       id="rect1097" />
  </defs>
  <g
     inkscape:label="Layer 1"
     inkscape:groupmode="layer"
     id="layer1">
    <g
       aria-label="Is't full yet?"
       transform="matrix(1.1336524,0,0,0.8821046,-2.3140452,0.80830206)"
       id="text6353"
       style="font-size:5.01023px;line-height:1.65;letter-spacing:0.0111937px;word-spacing:0.00447742px;fill:#666666;stroke:#575e63;stroke-width:0;stroke-miterlimit:4;stroke-dasharray:none;stroke-opacity:1" />
    <g
       transform="scale(0.26458333)"
       id="text1095"
       style="font-size:40px;line-height:1.25;white-space:pre;shape-inside:url(#rect1097)" />
    <g
       aria-label="Global trade starts here"
       id="text1558"
       style="font-size:5.65978px;line-height:1.25;font-family:'Eras Medium ITC';-inkscape-font-specification:'Eras Medium ITC';fill:#000000;fill-opacity:1;stroke-width:0.141493"
       transform="matrix(0.71901224,0,0,0.71901224,2.6423134,0.94909198)">
      <g
         aria-label="Global trade starts here"
         id="text52038"
         style="font-size:6.30308px;fill:#000000;fill-opacity:1;stroke-width:0.0222961"
         transform="translate(126.97874,14.050926)">
        <g
           id="g1071"
           transform="matrix(0.95885846,0,0,0.95885846,0.59263246,91.426907)"
           style="fill:#ffffff;stroke:#ffffff;stroke-opacity:1">
          <g
             aria-label="EXPO"
             id="text6859"
             style="font-size:69.0485px;stroke-width:0.0384877;fill:#ffffff;stroke:#ffffff;stroke-opacity:1"
             transform="matrix(0.93851111,0,0,0.93851111,-7.425658,-92.915611)">
            <path
               d="m -124.99591,21.204713 h 20.66735 v 9.575085 h -10.45168 v 8.293912 h 9.06936 v 9.339079 h -9.06936 v 8.192766 h 10.51911 v 9.6088 h -20.73478 z"
               style="font-weight:bold;font-family:'Tw Cen MT Condensed Extra Bold';-inkscape-font-specification:'Tw Cen MT Condensed Extra Bold,  Bold';fill:#ffffff;stroke:#ffffff;stroke-opacity:1"
               id="path17112" />
            <path
               d="m -99.439876,21.204713 h 11.32827 q 4.349246,10.586538 4.753827,12.137432 h 0.134861 q 0.06743,-0.472011 1.281173,-3.438939 l 3.438939,-8.698493 h 11.32827 l -10.451678,21.476511 11.32827,23.533131 h -11.32827 Q -83.054343,53.503767 -83.290348,52.52603 h -0.134861 q -0.573156,2.157765 -1.517179,4.281816 l -4.146956,9.406509 h -11.159696 l 11.092266,-23.398271 z"
               style="font-weight:bold;font-family:'Tw Cen MT Condensed Extra Bold';-inkscape-font-specification:'Tw Cen MT Condensed Extra Bold,  Bold';fill:#ffffff;stroke:#ffffff;stroke-opacity:1"
               id="path17114" />
            <path
               d="m -60.76867,21.204713 h 12.643158 q 6.675587,0 10.721398,3.809805 4.04581,3.809805 4.04581,10.047096 0,6.574442 -4.11324,10.316817 -4.079526,3.70866 -11.32827,3.70866 h -1.753184 V 66.214355 H -60.76867 Z m 10.215672,8.631063 v 10.620252 q 3.438939,-0.06743 5.057263,-1.314888 1.652039,-1.247458 1.652039,-3.944665 0,-2.899498 -1.584609,-4.079526 -1.584609,-1.213743 -5.124693,-1.281173 z"
               style="font-weight:bold;font-family:'Tw Cen MT Condensed Extra Bold';-inkscape-font-specification:'Tw Cen MT Condensed Extra Bold,  Bold';fill:#ffffff;stroke:#ffffff;stroke-opacity:1"
               id="path17116" />
            <path
               d="m -10.97148,67.326953 q -8.159052,0 -12.440868,-6.237291 -4.281816,-6.271006 -4.281816,-18.071287 0,-10.889973 4.281816,-16.958689 4.315531,-6.102431 12.002571,-6.102431 8.1927668,0 12.508298,6.102431 4.3492464,6.102431 4.3492464,17.4307 0,11.32827 -4.2818162,17.599276 -4.2481011,6.237291 -12.1374312,6.237291 z m -0.370866,-37.154027 q -5.529275,0 -5.529275,12.980309 0,8.361342 1.382319,11.159694 1.416033,2.798353 4.079525,2.798353 2.8657829,0 4.3829618,-2.798353 1.5508941,-2.798352 1.5508941,-10.957403 0,-13.1826 -5.8664249,-13.1826 z"
               style="font-weight:bold;font-family:'Tw Cen MT Condensed Extra Bold';-inkscape-font-specification:'Tw Cen MT Condensed Extra Bold,  Bold';fill:#ffffff;stroke:#ffffff;stroke-opacity:1"
               id="path17118" />
          </g>
          <g
             aria-label="MERCH"
             id="text6863"
             style="font-size:39.3191px;stroke-width:0.0219167;fill:#ffffff;stroke:#ffffff;stroke-opacity:1"
             transform="matrix(0.93851111,0,0,0.93851111,-7.425658,-92.915611)">
            <path
               d="m -112.25091,15.396509 -9.25381,-24.6128345 h -0.15359 q 0.28798,3.0718046 0.28798,7.5835177 V 15.396509 h -3.26379 v -28.068615 h 5.22206 l 8.65865,23.000138 h 0.15359 l 8.81224,-23.000138 h 5.183673 v 28.068615 h -3.494173 V -1.8631932 q 0,-2.8798168 0.268778,-7.3147348 h -0.15359 l -9.369008,24.574437 z"
               style="font-family:sans-serif;-inkscape-font-specification:sans-serif;fill:#ffffff;stroke:#ffffff;stroke-opacity:1"
               id="path17121" />
            <path
               d="m -73.277389,15.396509 h -15.685402 v -28.068615 h 15.685402 v 3.1102024 h -12.152827 v 8.75464328 h 11.442473 V 2.2645443 H -85.430216 V 12.286307 h 12.152827 z"
               style="font-family:sans-serif;-inkscape-font-specification:sans-serif;fill:#ffffff;stroke:#ffffff;stroke-opacity:1"
               id="path17123" />
            <path
               d="m -63.562807,0.80543712 h 4.204533 q 3.417382,0 4.991682,-1.34391453 1.5743,-1.34391449 1.5743,-3.99334599 0,-2.6494316 -1.593499,-3.8589546 -1.593498,-1.2287219 -5.164471,-1.2287219 h -4.012545 z m 0,2.99500948 V 15.396509 h -3.532575 v -28.068615 h 7.737108 q 5.222068,0 7.717909,1.996673 2.51504,1.9774745 2.51504,5.9708205 0,5.58684473 -5.625242,7.5259214 l 7.69871,12.5752001 h -4.127738 L -57.975962,3.8004466 Z"
               style="font-family:sans-serif;-inkscape-font-specification:sans-serif;fill:#ffffff;stroke:#ffffff;stroke-opacity:1"
               id="path17125" />
            <path
               d="m -30.617703,-9.9650779 q -4.530912,0 -7.122747,3.0334071 -2.591835,3.0334071 -2.591835,8.2938725 0,5.4332545 2.51504,8.3898664 2.51504,2.9374129 7.161145,2.9374129 2.995009,0 6.738771,-1.113529 v 3.071805 q -1.785486,0.652758 -3.436581,0.883144 -1.651095,0.249584 -3.801359,0.249584 -6.201205,0 -9.560992,-3.762961 -3.340587,-3.7821594 -3.340587,-10.6937198 0,-4.3389241 1.593498,-7.6027165 1.612698,-3.2637925 4.665304,-5.0300797 3.071804,-1.766288 7.218741,-1.766288 4.454116,0 7.756306,1.651095 l -1.420709,2.9950094 q -3.359787,-1.5359023 -6.373995,-1.5359023 z"
               style="font-family:sans-serif;-inkscape-font-specification:sans-serif;fill:#ffffff;stroke:#ffffff;stroke-opacity:1"
               id="path17127" />
            <path
               d="M 3.6713124,15.396509 H 0.13873701 V 2.3029419 H -14.260347 V 15.396509 h -3.532576 v -28.068615 h 3.532576 V -0.80726032 H 0.13873701 V -12.672106 H 3.6713124 Z"
               style="font-family:sans-serif;-inkscape-font-specification:sans-serif;fill:#ffffff;stroke:#ffffff;stroke-opacity:1"
               id="path17129" />
          </g>
        </g>
        <text
           xml:space="preserve"
           transform="matrix(0.36798168,0,0,0.36798168,-130.65366,-15.37092)"
           id="text16366"
           style="line-height:1.25;font-family:'Eras Medium ITC';font-size:40px;-inkscape-font-specification:'Eras Medium ITC';white-space:pre;shape-inside:url(#rect16368)" />
        <rect
           style="fill:none;stroke:none;stroke-width:2.49334;stroke-opacity:1;paint-order:stroke fill markers"
           id="rect47"
           width="133.60896"
           height="79.36171"
           x="-127.83607"
           y="-13.0291" />
      </g>
    </g>
    <g
       aria-label="TM"
       id="text6353-5"
       style="font-size:3.03538px;line-height:1.65;letter-spacing:0.00678142px;word-spacing:0.00271257px;fill:#4a67be;fill-opacity:1;stroke:none;stroke-width:0.1;stroke-miterlimit:4;stroke-dasharray:none;stroke-opacity:1"
       transform="matrix(1.0433305,0,0,1.0433305,2.4014551,0.18837884)" />
  </g>
</svg>
