<?xml version="1.0" encoding="UTF-8" standalone="no"?>
<!-- Created with Inkscape (http://www.inkscape.org/) -->

<svg
   width="90mm"
   height="44mm"
   viewBox="0 0 90 44"
   version="1.1"
   id="svg5"
   inkscape:version="1.1.1 (3bf5ae0d25, 2021-09-20)"
   sodipodi:docname="logo-dark.svg"
   xmlns:inkscape="http://www.inkscape.org/namespaces/inkscape"
   xmlns:sodipodi="http://sodipodi.sourceforge.net/DTD/sodipodi-0.dtd"
   xmlns="http://www.w3.org/2000/svg"
   xmlns:svg="http://www.w3.org/2000/svg">
  <sodipodi:namedview
     id="namedview7"
     pagecolor="#ffffff"
     bordercolor="#666666"
     borderopacity="1.0"
     inkscape:pageshadow="2"
     inkscape:pageopacity="0.0"
     inkscape:pagecheckerboard="0"
     inkscape:document-units="mm"
     showgrid="false"
     width="90mm"
     inkscape:zoom="1.2800001"
     inkscape:cx="137.49999"
     inkscape:cy="20.703123"
     inkscape:window-width="1366"
     inkscape:window-height="720"
     inkscape:window-x="0"
     inkscape:window-y="23"
     inkscape:window-maximized="1"
     inkscape:current-layer="text2492"
     showguides="true"
     inkscape:guide-bbox="true" />
  <defs
     id="defs2" />
  <g
     inkscape:label="Layer 1"
     inkscape:groupmode="layer"
     id="layer1">
    <g
       aria-label="Redux "
       id="text2492"
       style="font-size:17.6678px;line-height:1.25;stroke-width:0.441695"
       transform="matrix(0.92212352,0,0,0.92212352,2.0813178,1.8526887)">
      <g
         aria-label="TM"
         id="text2195"
         style="font-size:3.92841px;fill:#f2f2f2;fill-opacity:1;stroke:#000000;stroke-width:0.00915753;stroke-opacity:1"
         transform="matrix(1.0307291,0,0,1.0307291,-13.489741,1.7464304)">
        <path
           d="m 88.924488,7.1576324 h 2.422647 V 7.4837211 H 90.330506 V 10.021459 H 89.941118 V 7.4837211 h -1.01663 z"
           style="-inkscape-font-specification:sans-serif;fill:#f2f2f2;fill-opacity:1;stroke:#000000;stroke-opacity:1"
           id="path853" />
        <path
           d="m 91.721178,7.1576324 h 0.577369 L 93.02937,9.106492 93.764028,7.1576324 h 0.577369 V 10.021459 H 93.963518 V 7.5067391 l -0.738495,1.964205 h -0.389389 l -0.738495,-1.964205 v 2.5147199 h -0.375961 z"
           style="-inkscape-font-specification:sans-serif;fill:#f2f2f2;fill-opacity:1;stroke:#000000;stroke-opacity:1"
           id="path855" />
      </g>
      <g
         aria-label="is't full yet?"
         id="text1106"
         style="font-size:5.79304px;fill:#d39e5f;stroke-width:0.0639692">
        <path
           d="m 33.872027,30.324547 h 0.463443 v -2.792245 h -0.463443 z m 0.237515,-3.446859 c 0.208549,0 0.330203,-0.121654 0.330203,-0.330203 0,-0.20855 -0.121654,-0.330203 -0.330203,-0.330203 -0.20855,0 -0.330203,0.121653 -0.330203,0.330203 0,0.208549 0.121653,0.330203 0.330203,0.330203 z"
           style="font-family:Cantarell;-inkscape-font-specification:Cantarell"
           id="path882" />
        <path
           d="m 36.142889,30.382477 c 0.689372,0 1.112264,-0.32441 1.112264,-0.839991 0,-1.025368 -1.668395,-0.643027 -1.668395,-1.274468 0,-0.243308 0.260686,-0.39972 0.677785,-0.39972 0.237515,0 0.515581,0.05214 0.753095,0.13324 l 0.110068,-0.376548 c -0.237515,-0.09848 -0.521373,-0.150619 -0.816819,-0.150619 -0.724129,0 -1.187573,0.318617 -1.187573,0.845784 0,1.002196 1.662603,0.585097 1.662603,1.268676 0,0.254894 -0.225929,0.39972 -0.608269,0.39972 -0.295445,0 -0.689372,-0.0811 -0.984817,-0.20855 l -0.110068,0.376548 c 0.318617,0.144826 0.706751,0.225928 1.060126,0.225928 z"
           style="font-family:Cantarell;-inkscape-font-specification:Cantarell"
           id="path884" />
        <path
           d="m 38.019827,27.879884 h 0.382341 l 0.05793,-1.575707 h -0.498201 z"
           style="font-family:Cantarell;-inkscape-font-specification:Cantarell"
           id="path886" />
        <path
           d="m 40.354419,30.353512 c 0.191171,0 0.382341,-0.04634 0.515581,-0.104275 l -0.104275,-0.335996 c -0.0869,0.04055 -0.214342,0.06372 -0.312824,0.06372 -0.289652,0 -0.480822,-0.185377 -0.480822,-0.463443 v -2.798038 h -0.463443 v 2.861762 c 0,0.463443 0.335996,0.776267 0.845783,0.776267 z m -1.222331,-2.433077 h 1.604672 v -0.388133 h -1.604672 z"
           style="font-family:Cantarell;-inkscape-font-specification:Cantarell"
           id="path888" />
        <path
           d="m 42.856998,30.324547 h 0.463443 v -3.400515 c 0,-0.359168 0.167999,-0.544545 0.486616,-0.544545 0.150619,0 0.347582,0.02896 0.492408,0.09848 l 0.09848,-0.347582 c -0.179584,-0.0869 -0.359169,-0.144826 -0.556132,-0.144826 -0.59089,0 -0.984817,0.39972 -0.984817,0.996403 z m -0.417099,-2.404112 h 1.749498 v -0.388133 h -1.749498 z"
           style="font-family:Cantarell;-inkscape-font-specification:Cantarell"
           id="path890" />
        <path
           d="m 45.695577,30.382477 c 0.393927,0 0.793646,-0.173791 1.077505,-0.480822 L 46.663014,29.60621 c -0.220135,0.237515 -0.527166,0.370754 -0.828404,0.370754 -0.434478,0 -0.683579,-0.254893 -0.683579,-0.70675 v -1.737912 h -0.463443 v 1.8306 c 0,0.619855 0.411306,1.019575 1.007989,1.019575 z m 0.984817,-0.05793 h 0.32441 v -2.792245 h -0.463443 v 2.467835 z"
           style="font-family:Cantarell;-inkscape-font-specification:Cantarell"
           id="path892" />
        <path
           d="m 48.597882,30.359305 c 0.150619,0 0.330204,-0.03476 0.440271,-0.09269 l -0.104274,-0.32441 c -0.06952,0.02896 -0.13324,0.04635 -0.202757,0.04635 -0.196963,0 -0.301238,-0.13324 -0.301238,-0.347583 V 26.04349 h -0.463443 v 3.655409 c 0,0.399719 0.249101,0.660406 0.631441,0.660406 z"
           style="font-family:Cantarell;-inkscape-font-specification:Cantarell"
           id="path894" />
        <path
           d="m 50.208346,30.359305 c 0.150619,0 0.330204,-0.03476 0.440271,-0.09269 l -0.104274,-0.32441 c -0.06952,0.02896 -0.13324,0.04635 -0.202757,0.04635 -0.196963,0 -0.301238,-0.13324 -0.301238,-0.347583 V 26.04349 h -0.463443 v 3.655409 c 0,0.399719 0.249101,0.660406 0.631441,0.660406 z"
           style="font-family:Cantarell;-inkscape-font-specification:Cantarell"
           id="path896" />
        <path
           d="m 52.647212,31.581636 h 0.492408 l 0.463443,-1.257089 1.089092,-2.792245 h -0.463443 l -0.903714,2.514179 h 0.121653 l -0.880542,-2.514179 h -0.51558 l 1.100677,2.792245 z"
           style="font-family:Cantarell;-inkscape-font-specification:Cantarell"
           id="path898" />
        <path
           d="m 56.499581,30.382477 c 0.318617,0 0.6662,-0.07531 0.9153,-0.208549 l -0.104274,-0.335997 c -0.214343,0.104275 -0.486616,0.167999 -0.729923,0.167999 -0.654614,0 -1.042748,-0.434478 -1.042748,-1.158608 0,-0.631442 0.283859,-0.979024 0.793647,-0.979024 0.475029,0 0.753095,0.307031 0.753095,0.839991 h -1.627844 v 0.347582 h 2.03915 c 0.01159,-0.08689 0.02317,-0.289652 0.02317,-0.39972 0,-0.700957 -0.463443,-1.18178 -1.152815,-1.18178 -0.776267,0 -1.303434,0.608269 -1.303434,1.465639 0,0.892128 0.550339,1.442467 1.436674,1.442467 z"
           style="font-family:Cantarell;-inkscape-font-specification:Cantarell"
           id="path900" />
        <path
           d="m 59.257066,30.353512 c 0.191171,0 0.382341,-0.04634 0.515581,-0.104275 l -0.104275,-0.335996 c -0.08689,0.04055 -0.214342,0.06372 -0.312824,0.06372 -0.289652,0 -0.480822,-0.185377 -0.480822,-0.463443 v -2.798038 h -0.463443 v 2.861762 c 0,0.463443 0.335996,0.776267 0.845783,0.776267 z m -1.222331,-2.433077 h 1.604672 v -0.388133 h -1.604672 z"
           style="font-family:Cantarell;-inkscape-font-specification:Cantarell"
           id="path902" />
        <path
           d="m 60.821176,29.194904 h 0.440271 v -0.307031 c 0,-0.631441 0.932679,-0.874749 0.932679,-1.697361 0,-0.567718 -0.451857,-0.944265 -1.135435,-0.944265 -0.382341,0 -0.805233,0.115861 -1.147022,0.307031 l 0.110068,0.353375 c 0.312824,-0.156412 0.625648,-0.237514 0.9153,-0.237514 0.480822,0 0.764681,0.225928 0.764681,0.573511 0,0.608269 -0.880542,0.816818 -0.880542,1.645223 z m 0.225929,1.187573 c 0.220135,0 0.370754,-0.156412 0.370754,-0.370754 0,-0.214343 -0.150619,-0.370755 -0.370754,-0.370755 -0.220136,0 -0.370755,0.156412 -0.370755,0.370755 0,0.214342 0.150619,0.370754 0.370755,0.370754 z"
           style="font-family:Cantarell;-inkscape-font-specification:Cantarell"
           id="path904" />
      </g>
      <g
         aria-label="FULLCART"
         id="text8882"
         style="font-size:8.73237px;fill:#d39e5f;stroke-width:0.0964271">
        <path
           d="m 34.8243,17.925698 -0.716055,5.824491 h 1.475771 l 0.279436,-2.279149 h 1.676615 l 0.157182,-1.274926 h -1.676615 l 0.122253,-0.986758 h 1.842531 L 38.1426,17.925698 Z"
           style="fill:#f2f2f2"
           id="path865" />
        <path
           d="m 42.526242,17.925698 -0.40169,3.318301 c -0.06986,0.523942 -0.130985,0.724786 -0.314365,0.934363 -0.174647,0.192112 -0.462815,0.288168 -0.829575,0.288168 -0.646195,0 -0.960561,-0.2969 -0.960561,-0.908166 0,-0.14845 0.0087,-0.314365 0.0262,-0.489013 l 0.384225,-3.143653 h -1.467039 l -0.384224,3.143653 c -0.04366,0.358027 -0.06986,0.628731 -0.06986,0.803378 0,1.248729 0.916899,1.990981 2.427599,1.990981 0.855772,0 1.554362,-0.227042 1.990981,-0.646196 0.375491,-0.358027 0.523942,-0.803378 0.66366,-1.921121 l 0.410421,-3.370695 z"
           style="fill:#f2f2f2"
           id="path867" />
        <path
           d="m 45.224536,17.925698 -0.716055,5.824491 h 3.327033 l 0.165915,-1.283659 h -1.859994 l 0.558871,-4.540832 z"
           style="fill:#f2f2f2"
           id="path869" />
        <path
           d="m 49.346199,17.925698 -0.716055,5.824491 h 3.327033 l 0.165916,-1.283659 h -1.859995 l 0.558871,-4.540832 z"
           style="fill:#f2f2f2"
           id="path871" />
        <path
           d="m 56.000249,17.812177 c -1.781403,0 -3.178583,1.388447 -3.178583,3.161118 0,1.69408 1.205068,2.890415 2.925345,2.890415 0.44535,0 0.733519,-0.0524 1.370982,-0.279436 l 0.183379,-1.484503 c -0.454083,0.253239 -0.881969,0.366759 -1.336052,0.366759 -0.969293,0 -1.632953,-0.62873 -1.632953,-1.563094 0,-0.986758 0.759716,-1.69408 1.833797,-1.69408 0.532675,0 0.995491,0.174648 1.423377,0.532675 L 57.764188,18.30119 C 57.14419,17.951895 56.62898,17.812177 56.000249,17.812177 Z"
           style="font-family:'Futura PT Bold Italic';-inkscape-font-specification:'Futura PT Bold Italic, '"
           id="path873" />
        <path
           d="m 61.719938,22.772163 0.244507,0.978026 h 1.545629 l -1.405911,-5.824491 h -1.659151 l -2.890414,5.824491 h 1.641685 l 0.445351,-0.978026 z M 60.76811,20.318367 c 0.08732,-0.200844 0.165915,-0.384224 0.261971,-0.689857 0.0087,0.09606 0.0262,0.165915 0.03493,0.209577 0.0262,0.174647 0.03493,0.227042 0.130986,0.672392 l 0.244506,1.109011 h -1.257461 z"
           style="font-family:'Futura PT Bold Italic';-inkscape-font-specification:'Futura PT Bold Italic, '"
           id="path875" />
        <path
           d="m 68.321607,21.025689 c 0.314366,-0.33183 0.471548,-0.768448 0.471548,-1.292391 0,-0.523942 -0.165915,-1.004222 -0.445351,-1.301123 -0.33183,-0.349295 -0.820842,-0.506477 -1.615488,-0.506477 h -1.894924 l -0.716055,5.824491 h 1.475771 l 0.279436,-2.314078 1.32732,2.314078 h 1.711545 l -1.36225,-2.261684 c 0.401689,-0.139718 0.558871,-0.235774 0.768448,-0.462816 z m -1.877459,-1.929854 c 0.619998,0 0.829575,0.174648 0.829575,0.681125 0,0.55014 -0.323098,0.812111 -1.03042,0.812111 h -0.261971 l 0.18338,-1.493236 z"
           style="font-family:'Futura PT Bold Italic';-inkscape-font-specification:'Futura PT Bold Italic, '"
           id="path877" />
        <path
           d="m 73.281573,19.209356 0.157183,-1.283658 h -3.955764 l -0.157183,1.283658 h 1.239997 l -0.558872,4.540833 h 1.467038 l 0.567604,-4.540833 z"
           style="font-family:'Futura PT Bold Italic';-inkscape-font-specification:'Futura PT Bold Italic, '"
           id="path879" />
      </g>
      <g
         id="g384"
         transform="matrix(0.20131991,0,0,-0.20131991,-59.462292,57.144818)"
         style="fill:#d39e5f;fill-opacity:1">
        <g
           id="g386"
           style="fill:#d39e5f;fill-opacity:1">
          <g
             id="g392"
             style="fill:#d39e5f;fill-opacity:1">
            <g
               id="g394"
               style="fill:#d39e5f;fill-opacity:1">
              <path
                 d="m 356.935,115.255 c 0,-4.482 3.634,-8.115 8.116,-8.115 v 0 c 4.481,0 8.115,3.633 8.115,8.115 v 0 c 0,4.481 -3.634,8.115 -8.115,8.115 v 0 c -4.482,0 -8.116,-3.634 -8.116,-8.115"
                 style="fill:#d39e5f;fill-opacity:1;stroke:none"
                 id="path402" />
            </g>
          </g>
        </g>
      </g>
      <g
         id="g404"
         transform="matrix(0.20131991,0,0,-0.20131991,-55.639726,56.688027)"
         style="fill:#d39e5f;fill-opacity:1">
        <g
           id="g406"
           style="fill:#d39e5f;fill-opacity:1">
          <g
             id="g412"
             style="fill:#d39e5f;fill-opacity:1">
            <g
               id="g414"
               style="fill:#d39e5f;fill-opacity:1">
              <path
                 d="m 386.703,115.255 c 0,-4.482 3.634,-8.115 8.115,-8.115 v 0 c 4.483,0 8.116,3.633 8.116,8.115 v 0 c 0,4.481 -3.633,8.115 -8.116,8.115 v 0 c -4.481,0 -8.115,-3.634 -8.115,-8.115"
                 style="fill:#d39e5f;fill-opacity:1;stroke:none"
                 id="path422" />
            </g>
          </g>
        </g>
      </g>
      <g
         id="g444"
         transform="matrix(0.32223354,0,0,-0.32223354,-101.89462,72.978319)"
         style="fill:#4b6483;fill-opacity:1">
        <g
           id="g446"
           style="fill:#4b6483;fill-opacity:1">
          <g
             id="g452"
             style="fill:#4b6483;fill-opacity:1">
            <g
               id="g454"
               style="fill:#4b6483;fill-opacity:1">
              <path
                 id="rect32135"
                 style="fill:#f2f2f2;stroke-width:0.650379"
                 transform="matrix(0.99517704,0.09809511,0.09809511,-0.99517704,0,0)"
                 d="m 368.73047,-133.741 h 49.56869 v 2.1817 h -49.56869 z" />
              <path
                 id="rect32217"
                 style="fill:#f2f2f2;stroke-width:0.639626"
                 transform="matrix(0.99517704,0.09809511,0.09809511,-0.99517704,0,0)"
                 d="m 368.73047,-130.17926 h 47.94317 v 2.1817 h -47.94317 z" />
              <path
                 id="rect32219"
                 style="fill:#f2f2f2;stroke-width:0.632047"
                 transform="matrix(0.99517704,0.09809511,0.09809511,-0.99517704,0,0)"
                 d="m 368.73047,-126.61754 h 46.81375 v 2.1817 h -46.81375 z" />
              <path
                 id="rect32221"
                 style="fill:#f2f2f2;stroke-width:0.62872"
                 transform="matrix(0.99517704,0.09809511,0.09809511,-0.99517704,0,0)"
                 d="m 368.73047,-123.05579 h 46.32216 v 2.1817 h -46.32216 z" />
              <path
                 id="rect32223"
                 style="fill:#f2f2f2;stroke-width:0.62005"
                 transform="matrix(0.99517704,0.09809511,0.09809511,-0.99517704,0,0)"
                 d="m 368.73047,-119.49406 h 45.05345 v 2.1817 h -45.05345 z" />
              <path
                 id="rect32225"
                 style="fill:#f2f2f2;stroke-width:0.657182"
                 transform="matrix(0.99517704,0.09809511,0.09809511,-0.99517704,0,0)"
                 d="m 363.49115,-116.11865 h 50.6111 v 2.1817 h -50.6111 z" />
              <path
                 id="rect32227"
                 style="fill:#f2f2f2;stroke-width:0.615926"
                 transform="matrix(0.99517704,0.09809511,0.09809511,-0.99517704,0,0)"
                 d="m 368.73047,-112.37058 h 44.45617 v 2.1817 h -44.45617 z" />
              <path
                 id="rect32229"
                 style="fill:#f2f2f2;stroke-width:0.608717"
                 transform="matrix(0.99517704,0.09809511,0.09809511,-0.99517704,0,0)"
                 d="m 368.73047,-108.80884 h 43.42164 v 2.1817 h -43.42164 z" />
              <path
                 id="rect32231"
                 style="fill:#f2f2f2;stroke-width:0.588742"
                 transform="matrix(0.99517704,0.09809511,0.09809511,-0.99517704,0,0)"
                 d="m 368.73047,-105.24711 h 40.6186 v 2.1817 h -40.6186 z" />
              <path
                 id="rect32233"
                 style="fill:#f2f2f2;stroke-width:0.5342"
                 transform="matrix(0.99517704,0.09809511,0.09809511,-0.99517704,0,0)"
                 d="m 368.73047,-101.68537 h 33.4412 v 2.181698 h -33.4412 z" />
              <path
                 d="m 322.13815,178.57834 c 9.219,0 17.111,-6.274 19.191,-15.256 v 0 l 8.557,-36.98501 h 28.439 c 19.716,0 35.698,15.98201 35.698,35.69801 v 0 21.585 h -29.572 c 0,-5.861 4.751,-10.612 10.613,-10.612 v 0 h 8.347 v -10.973 c 0,-13.854 -11.232,-25.086 -25.084,-25.086 v 0 h -20.004 l -6.656,28.767 c -3.199,13.82 -15.342,23.473 -29.529,23.473 v 0 z"
                 style="font-size:17.6678px;line-height:1.25;fill:#f2f2f2;fill-opacity:1;stroke:none;stroke-width:0.441695"
                 id="path464" />
            </g>
          </g>
        </g>
      </g>
    </g>
  </g>
</svg>
