<?xml version="1.0" encoding="UTF-8" standalone="no"?>
<!-- Created with Inkscape (http://www.inkscape.org/) -->

<svg
   width="100mm"
   height="44mm"
   viewBox="0 0 100 44"
   version="1.1"
   id="svg5"
   inkscape:version="1.1.1 (3bf5ae0d25, 2021-09-20)"
   sodipodi:docname="logo-white.svg"
   xmlns:inkscape="http://www.inkscape.org/namespaces/inkscape"
   xmlns:sodipodi="http://sodipodi.sourceforge.net/DTD/sodipodi-0.dtd"
   xmlns="http://www.w3.org/2000/svg"
   xmlns:svg="http://www.w3.org/2000/svg">
  <sodipodi:namedview
     id="namedview7"
     pagecolor="#ffffff"
     bordercolor="#666666"
     borderopacity="1.0"
     inkscape:pageshadow="2"
     inkscape:pageopacity="0.0"
     inkscape:pagecheckerboard="0"
     inkscape:document-units="mm"
     showgrid="false"
     width="100mm"
     inkscape:zoom="0.47393376"
     inkscape:cx="238.42994"
     inkscape:cy="133.98497"
     inkscape:window-width="1366"
     inkscape:window-height="720"
     inkscape:window-x="0"
     inkscape:window-y="23"
     inkscape:window-maximized="1"
     inkscape:current-layer="layer1" />
  <defs
     id="defs2" />
  <g
     inkscape:label="Layer 1"
     inkscape:groupmode="layer"
     id="layer1">
    <g
       id="g890"
       style="font-size:17.6678px;line-height:1.25;fill:#e6e6e6;fill-opacity:1;stroke-width:0.441695"
       transform="matrix(0.22589069,0,0,-0.22589069,-62.807097,52.273291)">
      <g
         id="g896"
         style="fill:#e6e6e6;fill-opacity:1">
        <g
           id="g898"
           style="fill:#e6e6e6;fill-opacity:1">
          <path
             d="m 362.702,180.363 c -3.475,0 -6.293,-2.818 -6.293,-6.294 v 0 -8.792 h 8.793 c 3.475,0 6.292,2.818 6.292,6.294 v 0 8.792 z"
             style="fill:#e6e6e6;fill-opacity:1;stroke:none"
             id="path908" />
        </g>
      </g>
    </g>
    <g
       id="g910"
       transform="matrix(0.22589069,0,0,-0.22589069,-62.807097,52.273291)"
       style="font-size:17.6678px;line-height:1.25;fill:#e6e6e6;fill-opacity:1;stroke-width:0.441695">
      <g
         id="g912"
         style="fill:#e6e6e6;fill-opacity:1">
        <g
           id="g918"
           style="fill:#e6e6e6;fill-opacity:1">
          <g
             id="g920"
             style="fill:#e6e6e6;fill-opacity:1">
            <path
               d="m 413.895,160.973 c 0,0 -1.072,-4.703 -3.835,-11.894 v 0 h 2.279 v -8.036 c 0,-3.176 -2.575,-5.751 -5.752,-5.751 v 0 h -2.751 c -0.597,-1.15 -1.226,-2.316 -1.89,-3.501 v 0 c 0.72,0.324 1.516,0.508 2.356,0.508 v 0 h 8.037 v -8.035 c 0,-3.177 -2.575,-5.752 -5.752,-5.752 v 0 h -8.036 v 7.556 c -4.047,-6.438 -9.044,-13.123 -15.183,-19.45 v 0 h 22.242 c 7.939,0 14.631,5.917 15.602,13.795 v 0 l 3.475,35.022 c 0.295,2.967 -2.034,5.538 -5.014,5.538 v 0 z"
               style="fill:#e6e6e6;fill-opacity:1;stroke:none"
               id="path930" />
          </g>
        </g>
      </g>
    </g>
    <g
       id="g932"
       transform="matrix(0.22589069,0,0,-0.22589069,-62.807097,52.273291)"
       style="font-size:17.6678px;line-height:1.25;fill:#e6e6e6;fill-opacity:1;stroke-width:0.441695">
      <g
         id="g934"
         style="fill:#e6e6e6;fill-opacity:1">
        <g
           id="g940"
           style="fill:#e6e6e6;fill-opacity:1">
          <g
             id="g942"
             style="fill:#e6e6e6;fill-opacity:1">
            <path
               d="m 377.154,181.162 c -1.737,0 -3.146,-1.408 -3.146,-3.146 v 0 -4.396 h 4.396 c 1.739,0 3.147,1.408 3.147,3.146 v 0 4.396 z"
               style="fill:#e6e6e6;fill-opacity:1;stroke:none"
               id="path952" />
          </g>
        </g>
      </g>
    </g>
    <g
       id="g954"
       transform="matrix(0.22589069,0,0,-0.22589069,-62.807097,52.273291)"
       style="font-size:17.6678px;line-height:1.25;fill:#e6e6e6;fill-opacity:1;stroke-width:0.441695">
      <g
         id="g956"
         style="fill:#e6e6e6;fill-opacity:1">
        <g
           id="g962"
           style="fill:#e6e6e6;fill-opacity:1">
          <g
             id="g964"
             style="fill:#e6e6e6;fill-opacity:1">
            <path
               d="m 375.386,197.28 c -2.149,0 -3.892,-1.742 -3.892,-3.893 v 0 -5.436 h 5.439 c 2.149,0 3.891,1.741 3.891,3.891 v 0 5.438 z"
               style="fill:#e6e6e6;fill-opacity:1;stroke:none"
               id="path974" />
          </g>
        </g>
      </g>
    </g>
    <g
       id="g976"
       transform="matrix(0.22589069,0,0,-0.22589069,-62.807097,52.273291)"
       style="font-size:17.6678px;line-height:1.25;fill:#e6e6e6;fill-opacity:1;stroke-width:0.441695">
      <g
         id="g978"
         style="fill:#e6e6e6;fill-opacity:1">
        <g
           id="g984"
           style="fill:#e6e6e6;fill-opacity:1">
          <g
             id="g986"
             style="fill:#e6e6e6;fill-opacity:1">
            <path
               d="m 338.145,160.973 c -2.98,0 -5.309,-2.571 -5.015,-5.538 v 0 l 3.476,-35.022 c 0.971,-7.878 7.664,-13.795 15.601,-13.795 v 0 h 11.745 c 0,0 7.591,6.552 16.908,15.43 v 0 4.5 c 0,3.175 2.575,5.751 5.752,5.751 v 0 h 4.667 c 2.48,2.531 4.935,5.112 7.272,7.679 v 0 3.349 c 0,3.177 2.575,5.752 5.751,5.752 v 0 h 2.027 c 3.494,4.435 6.211,8.54 7.566,11.894 v 0 z m 42.715,-17.646 c 0,3.177 2.575,5.752 5.752,5.752 v 0 h 8.035 v -8.036 c 0,-3.176 -2.574,-5.751 -5.751,-5.751 v 0 h -8.036 z m -17.69,0 c 0,3.177 2.575,5.752 5.752,5.752 v 0 h 8.035 v -8.036 c 0,-3.176 -2.575,-5.751 -5.751,-5.751 v 0 h -8.036 z m -17.691,0 c 0,3.177 2.575,5.752 5.752,5.752 v 0 h 8.035 v -8.036 c 0,-3.176 -2.574,-5.751 -5.75,-5.751 v 0 h -8.037 z m 17.691,-16.779 c 0,3.175 2.575,5.751 5.752,5.751 v 0 h 8.035 v -8.035 c 0,-3.177 -2.575,-5.752 -5.751,-5.752 v 0 h -8.036 z m -17.691,0 c 0,3.175 2.575,5.751 5.752,5.751 v 0 h 8.035 v -8.035 c 0,-3.177 -2.574,-5.752 -5.75,-5.752 v 0 h -8.037 z"
               style="fill:#e6e6e6;fill-opacity:1;stroke:none"
               id="path996" />
          </g>
        </g>
      </g>
    </g>
    <g
       id="g998"
       transform="matrix(0.22589069,0,0,-0.22589069,-62.807097,52.273291)"
       style="font-size:17.6678px;line-height:1.25;fill:#e6e6e6;fill-opacity:1;stroke-width:0.441695">
      <g
         id="g1000"
         style="fill:#e6e6e6;fill-opacity:1">
        <g
           id="g1006"
           style="fill:#e6e6e6;fill-opacity:1">
          <g
             id="g1008"
             style="fill:#e6e6e6;fill-opacity:1">
            <path
               d="m 394.908,185.076 c -1.746,0 -3.369,-0.896 -4.299,-2.373 v 0 l -15.012,-23.766 c -2.13,-3.382 0.301,-7.786 4.298,-7.786 v 0 c 1.728,0 3.338,0.88 4.272,2.332 v 0 l 15.229,23.766 c 2.173,3.381 -0.253,7.827 -4.273,7.827 v 0 z"
               style="fill:#e6e6e6;fill-opacity:1;stroke:none"
               id="path1018" />
          </g>
        </g>
      </g>
    </g>
    <g
       id="g1020"
       transform="matrix(0.22589069,0,0,-0.22589069,-62.807097,52.273291)"
       style="font-size:17.6678px;line-height:1.25;fill:#e6e6e6;fill-opacity:1;stroke-width:0.441695">
      <g
         id="g1022"
         style="fill:#e6e6e6;fill-opacity:1">
        <g
           id="g1028"
           style="fill:#e6e6e6;fill-opacity:1">
          <g
             id="g1030"
             style="fill:#e6e6e6;fill-opacity:1">
            <path
               d="m 411.968,159.233 c -1.26,-1.978 -2.555,-3.934 -3.888,-5.865 v 0 c -2.88,-4.171 -5.934,-8.223 -9.185,-12.113 v 0 c -14.878,-17.802 -35.859,-35.777 -60.347,-35.98 v 0 c -3.087,-0.026 -6.5,0.48 -8.49,2.838 v 0 c -2.881,3.411 -2.13,9.313 -1.552,13.383 v 0 c 0.425,3.001 1.04,6.012 1.904,8.919 v 0 c 0,0 -6.792,-8.986 -7.627,-26.127 v 0 c -0.286,-5.883 2.174,-11.839 8.376,-13.277 v 0 c 10.758,-2.494 23.134,6.509 31.531,12.12 v 0 c 10.35,6.917 19.76,15.203 28.13,24.408 v 0 c 9.894,10.88 19.621,23.804 24.843,37.738 v 0 c -0.781,-2.084 -2.501,-4.165 -3.695,-6.044"
               style="fill:#e6e6e6;fill-opacity:1;stroke:none"
               id="path1040" />
          </g>
        </g>
      </g>
    </g>
    <g
       aria-label="FULLCART"
       id="text3841"
       style="font-size:10.7497px;line-height:1.25;fill:#e6e6e6;stroke-width:0.7;stroke:#e6e6e6;stroke-opacity:1;stroke-miterlimit:4;stroke-dasharray:none">
      <path
         d="m 37.373408,17.10931 0.162716,-0.65611 0.656109,-0.04199 0.06299,-0.430408 0.6981,-0.02099 -0.04199,0.430408 q 0.08923,-0.0052 0.278191,-0.01575 1.595658,-0.06823 2.325252,-0.157466 l -0.204706,0.624616 q -0.635114,0.03149 -1.254482,0.07348 -0.614118,0.04199 -1.196743,0.08923 -0.115476,0.577377 -0.204707,1.154753 -0.08398,0.572128 -0.146968,1.154753 0.503892,-0.0105 1.065522,-0.03149 0.566878,-0.021 1.254481,-0.05249 l -0.141719,0.545883 q -0.435657,0.03149 -0.965794,0.06824 -0.530136,0.03149 -1.322717,0.06824 -0.0105,0.09973 -0.03149,0.304435 -0.157466,1.44869 -0.183711,2.372492 -0.0105,0.167964 -0.07348,0.262444 -0.05774,0.08923 -0.183711,0.136471 l -0.472398,0.194208 q -0.0105,0.0052 -0.021,0.0052 -0.0105,0.0052 -0.03149,0.0052 -0.06299,0 -0.09973,-0.05774 -0.03149,-0.06299 -0.03149,-0.167964 0,-0.241448 0.09448,-1.102264 0.09973,-0.866065 0.262443,-1.905342 l -0.409412,-0.021 0.04199,-0.377919 0.482897,-0.246697 q 0.136471,-0.913305 0.220453,-1.40145 0.08398,-0.493394 0.157466,-0.876562 z"
         style="font-style:italic;font-weight:bold;font-family:'Fira Code iCursive S12';-inkscape-font-specification:'Fira Code iCursive S12 Bold Italic';stroke:#e6e6e6;stroke-opacity:1;stroke-width:0.7;stroke-miterlimit:4;stroke-dasharray:none"
         id="path891" />
      <path
         d="m 42.805996,16.474196 0.834571,-0.104978 q -0.383168,1.537921 -0.608869,2.923625 -0.225702,1.385703 -0.225702,2.010319 0,0.530137 0.251946,0.824074 0.251946,0.293937 0.713847,0.293937 0.409413,0 0.776834,-0.251946 0.367421,-0.251946 0.698101,-0.761087 v -0.267693 q 0,-0.83982 0.131221,-1.947333 0.136471,-1.107513 0.404164,-2.440728 l 0.83982,-0.125973 q -0.283439,1.049776 -0.435657,2.120546 -0.146968,1.065522 -0.146968,2.005071 0,1.007785 0.236199,2.047062 0.04199,0.204706 0.04199,0.241449 0,0.03149 -0.021,0.05249 -0.021,0.01575 -0.115475,0.03674 l -0.461902,0.08398 q -0.07873,0.0105 -0.110226,0.0105 -0.09973,0 -0.152217,-0.194208 -0.05249,-0.194209 -0.115476,-1.007785 -0.493394,0.593124 -0.929051,0.860816 -0.430408,0.267693 -0.897558,0.267693 -0.729594,0 -1.112762,-0.482897 -0.383168,-0.482896 -0.383168,-1.396201 0,-0.582625 0.18896,-1.732129 0.188959,-1.149504 0.598372,-3.065344 z"
         style="font-style:italic;font-weight:bold;font-family:'Fira Code iCursive S12';-inkscape-font-specification:'Fira Code iCursive S12 Bold Italic';stroke:#e6e6e6;stroke-opacity:1;stroke-width:0.7;stroke-miterlimit:4;stroke-dasharray:none"
         id="path893" />
      <path
         d="m 47.923651,23.245247 0.08398,-0.372671 0.377919,-0.246697 q 0.293937,-2.173035 0.46715,-3.574485 0.178462,-1.406699 0.293937,-2.545705 l 0.761087,-0.246697 0.183711,0.131222 q -0.325431,1.522174 -0.524888,3.060095 -0.194208,1.532672 -0.257195,3.065344 0.173213,0.01575 0.320182,0.02624 0.146968,0.0052 0.267692,0.0052 0.456653,0 0.950047,-0.03674 0.493394,-0.03674 1.018282,-0.110226 l 0.120724,0.225701 -0.246697,0.461901 q -0.0052,0.0052 -0.0105,0.01575 -0.05249,0.110226 -0.262444,0.110226 -0.08398,0 -0.524887,-0.0105 -0.435657,-0.0105 -0.797829,-0.0105 -0.419911,0 -0.960545,0.0105 -0.535385,0.01575 -1.25973,0.04199 z"
         style="font-style:italic;font-weight:bold;font-family:'Fira Code iCursive S12';-inkscape-font-specification:'Fira Code iCursive S12 Bold Italic';stroke:#e6e6e6;stroke-opacity:1;stroke-width:0.7;stroke-miterlimit:4;stroke-dasharray:none"
         id="path895" />
      <path
         d="m 53.298501,23.245247 0.08398,-0.372671 0.377919,-0.246697 q 0.293937,-2.173035 0.46715,-3.574485 0.178462,-1.406699 0.293937,-2.545705 l 0.761087,-0.246697 0.183711,0.131222 q -0.32543,1.522174 -0.524888,3.060095 -0.194208,1.532672 -0.257195,3.065344 0.173213,0.01575 0.320182,0.02624 0.146968,0.0052 0.267693,0.0052 0.456652,0 0.950046,-0.03674 0.493395,-0.03674 1.018282,-0.110226 l 0.120725,0.225701 -0.246698,0.461901 q -0.0052,0.0052 -0.0105,0.01575 -0.05249,0.110226 -0.262444,0.110226 -0.08398,0 -0.524888,-0.0105 -0.435657,-0.0105 -0.797829,-0.0105 -0.41991,0 -0.960545,0.0105 -0.535385,0.01575 -1.25973,0.04199 z"
         style="font-style:italic;font-weight:bold;font-family:'Fira Code iCursive S12';-inkscape-font-specification:'Fira Code iCursive S12 Bold Italic';stroke:#e6e6e6;stroke-opacity:1;stroke-width:0.7;stroke-miterlimit:4;stroke-dasharray:none"
         id="path897" />
      <path
         d="m 62.184849,18.97791 -0.524888,-0.125973 q 0.09973,-0.309684 0.167964,-0.650861 0.06824,-0.346426 0.09973,-0.724345 -0.377919,-0.246697 -0.650861,-0.346426 -0.267693,-0.104977 -0.509141,-0.104977 -0.640363,0 -1.12326,0.923802 -0.477647,0.918554 -0.477647,2.204528 0,1.254482 0.435656,1.952582 0.435657,0.698101 1.21774,0.698101 0.314932,0 0.582625,-0.173213 0.272942,-0.178462 0.729594,-0.740091 l 0.278191,0.246697 q -0.440906,0.656109 -0.897558,0.944798 -0.451404,0.283439 -1.034029,0.283439 -1.034029,0 -1.611405,-0.787332 -0.572128,-0.79258 -0.572128,-2.225523 0,-0.887061 0.251946,-1.663894 0.257195,-0.776834 0.734843,-1.35421 0.398915,-0.482897 0.88706,-0.75059 0.488146,-0.272941 0.960545,-0.272941 0.299186,0 0.598372,0.08923 0.304434,0.08398 0.608869,0.257195 0.183711,0.09973 0.246697,0.183711 0.06299,0.08398 0.06299,0.246697 0,0.372671 -0.120724,0.881812 -0.120724,0.503892 -0.341177,1.007784 z"
         style="font-style:italic;font-weight:bold;font-family:'Fira Code iCursive S12';-inkscape-font-specification:'Fira Code iCursive S12 Bold Italic';stroke:#e6e6e6;stroke-opacity:1;stroke-width:0.7;stroke-miterlimit:4;stroke-dasharray:none"
         id="path899" />
      <path
         d="m 64.93526,20.547324 q 0.157466,-0.0052 0.404163,-0.0105 0.246697,-0.0105 0.309684,-0.0105 0.110226,0 0.482897,0.01575 0.188959,0.0052 0.288688,0.0052 -0.14172,-0.566879 -0.257195,-1.144255 -0.110226,-0.582625 -0.194209,-1.165251 h -0.152217 q -0.299186,0.677105 -0.524888,1.270228 -0.220452,0.587875 -0.356923,1.039278 z m -0.194209,0.498643 q -0.246697,0.603621 -0.446154,1.322717 -0.194209,0.719096 -0.346426,0.740092 l -0.535386,0.05249 h -0.03149 q -0.04199,0 -0.06299,-0.0105 -0.021,-0.01575 -0.02625,-0.04199 0,-0.199457 0.530137,-1.574663 l 0.104977,-0.262444 -0.351674,-0.152217 q 0.02624,-0.241449 0.110226,-0.341177 0.08398,-0.09973 0.46715,-0.230951 0.335928,-0.845069 0.729594,-1.763623 0.398915,-0.918553 0.850318,-1.910591 l -0.06299,-0.461901 0.9343,-0.194208 q -0.01575,0.162715 -0.021,0.246697 0,0.07873 0,0.162715 0,0.493395 0.110226,1.207242 0.110227,0.708598 0.341177,1.72688 0.293938,1.280726 0.566879,2.052311 0.272942,0.771585 0.614119,1.333215 l -0.409413,0.173213 q -0.08398,0.03674 -0.152217,0.05249 -0.06824,0.021 -0.125973,0.021 -0.162715,0 -0.362173,-0.435657 -0.194208,-0.440905 -0.582625,-1.711134 -0.173213,0.0052 -0.367421,0.0105 -0.18896,0 -0.577377,0 -0.267692,0 -0.472399,0 -0.204706,-0.0052 -0.425159,-0.0105 z"
         style="font-style:italic;font-weight:bold;font-family:'Fira Code iCursive S12';-inkscape-font-specification:'Fira Code iCursive S12 Bold Italic';stroke:#e6e6e6;stroke-opacity:1;stroke-width:0.7;stroke-miterlimit:4;stroke-dasharray:none"
         id="path901" />
      <path
         d="m 69.055629,17.397998 v -0.461901 q 0.698101,-0.346426 1.411948,-0.524888 0.719096,-0.18371 1.380455,-0.18371 0.834571,0 1.233486,0.346425 0.404163,0.341177 0.404163,1.049776 0,0.771585 -0.551132,1.427694 -0.551132,0.65611 -1.590409,1.12326 0.519639,0.944798 1.091766,1.632401 0.572128,0.682353 1.165251,1.065521 -0.04199,0.18896 -0.204706,0.288689 -0.157467,0.09448 -0.430408,0.09448 -0.393666,0 -0.944798,-0.656109 -0.551132,-0.65611 -1.396201,-2.146791 l -0.419911,0.09448 q -0.09973,0.666607 -0.125973,1.537921 -0.02099,0.808327 -0.283439,0.913305 l -0.451403,0.18371 q -0.0105,0.0052 -0.021,0.0052 -0.0105,0.0052 -0.03149,0.0052 -0.05249,0 -0.08923,-0.04724 -0.03149,-0.04724 -0.03149,-0.125973 0,-0.818825 0.194208,-2.414483 0.199457,-1.600908 0.545883,-3.453761 -0.194208,0.03674 -0.404163,0.09973 -0.204706,0.05774 -0.451404,0.146969 z m 1.191495,2.603443 q 1.139007,-0.262444 1.805614,-0.866065 0.666607,-0.603621 0.666607,-1.348961 0,-0.456652 -0.267692,-0.713847 -0.267693,-0.262444 -0.729594,-0.262444 -0.178462,0 -0.440906,0.03674 -0.257195,0.03674 -0.624616,0.110226 -0.115475,0.614119 -0.220453,1.385704 -0.09973,0.766336 -0.18896,1.658645 z"
         style="font-style:italic;font-weight:bold;font-family:'Fira Code iCursive S12';-inkscape-font-specification:'Fira Code iCursive S12 Bold Italic';stroke:#e6e6e6;stroke-opacity:1;stroke-width:0.7;stroke-miterlimit:4;stroke-dasharray:none"
         id="path903" />
      <path
         d="m 74.656179,17.345509 0.06299,-0.6981 q 0.545883,-0.162716 1.732129,-0.272942 1.186247,-0.110226 2.986611,-0.167964 l -0.125973,0.687603 q -0.46715,0.05249 -0.929051,0.08398 -0.456652,0.02624 -0.9343,0.03674 -0.230951,1.217739 -0.388417,2.540456 -0.152217,1.317468 -0.220453,2.703172 -0.0052,0.07348 -0.0052,0.209955 -0.0105,0.472399 -0.267692,0.572128 l -0.46715,0.194208 q -0.0105,0.0052 -0.021,0.0052 -0.0105,0.0052 -0.02624,0.0052 -0.05774,0 -0.09973,-0.06824 -0.04199,-0.06299 -0.04199,-0.167964 0,-0.451403 0.215204,-2.188781 0.220453,-1.742627 0.56163,-3.763445 -0.687603,0.06299 -1.175749,0.136471 -0.482896,0.06824 -0.855566,0.152217 z"
         style="font-style:italic;font-weight:bold;font-family:'Fira Code iCursive S12';-inkscape-font-specification:'Fira Code iCursive S12 Bold Italic';stroke:#e6e6e6;stroke-opacity:1;stroke-width:0.7;stroke-miterlimit:4;stroke-dasharray:none"
         id="path905" />
    </g>
    <g
       aria-label="Is't full yet?"
       transform="scale(1.1336524,0.8821046)"
       id="text6353"
       style="font-size:5.01023px;line-height:1.65;letter-spacing:0.0111937px;word-spacing:0.00447742px;fill:#cccccc;stroke-width:0.1;stroke:#cccccc;stroke-opacity:1;stroke-miterlimit:4;stroke-dasharray:none">
      <path
         d="m 33.388603,28.406171 h 0.494176 v 3.652499 h -0.494176 z"
         style="-inkscape-font-specification:sans-serif;baseline-shift:baseline;stroke:#cccccc;stroke-opacity:1;stroke-width:0.1;stroke-miterlimit:4;stroke-dasharray:none"
         id="path866" />
      <path
         d="m 36.604602,29.399416 v 0.425676 q -0.190821,-0.09786 -0.39632,-0.146785 -0.205498,-0.04893 -0.425676,-0.04893 -0.335159,0 -0.503962,0.102749 -0.166356,0.10275 -0.166356,0.308249 0,0.15657 0.119874,0.247088 0.119875,0.08807 0.481944,0.168803 l 0.154125,0.03425 q 0.479497,0.10275 0.680103,0.291124 0.203053,0.185927 0.203053,0.521086 0,0.381641 -0.303356,0.604265 -0.300909,0.222624 -0.829335,0.222624 -0.220177,0 -0.459926,-0.04404 -0.237302,-0.04159 -0.501515,-0.127214 v -0.464819 q 0.249534,0.12966 0.491729,0.195713 0.242195,0.06361 0.479498,0.06361 0.318034,0 0.489283,-0.107642 0.171249,-0.110089 0.171249,-0.308249 0,-0.183481 -0.124767,-0.281338 -0.122321,-0.09786 -0.540658,-0.188374 l -0.156571,-0.0367 q -0.418337,-0.08807 -0.604264,-0.269106 -0.185928,-0.183481 -0.185928,-0.501515 0,-0.386534 0.273999,-0.596925 0.273998,-0.210392 0.77796,-0.210392 0.249534,0 0.469712,0.0367 0.220177,0.0367 0.406105,0.110089 z"
         style="-inkscape-font-specification:sans-serif;baseline-shift:baseline;stroke:#cccccc;stroke-opacity:1;stroke-width:0.1;stroke-miterlimit:4;stroke-dasharray:none"
         id="path868" />
      <path
         d="m 37.905057,28.406171 v 1.357761 h -0.415891 v -1.357761 z"
         style="-inkscape-font-specification:sans-serif;baseline-shift:baseline;stroke:#cccccc;stroke-opacity:1;stroke-width:0.1;stroke-miterlimit:4;stroke-dasharray:none"
         id="path870" />
      <path
         d="m 39.313154,28.540724 v 0.77796 h 0.927192 v 0.349838 h -0.927192 v 1.487421 q 0,0.335159 0.09052,0.430569 0.09296,0.09541 0.374301,0.09541 h 0.462373 v 0.376748 h -0.462373 q -0.521086,0 -0.719246,-0.193267 -0.19816,-0.195713 -0.19816,-0.70946 v -1.487421 h -0.330266 v -0.349838 h 0.330266 v -0.77796 z"
         style="-inkscape-font-specification:sans-serif;baseline-shift:baseline;stroke:#cccccc;stroke-opacity:1;stroke-width:0.1;stroke-miterlimit:4;stroke-dasharray:none"
         id="path872" />
      <path
         d="m 43.838978,28.252047 v 0.374301 h -0.430569 q -0.242195,0 -0.337605,0.09786 -0.09296,0.09786 -0.09296,0.352284 v 0.242195 h 0.741264 v 0.349838 H 42.97784 v 2.390148 h -0.452587 v -2.390148 h -0.430569 v -0.349838 h 0.430569 v -0.19082 q 0,-0.45748 0.212838,-0.665426 0.212838,-0.210391 0.675211,-0.210391 z"
         style="-inkscape-font-specification:sans-serif;baseline-shift:baseline;stroke:#cccccc;stroke-opacity:1;stroke-width:0.1;stroke-miterlimit:4;stroke-dasharray:none"
         id="path874" />
      <path
         d="m 44.180438,30.977354 v -1.65867 h 0.450141 v 1.641545 q 0,0.38898 0.151677,0.584694 0.151678,0.193267 0.455034,0.193267 0.364516,0 0.574908,-0.23241 0.212838,-0.23241 0.212838,-0.633622 v -1.553474 h 0.45014 v 2.739986 h -0.45014 v -0.420784 q -0.16391,0.249535 -0.381641,0.371856 -0.215285,0.119874 -0.501515,0.119874 -0.472159,0 -0.7168,-0.29357 -0.244642,-0.29357 -0.244642,-0.858692 z m 1.132691,-1.724723 z"
         style="-inkscape-font-specification:sans-serif;baseline-shift:baseline;stroke:#cccccc;stroke-opacity:1;stroke-width:0.1;stroke-miterlimit:4;stroke-dasharray:none"
         id="path876" />
      <path
         d="m 47.413562,28.252047 h 0.45014 v 3.806623 h -0.45014 z"
         style="-inkscape-font-specification:sans-serif;baseline-shift:baseline;stroke:#cccccc;stroke-opacity:1;stroke-width:0.1;stroke-miterlimit:4;stroke-dasharray:none"
         id="path878" />
      <path
         d="m 48.816766,28.252047 h 0.45014 v 3.806623 h -0.45014 z"
         style="-inkscape-font-specification:sans-serif;baseline-shift:baseline;stroke:#cccccc;stroke-opacity:1;stroke-width:0.1;stroke-miterlimit:4;stroke-dasharray:none"
         id="path880" />
      <path
         d="m 52.968288,32.313097 q -0.19082,0.489284 -0.371855,0.638515 -0.181035,0.149231 -0.48439,0.149231 h -0.359624 v -0.376748 h 0.264213 q 0.185928,0 0.288678,-0.08807 0.102749,-0.08807 0.227516,-0.41589 l 0.08073,-0.205499 -1.108227,-2.695951 h 0.477052 l 0.856245,2.143061 0.856246,-2.143061 h 0.477051 z"
         style="-inkscape-font-specification:sans-serif;baseline-shift:baseline;stroke:#cccccc;stroke-opacity:1;stroke-width:0.1;stroke-miterlimit:4;stroke-dasharray:none"
         id="path882" />
      <path
         d="m 57.148175,30.576142 v 0.220177 h -2.069668 q 0.02936,0.464819 0.278891,0.709461 0.251981,0.242195 0.699675,0.242195 0.25932,0 0.501515,-0.06361 0.244642,-0.06361 0.484391,-0.19082 v 0.425676 q -0.242195,0.10275 -0.496623,0.156571 -0.254427,0.05382 -0.516193,0.05382 -0.65564,0 -1.039727,-0.381641 -0.381641,-0.381641 -0.381641,-1.032387 0,-0.672765 0.362069,-1.066638 0.364516,-0.396319 0.981013,-0.396319 0.55289,0 0.873371,0.357177 0.322927,0.35473 0.322927,0.966334 z m -0.450141,-0.132107 q -0.0049,-0.369408 -0.207945,-0.589586 -0.200606,-0.220177 -0.533319,-0.220177 -0.376748,0 -0.604265,0.212838 -0.22507,0.212838 -0.25932,0.599372 z"
         style="-inkscape-font-specification:sans-serif;baseline-shift:baseline;stroke:#cccccc;stroke-opacity:1;stroke-width:0.1;stroke-miterlimit:4;stroke-dasharray:none"
         id="path884" />
      <path
         d="m 58.343433,28.540724 v 0.77796 h 0.927192 v 0.349838 h -0.927192 v 1.487421 q 0,0.335159 0.09052,0.430569 0.09296,0.09541 0.374301,0.09541 h 0.462373 v 0.376748 h -0.462373 q -0.521086,0 -0.719246,-0.193267 -0.19816,-0.195713 -0.19816,-0.70946 V 29.668522 H 57.56058 v -0.349838 h 0.330266 v -0.77796 z"
         style="-inkscape-font-specification:sans-serif;baseline-shift:baseline;stroke:#cccccc;stroke-opacity:1;stroke-width:0.1;stroke-miterlimit:4;stroke-dasharray:none"
         id="path886" />
      <path
         d="m 60.358242,31.43728 h 0.496622 v 0.62139 h -0.496622 z m 0.481944,-0.359623 h -0.467265 v -0.376748 q 0,-0.247088 0.0685,-0.406105 0.0685,-0.159017 0.288677,-0.369409 l 0.220178,-0.217731 q 0.139445,-0.12966 0.200606,-0.244641 0.06361,-0.114982 0.06361,-0.234856 0,-0.217731 -0.161464,-0.352284 -0.159017,-0.134553 -0.42323,-0.134553 -0.193267,0 -0.413444,0.08562 -0.217731,0.08563 -0.455033,0.249535 v -0.459926 q 0.229963,-0.139446 0.464819,-0.207946 0.237302,-0.0685 0.489283,-0.0685 0.45014,0 0.721693,0.237302 0.273998,0.237302 0.273998,0.626282 0,0.185928 -0.08807,0.354731 -0.08807,0.166356 -0.308248,0.376748 l -0.215285,0.210392 q -0.114981,0.114981 -0.16391,0.181034 -0.04648,0.06361 -0.06605,0.124768 -0.01468,0.05137 -0.02202,0.124767 -0.0073,0.07339 -0.0073,0.200606 z"
         style="-inkscape-font-specification:sans-serif;baseline-shift:baseline;stroke:#cccccc;stroke-opacity:1;stroke-width:0.1;stroke-miterlimit:4;stroke-dasharray:none"
         id="path888" />
    </g>
    <g
       aria-label="TM"
       id="text6353-5"
       style="font-size:3.03538px;line-height:1.65;letter-spacing:0.00678142px;word-spacing:0.00271257px;fill:#e6e6e6;stroke-width:0.0335179;stroke:#e6e6e6;stroke-opacity:1">
      <path
         d="m 82.892871,11.203703 h 1.871917 v 0.25196 h -0.785524 v 1.960844 h -0.30087 v -1.960844 h -0.785523 z"
         style="-inkscape-font-specification:sans-serif;baseline-shift:baseline;stroke:#e6e6e6;stroke-opacity:1"
         id="path861" />
      <path
         d="M 85.060582,11.203703 H 85.5067 l 0.564688,1.505833 0.567651,-1.505833 h 0.446118 v 2.212804 H 86.79318 v -1.943058 l -0.570616,1.51769 h -0.300871 l -0.570615,-1.51769 v 1.943058 h -0.290496 z"
         style="-inkscape-font-specification:sans-serif;baseline-shift:baseline;stroke:#e6e6e6;stroke-opacity:1"
         id="path863" />
    </g>
  </g>
</svg>
