<?xml version="1.0" encoding="UTF-8" standalone="no"?>
<!-- Created with Inkscape (http://www.inkscape.org/) -->

<svg
   width="105mm"
   height="44mm"
   viewBox="0 0 105 44"
   version="1.1"
   id="svg5"
   inkscape:version="1.1.1 (3bf5ae0d25, 2021-09-20)"
   sodipodi:docname="logo.svg"
   xmlns:inkscape="http://www.inkscape.org/namespaces/inkscape"
   xmlns:sodipodi="http://sodipodi.sourceforge.net/DTD/sodipodi-0.dtd"
   xmlns="http://www.w3.org/2000/svg"
   xmlns:svg="http://www.w3.org/2000/svg">
  <sodipodi:namedview
     id="namedview7"
     pagecolor="#ffffff"
     bordercolor="#666666"
     borderopacity="1.0"
     inkscape:pageshadow="2"
     inkscape:pageopacity="0.0"
     inkscape:pagecheckerboard="0"
     inkscape:document-units="mm"
     showgrid="false"
     width="101mm"
     inkscape:zoom="0.32000001"
     inkscape:cx="349.99999"
     inkscape:cy="195.31249"
     inkscape:window-width="1366"
     inkscape:window-height="720"
     inkscape:window-x="0"
     inkscape:window-y="23"
     inkscape:window-maximized="1"
     inkscape:current-layer="text1872"
     showguides="true"
     inkscape:guide-bbox="true" />
  <defs
     id="defs2" />
  <g
     inkscape:label="Layer 1"
     inkscape:groupmode="layer"
     id="layer1">
    <g
       aria-label="Redux "
       id="text2492"
       style="font-size:17.6678px;line-height:1.25;stroke-width:0.441695"
       transform="matrix(0.92212352,0,0,0.92212352,2.0813178,1.8526887)">
      <g
         aria-label="ts-react-redux-toolkit-template"
         id="text1872"
         style="font-size:6.12114px;stroke-width:0.093244">
        <g
           aria-label="GURD YOURSELF"
           id="text7593"
           style="font-size:6.68492px;fill:#808080;stroke:#000000;stroke-width:0.0155833;stroke-opacity:1"
           transform="matrix(0.91423811,0,0,0.91423811,9.4935033,5.7836613)">
          <path
             d="m 21.591839,25.485764 h 1.323622 c -0.01337,0.280768 -0.100274,0.494687 -0.180494,0.635071 -0.254028,0.447893 -0.76877,0.748716 -1.363732,0.748716 -0.842305,0 -1.811624,-0.615017 -1.811624,-1.831679 0,-1.036169 0.748716,-1.845049 1.824994,-1.845049 0.534797,0 0.869045,0.200549 1.082964,0.374358 0.147069,0.120329 0.294138,0.280768 0.421152,0.461262 l 0.367673,-0.334248 C 23.12938,23.520386 22.942201,23.319837 22.741652,23.166083 22.30713,22.831835 21.805758,22.724876 21.37792,22.724876 c -1.330307,0 -2.326366,1.009429 -2.326366,2.306311 0,1.296882 0.989374,2.306311 2.312996,2.306311 1.022799,0 1.524171,-0.621701 1.65787,-0.802195 0.280769,-0.381043 0.427838,-0.91584 0.427838,-1.410527 v -0.106959 h -1.858419 z"
             style="font-family:'Futura PT';-inkscape-font-specification:'Futura PT';fill:#808080;stroke:#000000;stroke-opacity:1"
             id="path21908" />
          <path
             d="m 24.854096,22.79841 h -0.494687 v 2.867848 c 0,0.374358 0.04011,0.735346 0.280768,1.069594 0.267398,0.367672 0.735345,0.601646 1.303567,0.601646 0.568222,0 1.036169,-0.233974 1.303567,-0.601646 0.240659,-0.334248 0.280769,-0.695236 0.280769,-1.069594 V 22.79841 h -0.494687 v 2.734149 c 0,0.374358 0,0.78214 -0.354303,1.082963 -0.180494,0.153754 -0.488002,0.254029 -0.735346,0.254029 -0.247343,0 -0.554852,-0.100275 -0.735346,-0.254029 -0.354302,-0.300823 -0.354302,-0.708605 -0.354302,-1.082963 z"
             style="font-family:'Futura PT';-inkscape-font-specification:'Futura PT';fill:#808080;stroke:#000000;stroke-opacity:1"
             id="path21910" />
          <path
             d="m 28.677892,22.79841 v 4.458868 h 0.494687 V 25.30527 h 0.127014 l 1.357047,1.952008 h 0.601646 L 29.841075,25.26516 c 0.675181,-0.04679 1.123073,-0.548166 1.123073,-1.230032 0,-0.474632 -0.227288,-0.815565 -0.488002,-0.989374 -0.334248,-0.227289 -0.78214,-0.247344 -1.082963,-0.247344 z m 0.494687,0.467947 h 0.300823 c 0.213919,0 0.441208,0.01337 0.641756,0.127015 0.280769,0.160439 0.354303,0.407782 0.354303,0.655126 0,0.521427 -0.367673,0.815565 -0.982689,0.815565 h -0.314193 z"
             style="font-family:'Futura PT';-inkscape-font-specification:'Futura PT';fill:#808080;stroke:#000000;stroke-opacity:1"
             id="path21912" />
          <path
             d="m 32.033735,27.257278 h 0.902469 c 0.79551,0 1.223348,-0.167124 1.63113,-0.514741 0.320878,-0.274084 0.782141,-0.775456 0.782141,-1.71135 0,-0.802195 -0.354303,-1.370417 -0.762086,-1.71135 -0.561536,-0.474632 -1.196608,-0.521427 -1.6445,-0.521427 h -0.909154 z m 0.494687,-3.990921 h 0.434522 c 1.129758,0 1.878474,0.695236 1.878474,1.76483 0,0.635071 -0.267399,1.076278 -0.601647,1.357047 -0.434522,0.360987 -0.922524,0.401097 -1.276827,0.401097 h -0.434522 z"
             style="font-family:'Futura PT';-inkscape-font-specification:'Futura PT';fill:#808080;stroke:#000000;stroke-opacity:1"
             id="path21914" />
          <path
             d="m 38.758802,27.257278 h 0.494687 v -1.918583 l 1.477376,-2.540285 h -0.574907 l -1.149813,1.992118 -1.136443,-1.992118 h -0.574906 l 1.464006,2.540285 z"
             style="font-family:'Futura PT';-inkscape-font-specification:'Futura PT';fill:#808080;stroke:#000000;stroke-opacity:1"
             id="path21916" />
          <path
             d="m 43.277827,27.337498 c 1.290197,0 2.319681,-0.982689 2.319681,-2.306311 0,-1.330307 -1.036169,-2.306311 -2.319681,-2.306311 -1.283513,0 -2.319681,0.976004 -2.319681,2.306311 0,1.323622 1.029483,2.306311 2.319681,2.306311 z m 0,-4.144675 c 1.002744,0 1.811624,0.815565 1.811624,1.838364 0,1.022799 -0.80888,1.838364 -1.811624,1.838364 -1.002744,0 -1.811625,-0.815565 -1.811625,-1.838364 0,-1.022799 0.808881,-1.838364 1.811625,-1.838364 z"
             style="font-family:'Futura PT';-inkscape-font-specification:'Futura PT';fill:#808080;stroke:#000000;stroke-opacity:1"
             id="path21918" />
          <path
             d="m 47.001341,22.79841 h -0.494687 v 2.867848 c 0,0.374358 0.04011,0.735346 0.280768,1.069594 0.267399,0.367672 0.735346,0.601646 1.303567,0.601646 0.568222,0 1.036169,-0.233974 1.303568,-0.601646 0.240658,-0.334248 0.280768,-0.695236 0.280768,-1.069594 V 22.79841 h -0.494687 v 2.734149 c 0,0.374358 0,0.78214 -0.354303,1.082963 -0.180494,0.153754 -0.488002,0.254029 -0.735346,0.254029 -0.247343,0 -0.554851,-0.100275 -0.735345,-0.254029 -0.354303,-0.300823 -0.354303,-0.708605 -0.354303,-1.082963 z"
             style="font-family:'Futura PT';-inkscape-font-specification:'Futura PT';fill:#808080;stroke:#000000;stroke-opacity:1"
             id="path21920" />
          <path
             d="m 50.825137,22.79841 v 4.458868 h 0.494687 V 25.30527 h 0.127015 l 1.357046,1.952008 h 0.601647 L 51.98832,25.26516 c 0.675181,-0.04679 1.123074,-0.548166 1.123074,-1.230032 0,-0.474632 -0.227289,-0.815565 -0.488002,-0.989374 -0.334248,-0.227289 -0.782141,-0.247344 -1.082964,-0.247344 z m 0.494687,0.467947 h 0.300824 c 0.213918,0 0.441207,0.01337 0.641756,0.127015 0.280768,0.160439 0.354303,0.407782 0.354303,0.655126 0,0.521427 -0.367673,0.815565 -0.98269,0.815565 h -0.314193 z"
             style="font-family:'Futura PT';-inkscape-font-specification:'Futura PT';fill:#808080;stroke:#000000;stroke-opacity:1"
             id="path21922" />
          <path
             d="m 56.567511,23.420111 c -0.100275,-0.193863 -0.254029,-0.374357 -0.434523,-0.494687 -0.220603,-0.147069 -0.441207,-0.200548 -0.71529,-0.200548 -0.721976,0 -1.250088,0.461262 -1.250088,1.149813 0,0.334248 0.113644,0.541481 0.307508,0.72866 0.200549,0.193864 0.421153,0.287454 0.594962,0.367673 l 0.401097,0.187179 c 0.233974,0.106959 0.407783,0.187179 0.534797,0.307508 0.160439,0.147069 0.220604,0.320878 0.220604,0.521427 0,0.447892 -0.287454,0.882415 -0.895785,0.882415 -0.227289,0 -0.447892,-0.05348 -0.641756,-0.247344 -0.127014,-0.133699 -0.233974,-0.334248 -0.267399,-0.568221 l -0.481317,0.133699 c 0.06017,0.267398 0.193864,0.574906 0.414468,0.788825 0.307508,0.300823 0.675181,0.360988 0.969319,0.360988 0.802195,0 1.410527,-0.548167 1.410527,-1.370417 0,-0.320878 -0.09359,-0.581591 -0.320878,-0.80888 -0.187179,-0.187179 -0.427838,-0.307508 -0.688551,-0.421152 L 55.297368,24.54987 c -0.167124,-0.07353 -0.334248,-0.147069 -0.467947,-0.280769 -0.120329,-0.113644 -0.167124,-0.213918 -0.167124,-0.387727 0,-0.414468 0.307508,-0.688551 0.748716,-0.688551 0.254028,0 0.414467,0.0869 0.501372,0.153754 0.100274,0.08022 0.200548,0.213919 0.260713,0.334248 z"
             style="font-family:'Futura PT';-inkscape-font-specification:'Futura PT';fill:#808080;stroke:#000000;stroke-opacity:1"
             id="path21924" />
          <path
             d="m 59.956783,22.79841 h -2.312996 v 4.458868 h 2.312996 v -0.467947 h -1.818309 v -1.731404 h 1.764829 v -0.467948 h -1.764829 v -1.323622 h 1.818309 z"
             style="font-family:'Futura PT';-inkscape-font-specification:'Futura PT';fill:#808080;stroke:#000000;stroke-opacity:1"
             id="path21926" />
          <path
             d="m 60.865928,22.79841 v 4.458868 h 1.72472 V 26.789331 H 61.360615 V 22.79841 Z"
             style="font-family:'Futura PT';-inkscape-font-specification:'Futura PT';fill:#808080;stroke:#000000;stroke-opacity:1"
             id="path21928" />
          <path
             d="m 65.291367,22.79841 h -2.032228 v 4.458868 h 0.494687 v -2.206036 h 1.484061 v -0.467948 h -1.484061 v -1.316937 h 1.537541 z"
             style="font-family:'Futura PT';-inkscape-font-specification:'Futura PT';fill:#808080;stroke:#000000;stroke-opacity:1"
             id="path21930" />
        </g>
        <g
           aria-label="BACK prodS"
           id="text5643"
           style="font-size:11.4771px;fill:#333333;stroke:#000000;stroke-width:0.0267543;stroke-opacity:1"
           transform="matrix(0.91423811,0,0,0.91423811,9.3206555,5.3664358)">
          <path
             d="m 19.435246,11.681587 v 7.655226 h 1.905199 c 0.527946,0 1.22805,-0.02295 1.836336,-0.504992 0.413175,-0.321359 0.780443,-0.918168 0.780443,-1.652703 0,-0.734534 -0.390222,-1.664179 -1.457592,-1.928153 0.677149,-0.459084 0.757489,-1.124756 0.757489,-1.5035 0,-0.929645 -0.447607,-1.400206 -0.688626,-1.58384 -0.562378,-0.447607 -1.331344,-0.482038 -1.755997,-0.482038 z m 0.849306,0.803397 h 0.665671 c 0.241019,0 1.480546,0.02295 1.480546,1.285435 0,1.182142 -1.055893,1.273958 -1.5035,1.273958 h -0.642717 z m 0,3.316882 h 0.872259 c 0.608286,0 1.009985,0.06886 1.296913,0.229542 0.298404,0.160679 0.654194,0.51647 0.654194,1.124756 0,0.459084 -0.206588,0.837828 -0.504992,1.055893 -0.367267,0.286928 -0.849306,0.321359 -1.342821,0.321359 h -0.975553 z"
             style="font-family:'Futura PT';-inkscape-font-specification:'Futura PT';stroke:#000000;stroke-opacity:1"
             id="path21933" />
          <path
             d="m 30.636882,19.336813 h 0.941122 l -3.431653,-8.022493 -3.52347,8.022493 h 0.941123 l 0.918168,-2.157695 h 3.259496 z m -3.821875,-2.961092 1.30839,-3.064386 1.285435,3.064386 z"
             style="font-family:'Futura PT';-inkscape-font-specification:'Futura PT';stroke:#000000;stroke-opacity:1"
             id="path21935" />
          <path
             d="m 38.26913,12.312828 c -0.918169,-0.700104 -1.801905,-0.757489 -2.260989,-0.757489 -2.29542,0 -4.005508,1.698611 -4.005508,3.982554 0,2.21508 1.687133,3.936645 3.959599,3.936645 0.573855,0 1.457592,-0.137725 2.306898,-0.746011 v -1.055894 c -0.137726,0.137726 -0.447607,0.424653 -0.883737,0.642718 -0.401699,0.206588 -0.906691,0.35579 -1.423161,0.35579 -1.400206,0 -3.08734,-1.044416 -3.08734,-3.121771 0,-1.767474 1.30839,-3.190634 3.075863,-3.190634 0.447607,0 0.918168,0.114771 1.319867,0.298405 0.390221,0.183633 0.757488,0.470561 0.998508,0.71158 z"
             style="font-family:'Futura PT';-inkscape-font-specification:'Futura PT';stroke:#000000;stroke-opacity:1"
             id="path21937" />
          <path
             d="m 40.679319,11.681587 h -0.849305 v 7.655226 h 0.849305 v -3.293928 l 0.218065,-0.218065 3.133249,3.511993 h 1.170664 l -3.695626,-4.085848 3.580855,-3.569378 h -1.14771 l -3.259497,3.282451 z"
             style="font-family:'Futura PT';-inkscape-font-specification:'Futura PT';stroke:#000000;stroke-opacity:1"
             id="path21939" />
          <path
             d="m 51.616982,19.336813 c 1.30839,0 2.329852,-0.550901 2.938138,-1.159187 0.746012,-0.746012 0.998508,-1.641226 0.998508,-2.65121 0,-0.826352 -0.172157,-1.928153 -1.067371,-2.788936 -0.98703,-0.952599 -2.272465,-1.055893 -3.041431,-1.055893 h -2.605302 v 7.655226 z m -0.79192,-5.968092 h 0.482039 c 0.493515,0 1.113278,0.04591 1.58384,0.482038 0.378744,0.35579 0.596809,0.964076 0.596809,1.675657 0,0.849305 -0.332836,1.331343 -0.585332,1.572362 -0.51647,0.504993 -1.193619,0.550901 -1.675657,0.550901 h -0.401699 z"
             style="font-weight:bold;fill:#333333;fill-opacity:1;stroke:#000000;stroke-opacity:1"
             id="path21941" />
          <path
             d="m 64.918937,15.514939 c 0,-1.021462 -0.390222,-2.10031 -1.205096,-2.869276 -0.780443,-0.746011 -1.882244,-1.136232 -3.018477,-1.136232 -1.136233,0 -2.238035,0.390221 -3.018478,1.136232 -0.814874,0.768966 -1.205095,1.847814 -1.205095,2.869276 0,1.009984 0.390221,2.077355 1.205095,2.857798 0.780443,0.746011 1.882245,1.136232 3.018478,1.136232 1.136233,0 2.238034,-0.390221 3.018477,-1.136232 0.814874,-0.780443 1.205096,-1.847814 1.205096,-2.857798 z m -4.223573,-2.077356 c 0.527946,0 1.113278,0.206588 1.537931,0.608287 0.35579,0.344313 0.619764,0.872259 0.619764,1.469069 0,0.585332 -0.263974,1.113278 -0.619764,1.469068 -0.35579,0.355791 -0.860782,0.59681 -1.537931,0.59681 -0.665672,0 -1.182142,-0.252497 -1.549409,-0.608287 -0.286927,-0.27545 -0.608286,-0.746011 -0.608286,-1.42316 0,-0.539424 0.195111,-1.101802 0.608286,-1.5035 0.413176,-0.413176 0.998508,-0.608287 1.549409,-0.608287 z"
             style="font-weight:bold;fill:#333333;fill-opacity:1;stroke:#000000;stroke-opacity:1"
             id="path21943" />
          <path
             d="m 74.284251,15.514939 c 0,-1.021462 -0.390221,-2.10031 -1.205095,-2.869276 -0.780443,-0.746011 -1.882245,-1.136232 -3.018478,-1.136232 -1.136233,0 -2.238034,0.390221 -3.018477,1.136232 -0.814874,0.768966 -1.205096,1.847814 -1.205096,2.869276 0,1.009984 0.390222,2.077355 1.205096,2.857798 0.780443,0.746011 1.882244,1.136232 3.018477,1.136232 1.136233,0 2.238035,-0.390221 3.018478,-1.136232 0.814874,-0.780443 1.205095,-1.847814 1.205095,-2.857798 z m -4.223573,-2.077356 c 0.527947,0 1.113279,0.206588 1.537932,0.608287 0.35579,0.344313 0.619763,0.872259 0.619763,1.469069 0,0.585332 -0.263973,1.113278 -0.619763,1.469068 -0.35579,0.355791 -0.860783,0.59681 -1.537932,0.59681 -0.665672,0 -1.182141,-0.252497 -1.549408,-0.608287 -0.286928,-0.27545 -0.608287,-0.746011 -0.608287,-1.42316 0,-0.539424 0.195111,-1.101802 0.608287,-1.5035 0.413175,-0.413176 0.998507,-0.608287 1.549408,-0.608287 z"
             style="font-weight:bold;fill:#333333;fill-opacity:1;stroke:#000000;stroke-opacity:1"
             id="path21945" />
          <path
             d="m 75.546733,11.681587 v 7.655226 h 1.985538 v -2.938138 l 1.905199,2.938138 h 2.467576 l -2.398714,-3.133248 c 0.35579,-0.06886 0.757489,-0.24102 1.055894,-0.527947 0.378744,-0.367267 0.608286,-0.941122 0.608286,-1.595317 0,-0.608286 -0.218065,-1.273958 -0.654195,-1.721565 -0.562378,-0.585332 -1.296912,-0.677149 -1.870767,-0.677149 z m 1.985538,1.537931 h 0.378744 c 0.43613,0 0.768966,0.114771 0.9526,0.298405 0.172156,0.160679 0.263973,0.413176 0.263973,0.642718 0,0.241019 -0.103294,0.493515 -0.252496,0.642717 -0.241019,0.229542 -0.665672,0.309882 -0.964077,0.309882 h -0.378744 z"
             style="font-weight:bold;fill:#333333;fill-opacity:1;stroke:#000000;stroke-opacity:1"
             id="path21947" />
          <path
             d="m 82.398549,18.648187 c 0.5509,0.378744 1.032939,0.562378 1.159187,0.608286 0.562378,0.206588 1.021462,0.252496 1.5035,0.252496 0.814874,0 1.606794,-0.126248 2.260989,-0.780442 0.5509,-0.550901 0.723057,-1.22805 0.723057,-1.928153 0,-0.527947 -0.103294,-0.9526 -0.493515,-1.365775 -0.401699,-0.43613 -0.906691,-0.608286 -1.388729,-0.757489 l -0.608287,-0.183633 c -0.470561,-0.137726 -0.608286,-0.275451 -0.665672,-0.344313 -0.08034,-0.103294 -0.103294,-0.206588 -0.103294,-0.344313 0,-0.172157 0.08034,-0.298405 0.195111,-0.413176 0.195111,-0.183634 0.459084,-0.229542 0.654195,-0.229542 0.263973,0 0.71158,0.04591 1.308389,0.516469 l 0.79192,-1.549408 c -0.723057,-0.378744 -1.606794,-0.619763 -2.364282,-0.619763 -0.929646,0 -1.572363,0.332835 -1.962585,0.723057 -0.332835,0.332836 -0.700103,0.906691 -0.700103,1.847813 0,0.390221 0.04591,0.929645 0.43613,1.354298 0.309882,0.344313 0.780443,0.516469 1.101802,0.619763 l 0.516469,0.16068 c 0.493516,0.149202 0.79192,0.229542 0.987031,0.401698 0.160679,0.137725 0.218065,0.309882 0.218065,0.459084 0,0.195111 -0.08034,0.367267 -0.195111,0.482038 -0.126248,0.137726 -0.367267,0.263974 -0.768966,0.263974 -0.688626,0 -1.331343,-0.378745 -1.755996,-0.780443 z"
             style="font-weight:bold;fill:#333333;fill-opacity:1;stroke:#000000;stroke-opacity:1"
             id="path21949" />
        </g>
        <g
           aria-label="TM"
           id="text2195"
           style="font-size:3.92841px;fill:#1a1a1a;fill-opacity:1;stroke:#000000;stroke-width:0.00915753;stroke-opacity:1"
           transform="matrix(0.91423811,0,0,0.91423811,9.0359956,1.8461767)">
          <path
             d="m 88.924488,7.1576324 h 2.422647 V 7.4837211 H 90.330506 V 10.021459 H 89.941118 V 7.4837211 h -1.01663 z"
             style="-inkscape-font-specification:sans-serif;fill:#1a1a1a;fill-opacity:1;stroke:#000000;stroke-opacity:1"
             id="path853" />
          <path
             d="m 91.721178,7.1576324 h 0.577369 L 93.02937,9.106492 93.764028,7.1576324 h 0.577369 V 10.021459 H 93.963518 V 7.5067391 l -0.738495,1.964205 h -0.389389 l -0.738495,-1.964205 v 2.5147199 h -0.375961 z"
             style="-inkscape-font-specification:sans-serif;fill:#1a1a1a;fill-opacity:1;stroke:#000000;stroke-opacity:1"
             id="path855" />
        </g>
        <path
           d="m 14.271192,31.889973 c 3.483981,0.122625 6.236287,-1.341556 7.889599,-2.929076 2.02764,-1.94696 2.748678,-4.318069 2.803295,-7.008569 0.04469,-2.201322 -0.354335,-5.145725 -2.692546,-7.487176 -2.577842,-2.591008 -5.996531,-2.935688 -8.044982,-2.97727 L -0.58582778,13.597853 4.2523475,31.537332 Z m -1.786859,-15.941245 1.284103,0.02607 c 1.314676,0.02668 2.963185,0.182499 4.193127,1.369753 0.989699,0.968271 1.537709,2.600481 1.499227,4.496063 -0.04593,2.262466 -0.958638,3.528571 -1.644298,4.156966 -1.403133,1.317322 -3.209475,1.402998 -4.493576,1.376932 l -1.070087,-0.02173 z"
           style="font-weight:bold;font-size:52.3119px;line-height:1.25;font-family:'Futura PT';-inkscape-font-specification:'Futura PT Bold';fill:#524d8d;fill-opacity:1;stroke:#000000;stroke-width:0.0712854;stroke-opacity:1"
           id="path19079"
           sodipodi:nodetypes="ssscsccscscscscc" />
      </g>
    </g>
  </g>
</svg>
