<?xml version="1.0" encoding="UTF-8" standalone="no"?>
<!-- Created with Inkscape (http://www.inkscape.org/) -->

<svg
   width="100mm"
   height="44mm"
   viewBox="0 0 100 44"
   version="1.1"
   id="svg5"
   inkscape:version="1.1.2 (b8e25be833, 2022-02-05)"
   sodipodi:docname="logo-dark.svg"
   xmlns:inkscape="http://www.inkscape.org/namespaces/inkscape"
   xmlns:sodipodi="http://sodipodi.sourceforge.net/DTD/sodipodi-0.dtd"
   xmlns="http://www.w3.org/2000/svg"
   xmlns:svg="http://www.w3.org/2000/svg">
  <sodipodi:namedview
     id="namedview7"
     pagecolor="#ffffff"
     bordercolor="#666666"
     borderopacity="1.0"
     inkscape:pageshadow="2"
     inkscape:pageopacity="0.0"
     inkscape:pagecheckerboard="0"
     inkscape:document-units="mm"
     showgrid="false"
     width="100mm"
     inkscape:zoom="1.4142136"
     inkscape:cx="232.28458"
     inkscape:cy="64.346717"
     inkscape:window-width="1920"
     inkscape:window-height="1027"
     inkscape:window-x="-8"
     inkscape:window-y="-8"
     inkscape:window-maximized="1"
     inkscape:current-layer="layer1" />
  <defs
     id="defs2">
    <rect
       x="397.73491"
       y="448.3749"
       width="621.39486"
       height="247.92494"
       id="rect1097" />
  </defs>
  <g
     inkscape:label="Layer 1"
     inkscape:groupmode="layer"
     id="layer1">
    <g
       aria-label="Fullcart.com"
       id="text1895"
       style="font-size:12.1711px;line-height:1.25;stroke-width:0.304278;fill:#5b2bd6;fill-opacity:1"
       transform="matrix(1.1605253,0,0,1.1605253,-0.0291839,-10.452785)">
      <path
         d="m 27.309997,28.988119 q -0.02971,0 -0.05943,0 -0.02971,0 -0.07726,0 -0.14263,0 -0.24366,-0.0832 -0.09509,-0.0832 -0.130744,-0.261489 -0.01189,-0.05349 -0.01783,-0.202059 -0.0059,-0.14263 -0.0059,-0.38629 0,-0.101029 -0.01783,-0.314974 -0.01783,-0.213946 -0.01783,-0.314975 0,-0.03566 0.01188,-0.124801 0.01783,-0.08914 0.02377,-0.24366 0.01189,-0.14263 0.02377,-0.34469 -0.01189,-0.190173 -0.0416,-0.374403 0.0416,-0.314975 0.09509,-0.641836 0.0059,-0.04754 -0.01189,-0.172344 -0.01189,-0.124802 -0.01189,-0.166402 0,-0.0416 0.01783,-0.118859 0.02377,-0.0832 0.02377,-0.130744 0,-0.05943 -0.02377,-0.09509 -0.01783,-0.03566 -0.05943,-0.03566 -0.02971,0.01189 -0.07131,0.02971 -0.03566,0.01188 -0.07726,0.02971 -0.03566,0.0059 -0.08914,0.02377 -0.05349,0.01783 -0.130744,0.0416 l -0.05349,-0.03566 -0.01783,-0.05943 q 0.05349,-0.09509 0.106972,-0.184231 0.05943,-0.08914 0.106973,-0.178288 0.05349,-0.07726 0.130744,-0.136687 0.07726,-0.05943 0.160459,-0.118858 0.06537,-0.03566 0.106973,-0.190174 0.04754,-0.154515 0.07132,-0.451661 0.02377,-0.338747 0.05349,-0.552692 0.02971,-0.213945 0.05943,-0.291203 0.02377,-0.07131 0.05943,-0.184231 0,-0.03566 -0.01783,-0.112915 -0.01783,-0.07726 -0.01783,-0.106973 0.0416,-0.273374 0.0832,-0.528919 0.07131,-0.368462 0.297146,-0.736923 0.225831,-0.368461 0.606178,-0.772579 0.392232,-0.38629 1.135097,-0.558635 0.0832,0.01783 0.148573,0.03566 l 0.196117,-0.07132 q 0.02971,0 0.07131,0.01783 0.04754,0.01783 0.118858,0.05349 0.136687,-0.0416 0.237717,-0.05943 0.101029,-0.01783 0.160459,-0.01783 0.368461,0 0.546748,0.10103 0.184231,0.09509 0.184231,0.297146 0,0.112915 -0.01783,0.255545 -0.01189,0.14263 -0.04754,0.309032 -0.0416,0.219888 -0.09509,0.332804 -0.05349,0.106972 -0.118858,0.118858 -0.154516,-0.07131 -0.314975,-0.130744 -0.160459,-0.06537 -0.332804,-0.136687 l -0.213945,0.0832 q -0.101029,-0.01188 -0.219888,-0.02971 -0.10103,0 -0.231774,0.02377 -0.124801,0.01783 -0.261488,0.05349 -0.374404,0.08914 -0.433833,0.249602 -0.05943,0.154516 -0.20206,0.421948 -0.04754,0.05943 -0.154516,0.481376 -0.101029,0.421947 -0.273374,1.20047 -0.0059,0.03566 -0.04754,0.124801 -0.03566,0.08914 -0.03566,0.148573 0,0.0832 0.02971,0.130745 0.02971,0.0416 0.07726,0.04754 0.08914,-0.0416 0.237717,-0.08914 0.154516,-0.05349 0.368461,-0.112915 0.190173,-0.02377 0.380347,-0.05943 0.196116,-0.0416 0.404118,-0.101029 0.05943,0 0.148573,0 0.08914,0 0.208002,0 0.20206,-0.03566 0.410062,-0.07132 0.344689,0 0.517034,0.101029 0.172344,0.09509 0.172344,0.273375 0,0.03566 -0.01188,0.18423 -0.0059,0.14263 -0.02377,0.38629 -0.07726,0.136687 -0.160459,0.279317 -0.05349,0 -0.273374,-0.0416 -0.219888,-0.04754 -0.624007,-0.136687 -0.14263,0.03566 -0.309032,0.05943 -0.166401,0.01783 -0.344689,0.01783 -0.112915,0 -0.326861,0.03566 -0.208002,0.03566 -0.320917,0.0416 -0.07726,0.05943 -0.160459,0.08914 -0.07726,0.02377 -0.154516,0.02377 -0.0416,0 -0.184231,-0.01783 -0.07726,0 -0.148573,0.14263 -0.07131,0.136687 -0.124801,0.427891 l -0.05943,0.255545 0.0416,0.184231 -0.112915,0.707207 q 0,0.0416 0.0059,0.10103 0.01189,0.05349 0.01189,0.112915 -0.07726,0.475434 -0.112916,0.933039 -0.02971,0.451661 -0.02971,0.903323 0,0.09509 -0.0416,0.20206 -0.0416,0.106972 -0.130744,0.213945 z"
         style="font-family:Mistral;-inkscape-font-specification:Mistral;fill:#5b2bd6;fill-opacity:1"
         id="path31384" />
      <path
         d="m 31.125351,26.402949 q 0.02377,-0.01783 0.0416,-0.0416 0.01189,-0.02377 0.01189,-0.05943 0.101029,-0.0832 0.22583,-0.225831 0.130745,-0.148573 0.291204,-0.344689 0.130744,-0.178288 0.267431,-0.356575 0.14263,-0.178288 0.303089,-0.356576 0.130744,-0.178287 0.255545,-0.368461 0.130745,-0.196116 0.273375,-0.380347 0.237716,-0.112915 0.368461,-0.160458 0.130744,-0.04754 0.178287,-0.04754 0.08914,0 0.136687,0.05943 0.04754,0.05349 0.04754,0.160459 0,0.03566 -0.01783,0.10103 -0.01783,0.06537 -0.0416,0.14263 -0.0416,0.118858 -0.09509,0.24366 -0.04754,0.208002 -0.112916,0.416004 -0.06537,0.208002 -0.124801,0.410062 -0.05943,0.255545 -0.09509,0.46949 -0.02971,0.213945 -0.02971,0.392233 0,0.332803 0.02971,0.493262 0.03566,0.160459 0.09509,0.14263 0.05943,-0.03566 0.148573,-0.0832 0.08914,-0.05349 0.208002,-0.118858 0.106973,-0.112915 0.237717,-0.279317 0.136687,-0.166402 0.326861,-0.392233 0.106972,-0.166402 0.219888,-0.32686 0.0416,-0.04754 0.09509,-0.112916 0.05943,-0.06537 0.106973,-0.130744 0.112915,-0.28526 0.249603,-0.421947 0.14263,-0.142631 0.314974,-0.142631 0.154516,0 0.24366,0.0416 0.09509,0.03566 0.130744,0.112915 0.01783,0.0416 0.02971,0.14263 0.01189,0.10103 0.01189,0.267432 0,0.06537 0.02377,0.190173 0.02972,0.124802 0.02972,0.184231 0,0.219888 0.07726,0.332803 0.07726,0.106973 0.237717,0.106973 0.04754,0 0.112915,-0.01783 0.06537,-0.01783 0.130744,-0.0416 l 0.237717,0.546748 q -0.356575,0.213945 -0.588349,0.326861 -0.225831,0.106972 -0.338746,0.106972 -0.297146,0 -0.48732,-0.154515 -0.190173,-0.154516 -0.279317,-0.457605 -0.01189,-0.07131 -0.05349,-0.14263 -0.03566,-0.07131 -0.09509,-0.14263 -0.05349,0.05943 -0.124801,0.14263 -0.06537,0.0832 -0.14263,0.166401 -0.160459,0.196117 -0.320918,0.38629 -0.160459,0.184231 -0.326861,0.368461 -0.208002,0.24366 -0.421947,0.356575 -0.208002,0.106973 -0.392233,0.106973 -0.273374,0 -0.439776,-0.160459 -0.166401,-0.166402 -0.213945,-0.487319 -0.05349,-0.309032 -0.07131,-0.481377 -0.01783,-0.172345 -0.0059,-0.208002 -0.01188,-0.172345 -0.03566,-0.261488 -0.01783,-0.08914 -0.05943,-0.08914 l -0.03566,0.01783 -0.338746,0.350633 q -0.01783,0.0416 -0.05943,0.106972 -0.0416,0.05943 -0.112915,0.148573 -0.02377,-0.08914 -0.0832,-0.219888 -0.05943,-0.130744 -0.154516,-0.32686 z"
         style="font-family:Mistral;-inkscape-font-specification:Mistral;fill:#5b2bd6;fill-opacity:1"
         id="path31386" />
      <path
         d="m 36.069861,26.402949 q 0.05349,-0.05943 0.106972,-0.14263 0.05349,-0.08914 0.14263,-0.190174 l 0.392233,-0.344689 q 0.02377,-0.01783 0.02377,-0.04754 0.0059,-0.02971 0.0059,-0.0832 -0.0059,-0.07726 -0.01783,-0.124802 0,-0.136687 0.05349,-0.457605 0.05349,-0.320917 0.09509,-0.386289 l -0.03562,-0.11292 q 0.07726,-0.398175 0.213945,-0.867666 0.142631,-0.475434 0.320918,-1.028125 0.05943,-0.09509 0.124801,-0.237717 0.06537,-0.148573 0.148573,-0.332804 0.10103,-0.309031 0.267432,-0.647778 0.166402,-0.338746 0.374404,-0.695321 0.279317,-0.469491 0.493262,-0.707208 0.219888,-0.237717 0.392233,-0.237717 0.344689,0 0.469491,0.136688 0.130744,0.130744 0.130744,0.499205 0,0.09509 -0.03566,0.297146 -0.02971,0.196116 -0.02971,0.297146 0,0.101029 -0.06537,0.28526 -0.06537,0.18423 -0.06537,0.338746 -0.0059,0.04754 -0.02971,0.09509 l 0.0059,0.0832 q -0.02377,0.0832 -0.07131,0.202059 -0.04754,0.118859 -0.124802,0.28526 -0.0416,0.148573 -0.106972,0.34469 -0.06537,0.196116 -0.154516,0.42789 -0.03566,0.05943 -0.09509,0.148573 -0.05349,0.0832 -0.118858,0.190173 -0.01783,0.07726 -0.05943,0.178288 -0.0416,0.10103 -0.112916,0.237717 -0.03566,0.07131 -0.09509,0.154516 -0.05943,0.0832 -0.14263,0.213945 -0.03566,0.05943 -0.07726,0.148573 -0.0416,0.08914 -0.09509,0.202059 -0.06537,0.10103 -0.172345,0.249603 -0.106973,0.148573 -0.24366,0.350632 -0.18423,0.326861 -0.380347,0.624006 0,0.576464 0.225831,0.87361 0.231774,0.291203 0.689379,0.291203 0.02972,0 0.178288,-0.0416 0.148573,-0.0416 0.410061,-0.130744 0.07726,-0.04754 0.184231,-0.130744 0.106972,-0.08914 0.243659,-0.208002 l 0.231774,0.546748 q -0.154516,0.136687 -0.309032,0.279318 -0.154516,0.14263 -0.314974,0.279317 -0.184231,0.154516 -0.374404,0.237717 -0.190174,0.07726 -0.374404,0.07726 -0.09509,0 -0.291203,-0.01783 -0.196117,-0.02377 -0.297146,-0.02377 -0.332804,0 -0.552692,-0.267431 -0.213945,-0.267432 -0.303089,-0.802295 -0.01189,-0.05349 -0.03566,-0.09509 -0.01783,-0.0416 -0.07131,-0.09509 -0.07726,0.07726 -0.184231,0.184231 -0.101029,0.106972 -0.249602,0.243659 z m 2.834772,-4.665192 -0.0416,-0.02377 q -0.332803,0.320918 -0.505148,0.606178 -0.166402,0.28526 -0.166402,0.552691 0,0.0416 -0.0416,0.14263 -0.03566,0.09509 -0.112916,0.249603 -0.09509,0.184231 -0.196116,0.404119 -0.112916,0.332803 -0.172345,0.540805 -0.05943,0.208002 -0.05943,0.297146 l 0.03566,0.04754 q 0.05349,-0.0059 0.130745,-0.106973 0.07726,-0.10103 0.178287,-0.297146 0.04754,-0.106972 0.136687,-0.249603 0.08914,-0.14263 0.20206,-0.338746 0.09509,-0.130744 0.303089,-0.67155 0.208002,-0.540806 0.225831,-0.689379 0.0059,-0.118858 0.02971,-0.231773 0.02972,-0.118859 0.05349,-0.231774 z"
         style="font-family:Mistral;-inkscape-font-specification:Mistral;fill:#5b2bd6;fill-opacity:1"
         id="path31388" />
      <path
         d="m 39.421667,26.402949 q 0.05349,-0.05943 0.106973,-0.14263 0.05349,-0.08914 0.14263,-0.190174 l 0.392233,-0.344689 q 0.02377,-0.01783 0.02377,-0.04754 0.0059,-0.02971 0.0059,-0.0832 -0.0059,-0.07726 -0.01783,-0.124802 0,-0.136687 0.05349,-0.457605 0.05349,-0.320917 0.09509,-0.386289 l -0.03562,-0.11292 q 0.07726,-0.398175 0.213945,-0.867666 0.14263,-0.475434 0.320918,-1.028125 0.05943,-0.09509 0.124801,-0.237717 0.06537,-0.148573 0.148573,-0.332804 0.10103,-0.309031 0.267432,-0.647778 0.166401,-0.338746 0.374403,-0.695321 0.279318,-0.469491 0.493263,-0.707208 0.219888,-0.237717 0.392232,-0.237717 0.34469,0 0.469491,0.136688 0.130744,0.130744 0.130744,0.499205 0,0.09509 -0.03566,0.297146 -0.02971,0.196116 -0.02971,0.297146 0,0.101029 -0.06537,0.28526 -0.06537,0.18423 -0.06537,0.338746 -0.0059,0.04754 -0.02972,0.09509 l 0.0059,0.0832 q -0.02377,0.0832 -0.07131,0.202059 -0.04754,0.118859 -0.124801,0.28526 -0.0416,0.148573 -0.106973,0.34469 -0.06537,0.196116 -0.154515,0.42789 -0.03566,0.05943 -0.09509,0.148573 -0.05349,0.0832 -0.118859,0.190173 -0.01783,0.07726 -0.05943,0.178288 -0.0416,0.10103 -0.112915,0.237717 -0.03566,0.07131 -0.09509,0.154516 -0.05943,0.0832 -0.14263,0.213945 -0.03566,0.05943 -0.07726,0.148573 -0.0416,0.08914 -0.09509,0.202059 -0.06537,0.10103 -0.172344,0.249603 -0.106973,0.148573 -0.24366,0.350632 -0.184231,0.326861 -0.380347,0.624006 0,0.576464 0.225831,0.87361 0.231774,0.291203 0.689379,0.291203 0.02971,0 0.178287,-0.0416 0.148573,-0.0416 0.410062,-0.130744 0.07726,-0.04754 0.18423,-0.130744 0.106973,-0.08914 0.24366,-0.208002 l 0.231774,0.546748 q -0.154516,0.136687 -0.309032,0.279318 -0.154516,0.14263 -0.314975,0.279317 -0.18423,0.154516 -0.374404,0.237717 -0.190173,0.07726 -0.374404,0.07726 -0.09509,0 -0.291203,-0.01783 -0.196116,-0.02377 -0.297146,-0.02377 -0.332803,0 -0.552691,-0.267431 -0.213945,-0.267432 -0.303089,-0.802295 -0.01189,-0.05349 -0.03566,-0.09509 -0.01783,-0.0416 -0.07131,-0.09509 -0.07726,0.07726 -0.18423,0.184231 -0.10103,0.106972 -0.249603,0.243659 z m 2.834773,-4.665192 -0.0416,-0.02377 q -0.332804,0.320918 -0.505149,0.606178 -0.166401,0.28526 -0.166401,0.552691 0,0.0416 -0.0416,0.14263 -0.03566,0.09509 -0.112915,0.249603 -0.09509,0.184231 -0.196117,0.404119 -0.112915,0.332803 -0.172344,0.540805 -0.05943,0.208002 -0.05943,0.297146 l 0.03566,0.04754 q 0.05349,-0.0059 0.130744,-0.106973 0.07726,-0.10103 0.178288,-0.297146 0.04754,-0.106972 0.136687,-0.249603 0.08914,-0.14263 0.202059,-0.338746 0.09509,-0.130744 0.303089,-0.67155 0.208002,-0.540806 0.225831,-0.689379 0.0059,-0.118858 0.02971,-0.231773 0.02971,-0.118859 0.05349,-0.231774 z"
         style="font-family:Mistral;-inkscape-font-specification:Mistral;fill:#5b2bd6;fill-opacity:1"
         id="path31390" />
      <path
         d="m 42.773474,26.402949 0.05349,-0.04754 q 0.0059,-0.06537 0.0832,-0.154516 0.07726,-0.08914 0.219888,-0.208002 0.08914,-0.06537 0.184231,-0.124801 0.101029,-0.05943 0.190173,-0.130744 0.374404,-0.320918 0.725036,-0.618064 0.20206,-0.178288 0.404119,-0.303089 0.202059,-0.130744 0.380347,-0.208002 0.124801,-0.160459 0.463548,-0.326861 0.344689,-0.166401 0.558634,-0.166401 0.0832,0 0.130744,0.04754 0.05349,0.04754 0.06537,0.118858 v 0.326861 q 0,0.172345 -0.101029,0.309032 -0.09509,0.130744 -0.291203,0.243659 -0.130745,0.05943 -0.261489,0.130745 -0.130744,0.07131 -0.261488,0.130744 -0.04754,0.05943 -0.255546,0.225831 -0.202059,0.160459 -0.552691,0.433833 -0.160459,0.124801 -0.267432,0.225831 -0.106972,0.09509 -0.148573,0.154516 -0.05943,0.112915 -0.09509,0.249602 -0.02971,0.136688 -0.02971,0.314975 0,0.136687 0.0416,0.237717 0.0416,0.09509 0.124802,0.154516 0.05943,0.0416 0.160458,0.0832 0.106973,0.0416 0.261489,0.0832 0.08914,-0.03566 0.231774,-0.06537 0.148573,-0.03566 0.32686,-0.08914 0.20206,-0.118859 0.410062,-0.249603 0.213945,-0.130744 0.421947,-0.267431 0.02972,-0.01783 0.07131,-0.03566 0.04754,-0.02377 0.09509,-0.06537 0.05943,-0.07726 0.160459,-0.178287 0.106972,-0.10103 0.255545,-0.231774 0.237717,0.517034 0.237717,0.546748 -0.219888,0.178288 -0.445719,0.368461 -0.225831,0.184231 -0.517034,0.303089 -0.09509,0.07726 -0.160459,0.14263 -0.297146,0.297146 -0.695321,0.445719 -0.392233,0.154516 -0.897381,0.154516 -0.112916,0 -0.20206,-0.01783 -0.08914,-0.01783 -0.148573,-0.04754 -0.178287,-0.118858 -0.303088,-0.208002 -0.130745,-0.09509 -0.219888,-0.178288 -0.08914,-0.08914 -0.130745,-0.166401 -0.05349,-0.0832 -0.07131,-0.20206 -0.02377,-0.118858 -0.02377,-0.291203 0,-0.04754 0.02971,-0.154516 0.02971,-0.106972 0.02971,-0.148573 -0.0416,-0.130744 -0.10103,-0.267431 -0.05943,-0.136687 -0.136687,-0.279317 z"
         style="font-family:Mistral;-inkscape-font-specification:Mistral;fill:#5b2bd6;fill-opacity:1"
         id="path31392" />
      <path
         d="m 46.713628,26.14146 0.540806,-0.356575 q 0.02971,-0.02971 0.07131,-0.07726 0.0416,-0.05349 0.09509,-0.148573 0.0416,-0.07726 0.106972,-0.130744 0.07131,-0.05349 0.160459,-0.09509 0.04754,-0.05943 0.136687,-0.148573 0.08914,-0.08914 0.225831,-0.208002 0.06537,-0.03566 0.166402,-0.10103 0.10103,-0.07131 0.219888,-0.18423 0.540806,-0.511091 0.944924,-0.766637 0.410062,-0.255545 0.689379,-0.255545 0.154516,0 0.225831,0.06537 0.07726,0.06537 0.07726,0.18423 0,0.124802 -0.04754,0.219888 -0.0416,0.09509 -0.136688,0.160459 -0.148573,0.106973 -0.320917,0.237717 -0.09509,0.124801 -0.231774,0.267431 -0.136687,0.136687 -0.320918,0.273375 -0.05943,0.07726 -0.101029,0.136687 -0.02972,0.02971 -0.112916,0.106972 -0.0832,0.07726 -0.219888,0.178288 -0.05943,0.130744 -0.261488,0.338746 -0.196117,0.208002 -0.52892,0.499206 -0.0416,0.0416 -0.148573,0.190173 -0.106973,0.148573 -0.279317,0.392233 l 0.0416,0.05349 q 0.130744,-0.0416 0.273374,-0.14263 0.14263,-0.10103 0.314975,-0.267432 0.202059,-0.18423 0.326861,-0.297145 0.130744,-0.118859 0.18423,-0.154516 0.0416,-0.02377 0.0832,-0.04754 0.0416,-0.02377 0.09509,-0.05943 0.273374,-0.326861 0.511091,-0.481376 0.237717,-0.160459 0.439776,-0.160459 0.124801,0 0.190173,0.101029 0.06537,0.09509 0.07726,0.291203 -0.01189,0.297146 -0.01189,0.570521 -0.0059,0.190173 0.10103,0.344689 0.112916,0.148573 0.291203,0.148573 0.05349,0 0.10103,-0.02971 0.05349,-0.02971 0.106972,-0.07726 0.0416,-0.05349 0.07726,-0.101029 0.0416,-0.04754 0.0832,-0.09509 0.02377,-0.01189 0.06537,-0.0416 0.04754,-0.02972 0.08914,-0.07132 0.0832,0.178287 0.136687,0.314974 0.05943,0.130745 0.08914,0.231774 -0.136687,0.124802 -0.273374,0.261489 -0.130745,0.130744 -0.279318,0.249602 -0.178287,0.136688 -0.344689,0.208003 -0.166402,0.06537 -0.332803,0.06537 -0.38629,0 -0.594292,-0.219888 -0.208003,-0.219888 -0.24366,-0.665607 0,-0.05349 -0.01783,-0.106973 -0.01189,-0.05943 -0.05943,-0.118858 -0.02971,0.02971 -0.06537,0.06537 -0.03566,0.02971 -0.0832,0.0832 -0.07726,0.05943 -0.196116,0.148573 -0.112916,0.08914 -0.267432,0.213945 -0.208002,0.213945 -0.350632,0.350632 -0.14263,0.136687 -0.202059,0.196116 -0.118859,0.10103 -0.279318,0.20206 -0.154515,0.101029 -0.350632,0.208002 -0.124801,0.06537 -0.213945,0.10103 -0.08914,0.0416 -0.130744,0.0416 -0.28526,0 -0.421947,-0.136687 -0.136688,-0.14263 -0.136688,-0.433833 0,-0.160459 0.07131,-0.303089 0.06537,-0.148573 0.20206,-0.28526 0.01189,-0.07726 0.01189,-0.124802 0,-0.02971 -0.01783,-0.05943 -0.01189,-0.03566 -0.03566,-0.07726 -0.03566,-0.0832 -0.07726,-0.18423 -0.04754,-0.106973 -0.101029,-0.225831 0.02377,-0.02377 0.07132,-0.08914 0.0416,-0.07131 0.101029,-0.172345 z"
         style="font-family:Mistral;-inkscape-font-specification:Mistral;fill:#5b2bd6;fill-opacity:1"
         id="path31394" />
      <path
         d="m 51.093561,26.402949 q 0.09509,-0.124802 0.190174,-0.261489 0.433833,-0.356575 0.707207,-0.683436 0.279318,-0.332803 0.404119,-0.618063 l -0.05943,-0.28526 q 0.07726,-0.148573 0.380347,-0.350633 0.309031,-0.202059 0.499205,-0.202059 0.202059,0 0.338746,0.118858 0.14263,0.118859 0.273375,0.249603 0.06537,0.0416 0.09509,0.06537 0.237717,0.178288 0.356575,0.493263 0.118859,0.314974 0.118859,0.766636 0,0.237717 -0.184231,0.683436 -0.18423,0.439776 -0.18423,0.665607 0,0.02971 0.01783,0.04754 0.02377,0.01783 0.05943,0.01783 0.07726,0 0.18423,-0.06537 0.106973,-0.07131 0.231774,-0.190173 0.314975,-0.309032 0.380347,-0.338747 0.06537,-0.03566 0.160459,-0.112915 0.04754,0.118858 0.112915,0.255545 0.06537,0.136687 0.124802,0.291203 -0.05349,0.04754 -0.124802,0.112916 -0.06537,0.06537 -0.160459,0.148573 -0.202059,0.148573 -0.528919,0.362518 -0.320918,0.208002 -0.77258,0.481376 -0.118858,0.07726 -0.273374,0.124802 -0.249603,0 -0.374404,-0.07131 -0.124802,-0.07726 -0.124802,-0.24366 0,-0.06537 0.02377,-0.148573 0.02972,-0.08914 0.07726,-0.190174 0.03566,-0.07726 0.07726,-0.154515 0.0416,-0.0832 0.07131,-0.166402 0.130744,-0.374404 0.196116,-0.695322 0.07132,-0.320917 0.07132,-0.576463 0,-0.314975 -0.10103,-0.481376 -0.09509,-0.166402 -0.291203,-0.190174 -0.130744,0.07132 -0.28526,0.202059 -0.154516,0.130745 -0.314975,0.326861 -0.172345,0.213945 -0.309032,0.350632 -0.136687,0.136687 -0.225831,0.184231 -0.05349,0.08914 -0.172345,0.202059 -0.118858,0.112915 -0.314974,0.24366 -0.01189,0.02377 -0.03566,0.07132 -0.02377,0.04754 -0.07726,0.106972 -0.04754,-0.136687 -0.106972,-0.267431 -0.05943,-0.136687 -0.130745,-0.279317 z"
         style="font-family:Mistral;-inkscape-font-specification:Mistral;fill:#5b2bd6;fill-opacity:1"
         id="path31396" />
      <path
         d="m 55.057488,26.402949 0.02377,-0.04754 q 0.03566,-0.04754 0.09509,-0.118858 0.05349,-0.07132 0.130744,-0.166402 0.421948,-0.392233 0.820123,-0.933038 0.404119,-0.546749 0.796352,-1.253956 0.04754,-0.06537 0.106972,-0.172345 0.05943,-0.106973 0.130744,-0.267431 0,-0.03566 -0.01783,-0.05349 -0.01783,-0.01783 -0.05943,-0.01783 -0.03566,0 -0.118858,0.02377 -0.07726,0.01783 -0.118858,0.01783 h -0.742865 q -0.04754,0 -0.160459,-0.0059 -0.106973,-0.0059 -0.154516,-0.0059 -0.05943,-0.02971 -0.112916,-0.04754 -0.04754,-0.02377 -0.09509,-0.04754 -0.07131,-0.02377 -0.112916,-0.05943 -0.03566,-0.0416 -0.03566,-0.09509 0,-0.380347 0.07726,-0.582407 0.0832,-0.202059 0.249602,-0.202059 0.166402,0 0.309032,0.01783 0.148573,0.01189 0.261489,0.03566 0.08914,-0.01783 0.166401,-0.03566 0.160459,0 0.273375,0.01189 0.112915,0.01189 0.172344,0.02971 0.07726,-0.01783 0.148573,-0.02971 0.07726,-0.01783 0.166402,-0.03566 l 0.196116,0.05943 q 0.208003,-0.02377 0.439776,-0.582406 0.237717,-0.558634 0.505149,-0.558634 0.14263,0 0.219888,0.08914 0.07726,0.08914 0.07726,0.261488 0,0.136687 -0.0832,0.362518 -0.07726,0.219888 -0.08914,0.332804 0.01189,0.02377 0.02971,0.05349 0.02377,0.02377 0.06537,0.05943 0.03566,0.02377 0.04754,0.0832 0.01783,0.05349 0.01783,0.136687 0,0.356575 -0.03566,0.552692 -0.02971,0.190173 -0.101029,0.196116 l -0.404119,0.0832 q -0.01189,0.05943 -0.02971,0.148573 -0.01783,0.0832 -0.04754,0.196116 -0.101029,0.297146 -0.225831,0.754751 -0.124801,0.457605 -0.279317,1.081612 -0.09509,0.499205 -0.148573,0.808237 -0.04754,0.309031 -0.04754,0.416004 0,0.09509 0.02971,0.14263 0.02972,0.04754 0.08914,0.04754 0.03566,0 0.255546,-0.172344 0.225831,-0.172345 0.624006,-0.511091 l 0.231774,0.546748 q -0.05943,0.06537 -0.166402,0.154516 -0.106972,0.08914 -0.255545,0.190174 -0.05943,0.06537 -0.148573,0.148573 -0.08914,0.07726 -0.196117,0.18423 -0.106972,0.118859 -0.213945,0.237717 -0.101029,0.118858 -0.208002,0.231774 -0.14263,0.154516 -0.279317,0.219888 -0.136687,0.07131 -0.255546,0.07131 -0.261488,0 -0.392232,-0.154516 -0.124802,-0.154516 -0.124802,-0.469491 0,-0.344689 0.02377,-0.594292 0.02377,-0.255545 0.07726,-0.410061 0.02377,-0.04754 0.03566,-0.0832 0,-0.05943 0.01783,-0.160459 0.01783,-0.101029 0.0416,-0.237717 0.03566,-0.231774 0.07726,-0.463547 0.06537,-0.14263 0.136687,-0.303089 0,-0.02971 -0.04754,-0.05349 l -0.05943,0.03566 q -0.08914,0.14263 -0.231774,0.303089 -0.14263,0.154516 -0.338746,0.32686 -0.303089,0.291204 -0.618064,0.588349 -0.01783,0.02971 -0.06537,0.08914 -0.04754,0.05943 -0.106972,0.148573 -0.02972,-0.07132 -0.07132,-0.178287 -0.04754,-0.112916 -0.09509,-0.255546 -0.01189,-0.03566 -0.02971,-0.06537 -0.01783,-0.02971 -0.0416,-0.04754 z"
         style="font-family:Mistral;-inkscape-font-specification:Mistral;fill:#5b2bd6;fill-opacity:1"
         id="path31398" />
      <path
         d="m 60.293202,27.781706 q 0,0.0832 -0.04754,0.160459 -0.0416,0.07726 -0.130745,0.148573 -0.02971,0.08914 -0.07726,0.130744 -0.0416,0.04754 -0.112915,0.04754 -0.24366,0 -0.416005,-0.172344 -0.172344,-0.172345 -0.273374,-0.511091 l 0.0416,-0.0416 -0.05943,-0.154516 q 0.02971,-0.09509 0.05349,-0.18423 0.02377,-0.08914 0.04754,-0.178288 0.02972,-0.112915 0.09509,-0.160459 0.07132,-0.05349 0.160459,-0.05349 0.154516,0 0.28526,0.0832 0.136687,0.0832 0.243659,0.255546 0.10103,0.154515 0.142631,0.314974 0.04754,0.154516 0.04754,0.314975 z"
         style="font-family:Mistral;-inkscape-font-specification:Mistral;fill:#5b2bd6;fill-opacity:1"
         id="path31400" />
      <path
         d="m 65.395224,27.264436 q 0,0.134359 -0.01033,0.227376 -0.0052,0.08785 -0.02067,0.149861 -0.01033,0.06201 -0.03101,0.103353 -0.0155,0.03617 -0.07751,0.09819 -0.06201,0.05684 -0.211873,0.144693 -0.149861,0.08268 -0.341063,0.149861 -0.191202,0.06718 -0.418578,0.108521 -0.222208,0.04134 -0.459919,0.04134 -0.532265,0 -0.945675,-0.165365 -0.408243,-0.165364 -0.687295,-0.485756 -0.279052,-0.325561 -0.423745,-0.790647 -0.139526,-0.465087 -0.139526,-1.064531 0,-0.692462 0.170532,-1.193722 0.175699,-0.506428 0.485756,-0.837156 0.310058,-0.330728 0.733803,-0.490924 0.423746,-0.160197 0.930173,-0.160197 0.206705,0 0.403075,0.03617 0.201538,0.03617 0.372069,0.09819 0.1757,0.06201 0.310058,0.139525 0.139526,0.07752 0.19637,0.134359 0.05684,0.05684 0.07751,0.09819 0.02584,0.03617 0.03617,0.09819 0.0155,0.06201 0.02067,0.155028 0.01034,0.08785 0.01034,0.217041 0,0.299722 -0.05168,0.423745 -0.05168,0.118856 -0.134358,0.118856 -0.08785,0 -0.186035,-0.07235 -0.09819,-0.07235 -0.232543,-0.160197 -0.134358,-0.08785 -0.320393,-0.160196 -0.186034,-0.07235 -0.444416,-0.07235 -0.506427,0 -0.775144,0.39274 -0.268716,0.387572 -0.268716,1.142045 0,0.372069 0.06718,0.656289 0.06718,0.284219 0.19637,0.475422 0.134358,0.191202 0.330728,0.289387 0.201537,0.09302 0.465086,0.09302 0.268717,0 0.459919,-0.07751 0.19637,-0.08268 0.341063,-0.180867 0.144694,-0.09819 0.242879,-0.1757 0.09819,-0.08268 0.165364,-0.08268 0.04651,0 0.07751,0.02584 0.03101,0.02584 0.04651,0.09819 0.02067,0.06718 0.03101,0.1757 0.01033,0.10852 0.01033,0.279051 z"
         style="font-weight:bold;font-size:10.5833px;font-family:Calibri;-inkscape-font-specification:'Calibri Bold';fill:#5b2bd6;fill-opacity:1"
         id="path31402" />
      <path
         d="m 70.945255,25.646969 q 0,0.58911 -0.155029,1.074867 -0.155029,0.485757 -0.470254,0.837155 -0.315225,0.351399 -0.790647,0.542601 -0.475422,0.191202 -1.11104,0.191202 -0.614947,0 -1.069698,-0.170532 -0.454751,-0.170531 -0.754474,-0.496092 -0.299722,-0.32556 -0.444416,-0.800982 -0.144693,-0.475422 -0.144693,-1.085201 0,-0.58911 0.155029,-1.074867 0.160196,-0.490924 0.475421,-0.837155 0.315225,-0.351399 0.785479,-0.542601 0.475422,-0.191202 1.11104,-0.191202 0.620115,0 1.074867,0.170531 0.454751,0.165364 0.749305,0.490925 0.299723,0.32556 0.444416,0.800982 0.144694,0.475422 0.144694,1.090369 z m -1.338415,0.05168 q 0,-0.341064 -0.05684,-0.625283 -0.05168,-0.289387 -0.180867,-0.50126 -0.129191,-0.211873 -0.346231,-0.330728 -0.211873,-0.118856 -0.537433,-0.118856 -0.289388,0 -0.506428,0.108521 -0.21704,0.103352 -0.356566,0.310057 -0.139526,0.201538 -0.211873,0.490925 -0.06718,0.284219 -0.06718,0.651121 0,0.341063 0.05684,0.63045 0.05684,0.28422 0.180867,0.496092 0.129191,0.211873 0.346231,0.330728 0.21704,0.113688 0.537433,0.113688 0.294555,0 0.511595,-0.103352 0.21704,-0.108521 0.356566,-0.310058 0.139526,-0.201537 0.206705,-0.485757 0.06718,-0.289387 0.06718,-0.656288 z"
         style="font-weight:bold;font-size:10.5833px;font-family:Calibri;-inkscape-font-specification:'Calibri Bold';fill:#5b2bd6;fill-opacity:1"
         id="path31404" />
      <path
         d="m 79.306474,27.998239 q 0,0.05168 -0.03101,0.09302 -0.03101,0.03617 -0.103352,0.06201 -0.07235,0.02584 -0.19637,0.03617 -0.124023,0.0155 -0.315225,0.0155 -0.19637,0 -0.320393,-0.0155 -0.124023,-0.01034 -0.201538,-0.03617 -0.07235,-0.02584 -0.103352,-0.06201 -0.02584,-0.04134 -0.02584,-0.09302 v -2.733674 q 0,-0.232543 -0.04651,-0.423746 -0.04134,-0.191202 -0.134358,-0.32556 -0.08785,-0.139526 -0.227376,-0.211873 -0.134358,-0.07751 -0.32556,-0.07751 -0.232543,0 -0.470254,0.180867 -0.237711,0.180867 -0.516763,0.527098 v 3.064402 q 0,0.05168 -0.03101,0.09302 -0.03101,0.03617 -0.10852,0.06201 -0.07235,0.02584 -0.19637,0.03617 -0.124023,0.0155 -0.310057,0.0155 -0.191203,0 -0.315226,-0.0155 -0.124023,-0.01034 -0.201537,-0.03617 -0.07235,-0.02584 -0.103353,-0.06201 -0.031,-0.04134 -0.031,-0.09302 v -2.733674 q 0,-0.232543 -0.04651,-0.423746 -0.04134,-0.191202 -0.129191,-0.32556 -0.08785,-0.139526 -0.227375,-0.211873 -0.139526,-0.07751 -0.325561,-0.07751 -0.237711,0 -0.475421,0.180867 -0.237711,0.180867 -0.511595,0.527098 v 3.064402 q 0,0.05168 -0.03101,0.09302 -0.03101,0.03617 -0.10852,0.06201 -0.07235,0.02584 -0.19637,0.03617 -0.124023,0.0155 -0.315225,0.0155 -0.191203,0 -0.315226,-0.0155 -0.124023,-0.01034 -0.201537,-0.03617 -0.07235,-0.02584 -0.103353,-0.06201 -0.031,-0.04134 -0.031,-0.09302 v -4.609523 q 0,-0.05168 0.02584,-0.08785 0.02584,-0.04134 0.09302,-0.06718 0.06718,-0.02584 0.170532,-0.03617 0.10852,-0.0155 0.268716,-0.0155 0.165364,0 0.273885,0.0155 0.10852,0.01033 0.165364,0.03617 0.06201,0.02584 0.08785,0.06718 0.02584,0.03617 0.02584,0.08785 v 0.532266 q 0.382405,-0.41341 0.759642,-0.620115 0.382404,-0.206705 0.795814,-0.206705 0.28422,0 0.511595,0.06201 0.227376,0.05684 0.403075,0.170532 0.180867,0.10852 0.310058,0.263549 0.12919,0.155029 0.21704,0.346231 0.206705,-0.222208 0.403075,-0.382405 0.201537,-0.160196 0.392739,-0.258381 0.19637,-0.103352 0.387572,-0.149861 0.19637,-0.05168 0.397908,-0.05168 0.459919,0 0.775144,0.155028 0.315225,0.155029 0.506427,0.423746 0.19637,0.263549 0.279052,0.620115 0.08268,0.356566 0.08268,0.754474 z"
         style="font-weight:bold;font-size:10.5833px;font-family:Calibri;-inkscape-font-specification:'Calibri Bold';fill:#5b2bd6;fill-opacity:1"
         id="path31406" />
    </g>
    <g
       id="g890"
       style="font-size:17.6678px;line-height:1.25;fill:#5b2bd6;fill-opacity:1;stroke-width:0.441695"
       transform="matrix(0.26215185,0,0,-0.26215185,-84.430539,58.676797)">
      <g
         id="g896"
         style="fill:#5b2bd6;fill-opacity:1">
        <g
           id="g898"
           style="fill:#5b2bd6;fill-opacity:1">
          <path
             d="m 362.702,180.363 c -3.475,0 -6.293,-2.818 -6.293,-6.294 v 0 -8.792 h 8.793 c 3.475,0 6.292,2.818 6.292,6.294 v 0 8.792 z"
             style="fill:#5b2bd6;fill-opacity:1;stroke:none"
             id="path908" />
        </g>
      </g>
    </g>
    <g
       id="g910"
       transform="matrix(0.26215185,0,0,-0.26215185,-84.430539,58.676797)"
       style="font-size:17.6678px;line-height:1.25;fill:#5b2bd6;fill-opacity:1;stroke-width:0.441695">
      <g
         id="g912"
         style="fill:#5b2bd6;fill-opacity:1">
        <g
           id="g918"
           style="fill:#5b2bd6;fill-opacity:1">
          <g
             id="g920"
             style="fill:#5b2bd6;fill-opacity:1">
            <path
               d="m 413.895,160.973 c 0,0 -1.072,-4.703 -3.835,-11.894 v 0 h 2.279 v -8.036 c 0,-3.176 -2.575,-5.751 -5.752,-5.751 v 0 h -2.751 c -0.597,-1.15 -1.226,-2.316 -1.89,-3.501 v 0 c 0.72,0.324 1.516,0.508 2.356,0.508 v 0 h 8.037 v -8.035 c 0,-3.177 -2.575,-5.752 -5.752,-5.752 v 0 h -8.036 v 7.556 c -4.047,-6.438 -9.044,-13.123 -15.183,-19.45 v 0 h 22.242 c 7.939,0 14.631,5.917 15.602,13.795 v 0 l 3.475,35.022 c 0.295,2.967 -2.034,5.538 -5.014,5.538 v 0 z"
               style="fill:#5b2bd6;fill-opacity:1;stroke:none"
               id="path930" />
          </g>
        </g>
      </g>
    </g>
    <g
       id="g932"
       transform="matrix(0.26215185,0,0,-0.26215185,-84.430539,58.676797)"
       style="font-size:17.6678px;line-height:1.25;fill:#5b2bd6;fill-opacity:1;stroke-width:0.441695">
      <g
         id="g934"
         style="fill:#5b2bd6;fill-opacity:1">
        <g
           id="g940"
           style="fill:#5b2bd6;fill-opacity:1">
          <g
             id="g942"
             style="fill:#5b2bd6;fill-opacity:1">
            <path
               d="m 377.154,181.162 c -1.737,0 -3.146,-1.408 -3.146,-3.146 v 0 -4.396 h 4.396 c 1.739,0 3.147,1.408 3.147,3.146 v 0 4.396 z"
               style="fill:#5b2bd6;fill-opacity:1;stroke:none"
               id="path952" />
          </g>
        </g>
      </g>
    </g>
    <g
       id="g954"
       transform="matrix(0.26215185,0,0,-0.26215185,-84.430539,58.676797)"
       style="font-size:17.6678px;line-height:1.25;fill:#5b2bd6;fill-opacity:1;stroke-width:0.441695">
      <g
         id="g956"
         style="fill:#5b2bd6;fill-opacity:1">
        <g
           id="g962"
           style="fill:#5b2bd6;fill-opacity:1">
          <g
             id="g964"
             style="fill:#5b2bd6;fill-opacity:1">
            <path
               d="m 375.386,197.28 c -2.149,0 -3.892,-1.742 -3.892,-3.893 v 0 -5.436 h 5.439 c 2.149,0 3.891,1.741 3.891,3.891 v 0 5.438 z"
               style="fill:#5b2bd6;fill-opacity:1;stroke:none"
               id="path974" />
          </g>
        </g>
      </g>
    </g>
    <g
       id="g976"
       transform="matrix(0.26215185,0,0,-0.26215185,-84.430539,58.676797)"
       style="font-size:17.6678px;line-height:1.25;fill:#5b2bd6;fill-opacity:1;stroke-width:0.441695">
      <g
         id="g978"
         style="fill:#5b2bd6;fill-opacity:1">
        <g
           id="g984"
           style="fill:#5b2bd6;fill-opacity:1">
          <g
             id="g986"
             style="fill:#5b2bd6;fill-opacity:1">
            <path
               d="m 338.145,160.973 c -2.98,0 -5.309,-2.571 -5.015,-5.538 v 0 l 3.476,-35.022 c 0.971,-7.878 7.664,-13.795 15.601,-13.795 v 0 h 11.745 c 0,0 7.591,6.552 16.908,15.43 v 0 4.5 c 0,3.175 2.575,5.751 5.752,5.751 v 0 h 4.667 c 2.48,2.531 4.935,5.112 7.272,7.679 v 0 3.349 c 0,3.177 2.575,5.752 5.751,5.752 v 0 h 2.027 c 3.494,4.435 6.211,8.54 7.566,11.894 v 0 z m 42.715,-17.646 c 0,3.177 2.575,5.752 5.752,5.752 v 0 h 8.035 v -8.036 c 0,-3.176 -2.574,-5.751 -5.751,-5.751 v 0 h -8.036 z m -17.69,0 c 0,3.177 2.575,5.752 5.752,5.752 v 0 h 8.035 v -8.036 c 0,-3.176 -2.575,-5.751 -5.751,-5.751 v 0 h -8.036 z m -17.691,0 c 0,3.177 2.575,5.752 5.752,5.752 v 0 h 8.035 v -8.036 c 0,-3.176 -2.574,-5.751 -5.75,-5.751 v 0 h -8.037 z m 17.691,-16.779 c 0,3.175 2.575,5.751 5.752,5.751 v 0 h 8.035 v -8.035 c 0,-3.177 -2.575,-5.752 -5.751,-5.752 v 0 h -8.036 z m -17.691,0 c 0,3.175 2.575,5.751 5.752,5.751 v 0 h 8.035 v -8.035 c 0,-3.177 -2.574,-5.752 -5.75,-5.752 v 0 h -8.037 z"
               style="fill:#5b2bd6;fill-opacity:1;stroke:none"
               id="path996" />
          </g>
        </g>
      </g>
    </g>
    <g
       id="g998"
       transform="matrix(0.26215185,0,0,-0.26215185,-84.430539,58.676797)"
       style="font-size:17.6678px;line-height:1.25;fill:#5b2bd6;fill-opacity:1;stroke-width:0.441695">
      <g
         id="g1000"
         style="fill:#5b2bd6;fill-opacity:1">
        <g
           id="g1006"
           style="fill:#5b2bd6;fill-opacity:1">
          <g
             id="g1008"
             style="fill:#5b2bd6;fill-opacity:1">
            <path
               d="m 394.908,185.076 c -1.746,0 -3.369,-0.896 -4.299,-2.373 v 0 l -15.012,-23.766 c -2.13,-3.382 0.301,-7.786 4.298,-7.786 v 0 c 1.728,0 3.338,0.88 4.272,2.332 v 0 l 15.229,23.766 c 2.173,3.381 -0.253,7.827 -4.273,7.827 v 0 z"
               style="fill:#5b2bd6;fill-opacity:1;stroke:none"
               id="path1018" />
          </g>
        </g>
      </g>
    </g>
    <g
       id="g1020"
       transform="matrix(0.26215185,0,0,-0.26215185,-84.430539,58.676797)"
       style="font-size:17.6678px;line-height:1.25;fill:#5b2bd6;fill-opacity:1;stroke-width:0.441695">
      <g
         id="g1022"
         style="fill:#5b2bd6;fill-opacity:1">
        <g
           id="g1028"
           style="fill:#5b2bd6;fill-opacity:1">
          <g
             id="g1030"
             style="fill:#5b2bd6;fill-opacity:1">
            <path
               d="m 411.968,159.233 c -1.26,-1.978 -2.555,-3.934 -3.888,-5.865 v 0 c -2.88,-4.171 -5.934,-8.223 -9.185,-12.113 v 0 c -14.878,-17.802 -35.859,-35.777 -60.347,-35.98 v 0 c -3.087,-0.026 -6.5,0.48 -8.49,2.838 v 0 c -2.881,3.411 -2.13,9.313 -1.552,13.383 v 0 c 0.425,3.001 1.04,6.012 1.904,8.919 v 0 c 0,0 -6.792,-8.986 -7.627,-26.127 v 0 c -0.286,-5.883 2.174,-11.839 8.376,-13.277 v 0 c 10.758,-2.494 23.134,6.509 31.531,12.12 v 0 c 10.35,6.917 19.76,15.203 28.13,24.408 v 0 c 9.894,10.88 19.621,23.804 24.843,37.738 v 0 c -0.781,-2.084 -2.501,-4.165 -3.695,-6.044"
               style="fill:#5b2bd6;fill-opacity:1;stroke:none"
               id="path1040" />
          </g>
        </g>
      </g>
    </g>
    <g
       aria-label="Is't full yet?"
       transform="matrix(1.1336524,0,0,0.8821046,-2.3140452,0.80830206)"
       id="text6353"
       style="font-size:5.01023px;line-height:1.65;letter-spacing:0.0111937px;word-spacing:0.00447742px;fill:#666666;stroke:#575e63;stroke-width:0;stroke-miterlimit:4;stroke-dasharray:none;stroke-opacity:1" />
    <g
       aria-label="TM"
       id="text6353-5"
       style="font-size:3.03538px;line-height:1.65;letter-spacing:0.00678142px;word-spacing:0.00271257px;fill:#1a1a1a;stroke:none;stroke-width:0.1;stroke-miterlimit:4;stroke-dasharray:none;stroke-opacity:1"
       transform="matrix(0.94306983,0,0,0.94306983,17.884745,13.393962)">
      <path
         d="m 75.484538,11.761974 h 1.871917 v 0.251961 h -0.785523 v 1.960843 h -0.300871 v -1.960843 h -0.785523 z"
         style="-inkscape-font-specification:sans-serif;baseline-shift:baseline;stroke:none;stroke-width:0.1;stroke-miterlimit:4;stroke-dasharray:none;stroke-opacity:1"
         id="path861" />
      <path
         d="m 77.652249,11.761974 h 0.446118 l 0.564688,1.505833 0.567651,-1.505833 h 0.446118 v 2.212804 H 79.384847 V 12.03172 l -0.570616,1.51769 h -0.30087 l -0.570616,-1.51769 v 1.943058 h -0.290496 z"
         style="-inkscape-font-specification:sans-serif;baseline-shift:baseline;stroke:none;stroke-width:0.1;stroke-miterlimit:4;stroke-dasharray:none;stroke-opacity:1"
         id="path863" />
    </g>
    <g
       transform="scale(0.26458333)"
       id="text1095"
       style="font-size:40px;line-height:1.25;white-space:pre;shape-inside:url(#rect1097)" />
    <g
       aria-label="Global trade starts here"
       id="text1558"
       style="font-size:5.65978px;line-height:1.25;font-family:'Eras Medium ITC';-inkscape-font-specification:'Eras Medium ITC';stroke-width:0.141493"
       transform="matrix(0.88763065,0,0,0.88763065,1.2595467,-3.0734825)">
      <text
         xml:space="preserve"
         style="font-size:5.98744px;line-height:1.25;font-family:'Eras Medium ITC';-inkscape-font-specification:'Eras Medium ITC';stroke-width:0.0211796"
         x="33.622158"
         y="38.198837"
         id="text52038"><tspan
           sodipodi:role="line"
           id="tspan52036"
           style="font-style:normal;font-variant:normal;font-weight:bold;font-stretch:normal;font-family:'Leelawadee UI';-inkscape-font-specification:'Leelawadee UI';stroke-width:0.0211796"
           x="33.622158"
           y="38.198837">Global trade starts here</tspan></text>
    </g>
  </g>
</svg>
