<?xml version="1.0" encoding="UTF-8" standalone="no"?>
<!-- Created with Inkscape (http://www.inkscape.org/) -->

<svg
   width="100mm"
   height="44mm"
   viewBox="0 0 100 44"
   version="1.1"
   id="svg5"
   inkscape:version="1.1.1 (3bf5ae0d25, 2021-09-20)"
   sodipodi:docname="logo-light.svg"
   xmlns:inkscape="http://www.inkscape.org/namespaces/inkscape"
   xmlns:sodipodi="http://sodipodi.sourceforge.net/DTD/sodipodi-0.dtd"
   xmlns="http://www.w3.org/2000/svg"
   xmlns:svg="http://www.w3.org/2000/svg">
  <sodipodi:namedview
     id="namedview7"
     pagecolor="#ffffff"
     bordercolor="#666666"
     borderopacity="1.0"
     inkscape:pageshadow="2"
     inkscape:pageopacity="0.0"
     inkscape:pagecheckerboard="0"
     inkscape:document-units="mm"
     showgrid="false"
     width="90mm"
     inkscape:zoom="0.64000005"
     inkscape:cx="179.68749"
     inkscape:cy="-71.093744"
     inkscape:window-width="1366"
     inkscape:window-height="720"
     inkscape:window-x="0"
     inkscape:window-y="23"
     inkscape:window-maximized="1"
     inkscape:current-layer="text3798"
     showguides="true"
     inkscape:guide-bbox="true" />
  <defs
     id="defs2">
    <clipPath
       clipPathUnits="userSpaceOnUse"
       id="clipPath32">
      <path
         d="M 0,500 H 500 V 0 H 0 Z"
         id="path30" />
    </clipPath>
    <clipPath
       clipPathUnits="userSpaceOnUse"
       id="clipPath60">
      <path
         d="m 153.195,415.671 h 14.719 v -63.404 h -14.719 z"
         id="path58" />
    </clipPath>
  </defs>
  <g
     inkscape:label="Layer 1"
     inkscape:groupmode="layer"
     id="layer1">
    <g
       aria-label="Redux "
       id="text2492"
       style="font-size:17.6678px;line-height:1.25;stroke-width:0.441695"
       transform="matrix(0.92212352,0,0,0.92212352,2.0813178,1.8526887)">
      <g
         aria-label="TM"
         id="text2195"
         style="font-size:3.92841px;fill:#4b6483;fill-opacity:1;stroke:#000000;stroke-width:0.00915753;stroke-opacity:1"
         transform="matrix(1.265638,0,0,1.265638,-29.617585,0.91763792)">
        <path
           d="m 88.924488,7.1576324 h 2.422647 V 7.4837211 H 90.330506 V 10.021459 H 89.941118 V 7.4837211 h -1.01663 z"
           style="-inkscape-font-specification:sans-serif;fill:#4b6483;fill-opacity:1;stroke:#000000;stroke-opacity:1"
           id="path853" />
        <path
           d="m 91.721178,7.1576324 h 0.577369 L 93.02937,9.106492 93.764028,7.1576324 h 0.577369 V 10.021459 H 93.963518 V 7.5067391 l -0.738495,1.964205 h -0.389389 l -0.738495,-1.964205 v 2.5147199 h -0.375961 z"
           style="-inkscape-font-specification:sans-serif;fill:#4b6483;fill-opacity:1;stroke:#000000;stroke-opacity:1"
           id="path855" />
      </g>
      <g
         id="g18409"
         transform="matrix(0.41243808,0,0,0.41243808,9.2788616,1.5653901)"
         style="fill:#d39e5f;fill-opacity:1">
        <g
           id="g444"
           transform="matrix(0.32223354,0,0,-0.32223354,-91.677758,95.551836)"
           style="fill:#d39e5f;fill-opacity:1">
          <g
             id="g446"
             style="fill:#d39e5f;fill-opacity:1">
            <g
               id="g452"
               style="fill:#d39e5f;fill-opacity:1">
              <g
                 aria-label="Fullcart
"
                 transform="scale(1,-1)"
                 id="text3798"
                 style="font-size:87.9626px;fill:#d39e5f;fill-opacity:1;stroke-width:0.971315">
                <path
                   d="m 328.38225,-184.5707 h 44.62556 v 12.49859 h -28.08962 v 11.94024 h 26.41455 v 12.49859 h -26.41455 v 27.18766 h -16.53594 z"
                   style="font-weight:bold;-inkscape-font-specification:'sans-serif Bold';fill:#4b6483;fill-opacity:1"
                   id="path14666" />
                <path
                   d="m 382.88642,-139.17203 v -29.37813 h 15.46217 v 4.81045 q 0,3.90849 -0.043,9.83566 -0.0429,5.88422 -0.0429,7.85994 0,5.79832 0.30066,8.37535 0.30065,2.53408 1.03081,3.69374 0.94491,1.50327 2.44818,2.31932 1.54621,0.81606 3.52194,0.81606 4.81045,0 7.55928,-3.69374 2.74883,-3.69374 2.74883,-10.26516 v -23.75162 h 15.37628 v 48.10454 h -15.37628 v -6.95798 q -3.47899,4.20915 -7.38748,6.22782 -3.86555,1.97573 -8.54715,1.97573 -8.33239,0 -12.71334,-5.11111 -4.338,-5.11111 -4.338,-14.86087 z"
                   style="font-weight:bold;-inkscape-font-specification:'sans-serif Bold';fill:#4b6483;fill-opacity:1"
                   id="path14668" />
                <path
                   d="m 446.02364,-187.27658 h 15.37627 v 66.83096 h -15.37627 z"
                   style="font-weight:bold;-inkscape-font-specification:'sans-serif Bold';fill:#4b6483;fill-opacity:1"
                   id="path14670" />
                <path
                   d="m 476.17488,-187.27658 h 15.37628 v 66.83096 h -15.37628 z"
                   style="font-weight:bold;-inkscape-font-specification:'sans-serif Bold';fill:#4b6483;fill-opacity:1"
                   id="path14672" />
                <path
                   d="m 545.19631,-167.0469 v 12.54154 q -3.13539,-2.14752 -6.31373,-3.17833 -3.13538,-1.03081 -6.52847,-1.03081 -6.44257,0 -10.05042,3.77964 -3.56489,3.73669 -3.56489,10.47992 0,6.74323 3.56489,10.52287 3.60785,3.73669 10.05042,3.73669 3.60784,0 6.82913,-1.07376 3.26423,-1.07376 6.01307,-3.17834 v 12.5845 q -3.60785,1.33146 -7.34454,1.97572 -3.69374,0.68721 -7.43043,0.68721 -13.014,0 -20.35853,-6.65733 -7.34454,-6.70028 -7.34454,-18.59756 0,-11.89729 7.34454,-18.55461 7.34453,-6.70028 20.35853,-6.70028 3.77964,0 7.43043,0.68721 3.69374,0.64426 7.34454,1.97572 z"
                   style="font-weight:bold;-inkscape-font-specification:'sans-serif Bold';fill:#d39e5f;fill-opacity:1"
                   id="path14674" />
                <path
                   d="m 580.02917,-142.09266 q -4.81046,0 -7.25864,1.63211 -2.40522,1.63212 -2.40522,4.81046 0,2.92063 1.93277,4.5957 1.97572,1.63212 5.45471,1.63212 4.338,0 7.30158,-3.09243 2.96359,-3.13539 2.96359,-7.81699 v -1.76097 z m 23.49391,-5.79832 v 27.44536 h -15.50512 v -7.12978 q -3.09244,4.38095 -6.95798,6.39962 -3.86555,1.97573 -9.40616,1.97573 -7.47339,0 -12.15499,-4.338 -4.63865,-4.38095 -4.63865,-11.33893 0,-8.46125 5.79831,-12.41269 5.84127,-3.95145 18.29691,-3.95145 h 9.06256 v -1.20261 q 0,-3.65079 -2.87769,-5.32586 -2.87768,-1.71802 -8.97665,-1.71802 -4.9393,0 -9.1914,0.98786 -4.2521,0.98786 -7.90289,2.96358 v -11.72548 q 4.9393,-1.20261 9.92156,-1.80392 4.98226,-0.64426 9.96451,-0.64426 13.014,0 18.76937,5.15406 5.79831,5.11111 5.79831,16.66479 z"
                   style="font-weight:bold;-inkscape-font-specification:'sans-serif Bold';fill:#d39e5f;fill-opacity:1"
                   id="path14676" />
                <path
                   d="m 653.5604,-155.45027 q -2.01867,-0.94491 -4.03734,-1.37441 -1.97573,-0.47246 -3.9944,-0.47246 -5.92717,0 -9.14845,3.8226 -3.17834,3.77964 -3.17834,10.86647 v 22.16245 h -15.37628 v -48.10454 h 15.37628 v 7.90288 q 2.96358,-4.72455 6.78618,-6.87207 3.86554,-2.19048 9.23435,-2.19048 0.77311,0 1.67507,0.0859 0.90196,0.0429 2.61998,0.25771 z"
                   style="font-weight:bold;-inkscape-font-specification:'sans-serif Bold';fill:#d39e5f;fill-opacity:1"
                   id="path14678" />
                <path
                   d="m 677.99921,-182.20842 v 13.65826 h 15.84873 v 10.99532 h -15.84873 v 20.40148 q 0,3.35014 1.33146,4.55275 1.33147,1.15967 5.28292,1.15967 h 7.90288 v 10.99532 h -13.1858 q -9.1055,0 -12.92809,-3.77964 -3.77965,-3.82259 -3.77965,-12.9281 v -20.40148 h -7.64518 v -10.99532 h 7.64518 v -13.65826 z"
                   style="font-weight:bold;-inkscape-font-specification:'sans-serif Bold';fill:#d39e5f;fill-opacity:1"
                   id="path14680" />
              </g>
            </g>
          </g>
        </g>
      </g>
      <g
         aria-label="N"
         id="text45953"
         style="font-size:11.4771px;stroke-width:0.126735" />
      <g
         aria-label=".com"
         id="text22787"
         style="font-size:8.55195px;fill:#4b6483;fill-opacity:1;stroke-width:0.0944342"
         transform="matrix(0.81621553,0,0,0.81621553,8.8987656,3.1126143)">
        <path
           d="m 68.762225,25.775507 q 0,-0.279775 0.125273,-0.421751 0.129448,-0.146151 0.367466,-0.146151 0.242194,0 0.375819,0.146151 0.1378,0.141976 0.1378,0.421751 0,0.271425 -0.1378,0.417576 -0.1378,0.146152 -0.375819,0.146152 -0.212963,0 -0.354939,-0.129449 -0.1378,-0.133624 -0.1378,-0.434279 z"
           style="font-family:'Open Sans';-inkscape-font-specification:'Open Sans';fill:#4b6483;fill-opacity:1"
           id="path30371" />
        <path
           d="m 72.967212,26.301653 q -0.99383,0 -1.540854,-0.609661 -0.542848,-0.613836 -0.542848,-1.732939 0,-1.148333 0.5512,-1.774697 0.555375,-0.626363 1.578436,-0.626363 0.329885,0 0.659769,0.07099 0.329885,0.07099 0.517794,0.16703 l -0.212963,0.588782 q -0.229667,-0.09187 -0.501091,-0.150327 -0.271424,-0.06264 -0.480212,-0.06264 -1.394703,0 -1.394703,1.778873 0,0.843503 0.338236,1.294484 0.342412,0.450982 1.010533,0.450982 0.572079,0 1.173388,-0.24637 v 0.613837 q -0.459333,0.238018 -1.156685,0.238019 z"
           style="font-family:'Open Sans';-inkscape-font-specification:'Open Sans';fill:#4b6483;fill-opacity:1"
           id="path30373" />
        <path
           d="m 79.15986,23.925647 q 0,1.119103 -0.563727,1.749642 -0.563727,0.626364 -1.557557,0.626364 -0.613837,0 -1.089873,-0.288127 -0.476036,-0.288128 -0.734933,-0.8268 -0.258897,-0.538673 -0.258897,-1.261079 0,-1.119103 0.559551,-1.741291 0.559552,-0.626363 1.553382,-0.626363 0.960424,0 1.524151,0.638891 0.567903,0.638891 0.567903,1.728763 z m -3.486757,0 q 0,0.876909 0.350764,1.336242 0.350763,0.459334 1.031412,0.459334 0.680648,0 1.031412,-0.455158 0.354939,-0.459333 0.354939,-1.340418 0,-0.872733 -0.354939,-1.323715 -0.350764,-0.455157 -1.039764,-0.455157 -0.680648,0 -1.027236,0.446806 -0.346588,0.446806 -0.346588,1.332066 z"
           style="font-family:'Open Sans';-inkscape-font-specification:'Open Sans';fill:#4b6483;fill-opacity:1"
           id="path30375" />
        <path
           d="m 86.208538,26.218138 v -2.977315 q 0,-0.547024 -0.233843,-0.818448 -0.233842,-0.2756 -0.726581,-0.2756 -0.647243,0 -0.956249,0.371642 -0.309006,0.371642 -0.309006,1.144157 v 2.555564 h -0.693175 v -2.977315 q 0,-0.547024 -0.233843,-0.818448 -0.233842,-0.2756 -0.730757,-0.2756 -0.651418,0 -0.956249,0.392521 -0.300654,0.388345 -0.300654,1.277781 v 2.401061 h -0.693176 v -4.57663 h 0.563727 l 0.112746,0.626364 h 0.03341 q 0.19626,-0.334061 0.5512,-0.52197 0.359115,-0.187909 0.801745,-0.187909 1.07317,0 1.403054,0.776691 h 0.03341 q 0.204612,-0.359115 0.592957,-0.567903 0.388345,-0.208788 0.885261,-0.208788 0.77669,0 1.16086,0.400873 0.388345,0.396696 0.388345,1.273605 v 2.985667 z"
           style="font-family:'Open Sans';-inkscape-font-specification:'Open Sans';fill:#4b6483;fill-opacity:1"
           id="path30377" />
      </g>
      <g
         id="g26"
         transform="matrix(0.18572309,0,0,-0.18572309,-17.624261,88.113604)"
         style="fill:#4b6483;fill-opacity:1">
        <g
           id="g28"
           clip-path="url(#clipPath32)"
           style="fill:#4b6483;fill-opacity:1">
          <g
             id="g138"
             transform="matrix(1.4450767,0,0,1.4450767,247.3556,330.89301)"
             style="fill:#4b6483;fill-opacity:1">
            <path
               d="m 0,0 c -1.363,-4.504 -5.514,-7.586 -10.22,-7.59 l -47.497,-0.032 c -4.365,0 -8.547,1.855 -11.477,5.092 -2.929,3.234 -4.36,7.58 -3.928,11.923 l 3.817,38.295 c 0.402,4.035 -2.406,7.771 -6.393,8.508 l -11.917,2.2 c -2.07,0.381 -3.438,2.37 -3.056,4.439 0.382,2.069 2.369,3.437 4.439,3.056 l 11.918,-2.201 c 7.853,-1.449 13.385,-8.809 12.593,-16.756 L -65.512,8.893 C -65.726,6.739 -65.167,4.539 -63.79,2.87 -62.264,1.022 -60.091,0 -57.717,0 Z"
               style="fill:#4b6483;fill-opacity:1;fill-rule:nonzero;stroke:none"
               id="path140" />
          </g>
          <g
             id="g142"
             transform="matrix(1.4450767,0,0,1.4450767,173.84023,305.02685)"
             style="fill:#4b6483;fill-opacity:1">
            <path
               d="m 0,0 c 0,-4.267 -3.459,-7.726 -7.726,-7.726 -4.267,0 -7.726,3.459 -7.726,7.726 0,4.267 3.459,7.726 7.726,7.726 C -3.459,7.726 0,4.267 0,0"
               style="fill:#4b6483;fill-opacity:1;fill-rule:nonzero;stroke:none"
               id="path144" />
          </g>
          <g
             id="g146"
             transform="matrix(1.4450767,0,0,1.4450767,226.30749,305.02685)"
             style="fill:#4b6483;fill-opacity:1">
            <path
               d="m 0,0 c 0,-4.267 -3.459,-7.726 -7.726,-7.726 -4.266,0 -7.725,3.459 -7.725,7.726 0,4.267 3.459,7.726 7.725,7.726 C -3.459,7.726 0,4.267 0,0"
               style="fill:#4b6483;fill-opacity:1;fill-rule:nonzero;stroke:none"
               id="path148" />
          </g>
          <g
             id="g154"
             transform="matrix(1.4450767,0,0,1.4450767,132.59411,365.00462)"
             style="fill:#4b6483;fill-opacity:1">
            <path
               d="m 0,0 -7.927,-0.054 -0.054,7.928 c -0.02,2.913 2.325,5.29 5.238,5.31 L 5.185,13.237 5.238,5.31 C 5.258,2.397 2.913,0.02 0,0"
               style="fill:#4b6483;fill-opacity:1;fill-rule:nonzero;stroke:none"
               id="path156" />
          </g>
          <g
             id="g158"
             transform="matrix(1.4450767,0,0,1.4450767,119.74363,335.57389)"
             style="fill:#4b6483;fill-opacity:1">
            <path
               d="m 0,0 -8.425,-0.057 -0.057,8.425 c -0.021,3.096 2.471,5.622 5.567,5.643 L 5.51,14.068 5.567,5.643 C 5.588,2.548 3.096,0.021 0,0"
               style="fill:#4b6483;fill-opacity:1;fill-rule:nonzero;stroke:none"
               id="path160" />
          </g>
          <g
             id="g162"
             transform="matrix(1.4450767,0,0,1.4450767,101.62584,354.18778)"
             style="fill:#4b6483;fill-opacity:1">
            <path
               d="M 0,0 -5.632,-0.038 -5.67,5.594 c -0.014,2.069 1.652,3.759 3.721,3.772 L 3.684,9.404 3.721,3.772 C 3.735,1.703 2.069,0.014 0,0"
               style="fill:#4b6483;fill-opacity:1;fill-rule:nonzero;stroke:none"
               id="path164" />
          </g>
          <g
             id="g21739"
             transform="matrix(0.99929195,0,0,0.15195765,138.65194,397.47534)"
             style="fill:#4b6483;fill-opacity:1" />
        </g>
      </g>
    </g>
  </g>
</svg>
