<?xml version="1.0" encoding="UTF-8" standalone="no"?>
<!-- Created with Inkscape (http://www.inkscape.org/) -->

<svg
   width="90mm"
   height="44mm"
   viewBox="0 0 90 44"
   version="1.1"
   id="svg5"
   inkscape:version="1.1.1 (3bf5ae0d25, 2021-09-20)"
   sodipodi:docname="logo.svg"
   xmlns:inkscape="http://www.inkscape.org/namespaces/inkscape"
   xmlns:sodipodi="http://sodipodi.sourceforge.net/DTD/sodipodi-0.dtd"
   xmlns="http://www.w3.org/2000/svg"
   xmlns:svg="http://www.w3.org/2000/svg">
  <sodipodi:namedview
     id="namedview7"
     pagecolor="#ffffff"
     bordercolor="#666666"
     borderopacity="1.0"
     inkscape:pageshadow="2"
     inkscape:pageopacity="0.0"
     inkscape:pagecheckerboard="0"
     inkscape:document-units="mm"
     showgrid="false"
     width="90mm"
     inkscape:zoom="1.8101934"
     inkscape:cx="157.16553"
     inkscape:cy="66.567473"
     inkscape:window-width="1366"
     inkscape:window-height="720"
     inkscape:window-x="0"
     inkscape:window-y="23"
     inkscape:window-maximized="1"
     inkscape:current-layer="text1872"
     showguides="true"
     inkscape:guide-bbox="true" />
  <defs
     id="defs2" />
  <g
     inkscape:label="Layer 1"
     inkscape:groupmode="layer"
     id="layer1">
    <g
       aria-label="Redux "
       id="text2492"
       style="font-size:17.6678px;line-height:1.25;stroke-width:0.441695"
       transform="matrix(0.92212352,0,0,0.92212352,2.0813178,1.8526887)">
      <g
         aria-label="ts-react-redux-toolkit-template"
         id="text1872"
         style="font-size:6.12114px;stroke-width:0.093244">
        <g
           aria-label="TM"
           id="text2195"
           style="font-size:3.92841px;fill:#333333;fill-opacity:1;stroke:#000000;stroke-width:0.00915753;stroke-opacity:1"
           transform="matrix(0.74730892,0,0,0.74730892,-1.6755513,4.2991148)">
          <path
             d="m 88.924488,7.1576324 h 2.422647 V 7.4837211 H 90.330506 V 10.021459 H 89.941118 V 7.4837211 h -1.01663 z"
             style="-inkscape-font-specification:sans-serif;fill:#333333;fill-opacity:1;stroke:#000000;stroke-opacity:1"
             id="path853" />
          <path
             d="m 91.721178,7.1576324 h 0.577369 L 93.02937,9.106492 93.764028,7.1576324 h 0.577369 V 10.021459 H 93.963518 V 7.5067391 l -0.738495,1.964205 h -0.389389 l -0.738495,-1.964205 v 2.5147199 h -0.375961 z"
             style="-inkscape-font-specification:sans-serif;fill:#333333;fill-opacity:1;stroke:#000000;stroke-opacity:1"
             id="path855" />
        </g>
        <g
           aria-label="Fullcart"
           id="text3289"
           style="font-size:14.1327px;fill:#333333;stroke-width:0.0329448">
          <path
             d="m 25.999744,12.338103 h -3.815829 v 9.426511 h 0.621839 v -4.875781 h 3.109194 v -0.565308 h -3.109194 v -3.420114 h 3.19399 z"
             style="font-weight:300;-inkscape-font-specification:'Futura PT Light'"
             id="path3671" />
          <path
             d="m 27.229262,15.998473 v 3.632103 c 0,0.46638 0.0424,1.074086 0.438114,1.582863 0.438113,0.565308 1.130616,0.706635 1.639393,0.706635 0.508777,0 1.201279,-0.141327 1.639393,-0.706635 0.395716,-0.508777 0.438114,-1.116483 0.438114,-1.582863 v -3.632103 h -0.565308 v 3.476644 c 0,0.409848 -0.01413,1.017554 -0.36745,1.441535 -0.353318,0.423981 -0.876228,0.466379 -1.144749,0.466379 -0.268521,0 -0.791431,-0.0424 -1.144749,-0.466379 -0.353317,-0.423981 -0.36745,-1.031687 -0.36745,-1.441535 v -3.476644 z"
             style="font-weight:300;-inkscape-font-specification:'Futura PT Light'"
             id="path3673" />
          <path
             d="m 33.419381,11.461876 v 10.302738 h 0.565308 V 11.461876 Z"
             style="font-weight:300;-inkscape-font-specification:'Futura PT Light'"
             id="path3675" />
          <path
             d="m 36.019771,11.461876 v 10.302738 h 0.565308 V 11.461876 Z"
             style="font-weight:300;-inkscape-font-specification:'Futura PT Light'"
             id="path3677" />
          <path
             d="m 43.029563,15.814747 c -0.494645,-0.240255 -1.017555,-0.36745 -1.653526,-0.36745 -0.593574,0 -1.455668,0.127195 -2.204701,0.791431 -0.621839,0.551176 -1.059953,1.41327 -1.059953,2.487356 0,1.144748 0.508777,1.907914 0.975156,2.346028 0.551176,0.52291 1.399138,0.89036 2.360161,0.89036 0.706635,0 1.243678,-0.211991 1.582863,-0.381583 v -1.681791 c -0.466379,0.423981 -0.975157,0.537042 -1.35674,0.537042 -1.031687,0 -1.78072,-0.7349 -1.78072,-1.738322 0,-0.89036 0.579441,-1.724189 1.72419,-1.724189 0.593573,0 1.045819,0.197858 1.41327,0.537042 z"
             style="font-weight:500;-inkscape-font-specification:'Futura PT Medium';fill:#56518f"
             id="path3679" />
          <path
             d="m 49.021818,16.436586 c -0.579441,-0.904493 -1.498066,-0.989289 -1.964445,-0.989289 -1.808986,0 -3.038531,1.441536 -3.038531,3.250521 0,1.794853 1.243678,3.264654 3.123327,3.264654 0.438114,0 1.25781,-0.09893 1.879649,-0.989289 v 0.791431 h 1.724189 v -6.119459 h -1.724189 z m -1.526332,0.537043 c 0.989289,0 1.695924,0.749033 1.695924,1.724189 0,0.975157 -0.706635,1.738322 -1.695924,1.738322 -0.989289,0 -1.695924,-0.763165 -1.695924,-1.738322 0,-0.975156 0.706635,-1.724189 1.695924,-1.724189 z"
             style="font-weight:500;-inkscape-font-specification:'Futura PT Medium';fill:#56518f"
             id="path3681" />
          <path
             d="m 52.385395,21.764614 h 1.72419 v -2.939601 c 0,-0.423981 0.01413,-0.946891 0.339184,-1.35674 0.339185,-0.423981 0.819697,-0.494644 1.144749,-0.494644 0.353318,0 0.579441,0.07066 0.805564,0.226123 l 0.226123,-1.611128 c -0.197858,-0.07066 -0.438113,-0.141327 -0.7349,-0.141327 -0.409848,0 -0.749033,0.09893 -1.017555,0.268522 -0.127194,0.07066 -0.494644,0.325052 -0.763165,0.847962 v -0.918626 h -1.72419 z"
             style="font-weight:500;-inkscape-font-specification:'Futura PT Medium';fill:#56518f"
             id="path3683" />
          <path
             d="m 60.822574,17.114956 v -1.469801 h -1.187147 v -2.09164 h -1.724189 v 2.09164 h -0.67837 v 1.469801 h 0.67837 v 4.649658 h 1.724189 v -4.649658 z"
             style="font-weight:500;-inkscape-font-specification:'Futura PT Medium';fill:#56518f"
             id="path3685" />
        </g>
        <path
           style="fill:#333333;stroke:none;stroke-width:0.194679;stroke-linecap:butt;stroke-linejoin:miter;stroke-miterlimit:4;stroke-dasharray:none;stroke-opacity:1"
           d="m 16.398034,27.754377 -5.559418,1.202637 0.68663,-16.25908"
           id="path44337" />
        <path
           style="fill:#4d4d4d;stroke:none;stroke-width:0.194248;stroke-linecap:butt;stroke-linejoin:miter;stroke-miterlimit:4;stroke-dasharray:none;stroke-opacity:1"
           d="m 11.769832,12.697933 1.201819,1.144077 1.615676,0.138388 2.055293,13.773979"
           id="path44339" />
        <path
           style="fill:#222222;fill-opacity:1;stroke:none;stroke-width:0.194679;stroke-linecap:butt;stroke-linejoin:miter;stroke-miterlimit:4;stroke-dasharray:none;stroke-opacity:1"
           d="M 10.424803,28.973122 11.139037,12.666331 1.4703525,15.672223 -0.0229458,27.010845"
           id="path44341" />
        <path
           style="fill:#333333;stroke:none;stroke-width:0.194679;stroke-linecap:butt;stroke-linejoin:miter;stroke-miterlimit:4;stroke-dasharray:none;stroke-opacity:1"
           d="M -0.02294571,27.010845 10.424803,28.973122"
           id="path44343" />
        <path
           style="fill:#222222;fill-opacity:1;stroke:none;stroke-width:0.194679;stroke-linecap:butt;stroke-linejoin:miter;stroke-miterlimit:4;stroke-dasharray:none;stroke-opacity:1"
           d="M 9.629284,13.084486 9.625274,12.70107 9.600521,12.269984 9.541121,11.876854 9.4205034,11.450408 9.2725616,11.138116 9.094537,10.795478 8.9226757,10.61058 8.7831253,10.495578 8.6572316,10.404828 8.4818907,10.330058 8.296395,10.276031 8.0360996,10.26647 7.7514742,10.27998 7.3680069,10.369389 7.0194153,10.480751 6.7521211,10.632302 6.480241,10.794289 6.1563574,11.063969 5.8610389,11.366414 5.4831081,11.848976 5.197611,12.286639 4.9873245,12.687118 4.7924966,13.078415 4.6171015,13.53437 4.465669,13.940422 4.2323804,14.763935 4.9782166,14.524386 5.234289,13.755796 5.4816061,13.151728 5.7635307,12.60189 l 0.3888374,-0.579033 0.5221827,-0.572052 0.5433973,-0.354611 0.4158626,-0.135218 0.4199303,-0.05375 0.1186973,0.0073 0.1127232,0.04069 0.080613,0.04839 0.1815598,0.200548 0.2198323,0.349537 0.1160728,0.349537 0.050555,0.345304 0.047023,0.329599 0.020394,0.321677 0.00401,0.375786 z"
           id="path44705" />
        <path
           style="fill:#222222;fill-opacity:1;stroke:none;stroke-width:0.194679;stroke-linecap:butt;stroke-linejoin:miter;stroke-miterlimit:4;stroke-dasharray:none;stroke-opacity:1"
           d="m 11.184274,12.695741 -0.004,-0.383416 -0.02475,-0.431085 -0.0594,-0.393131 -0.120631,-0.426446 -0.147942,-0.312291 -0.178024,-0.342639 -0.171862,-0.184897 -0.13955,-0.115002 -0.125894,-0.09075 -0.175341,-0.074769 -0.1854957,-0.054025 -0.2602957,-0.00957 -0.2846254,0.013508 -0.3834676,0.089408 -0.348592,0.1113623 -0.2672938,0.151551 -0.2718802,0.161987 -0.3238827,0.26968 -0.2953185,0.302445 -0.3779299,0.482562 -0.285498,0.437663 -0.2102857,0.400479 -0.1948279,0.391296 -0.175395,0.455956 -0.1514326,0.406052 -0.2332894,0.823513 0.7458371,-0.239548 0.2560715,-0.768591 0.2473171,-0.604069 0.2819246,-0.549837 0.3888366,-0.579034 0.5221826,-0.572051 0.5433982,-0.354611 0.4158621,-0.135218 0.4199306,-0.05375 0.1186982,0.0073 0.1127224,0.04069 0.080613,0.04839 0.1815601,0.200547 0.219833,0.349538 0.116072,0.349536 0.05056,0.345305 0.04702,0.329599 0.02039,0.321676 0.004,0.375787 z"
           id="path44787" />
        <g
           aria-label="Is it not full yet ?"
           id="text1376"
           style="font-size:4.97342px;letter-spacing:0px;fill:#333333;stroke-width:0.023568">
          <path
             d="m 22.156813,27.881275 h 0.412794 v -3.451553 h -0.412794 z"
             style="font-family:Cantarell;-inkscape-font-specification:Cantarell;fill:#808080"
             id="path3640" />
          <path
             d="m 24.166067,27.931009 c 0.591837,0 0.954896,-0.278511 0.954896,-0.721146 0,-0.880295 -1.432345,-0.552049 -1.432345,-1.094152 0,-0.208884 0.223804,-0.343166 0.581891,-0.343166 0.20391,0 0.442634,0.04476 0.646544,0.114389 l 0.0945,-0.323273 c -0.20391,-0.08455 -0.447608,-0.129309 -0.701252,-0.129309 -0.621678,0 -1.019551,0.273539 -1.019551,0.72612 0,0.860401 1.427371,0.502315 1.427371,1.089179 0,0.21883 -0.193963,0.343166 -0.522209,0.343166 -0.253644,0 -0.591837,-0.06963 -0.845481,-0.179043 l -0.09449,0.323272 c 0.273538,0.124335 0.606757,0.193963 0.910136,0.193963 z"
             style="font-family:Cantarell;-inkscape-font-specification:Cantarell;fill:#808080"
             id="path3642" />
          <path
             d="m 26.841758,27.881275 h 0.397873 v -2.397188 h -0.397873 z m 0.20391,-2.959185 c 0.179043,0 0.283485,-0.104442 0.283485,-0.283485 0,-0.179043 -0.104442,-0.283485 -0.283485,-0.283485 -0.179043,0 -0.283485,0.104442 -0.283485,0.283485 0,0.179043 0.104442,0.283485 0.283485,0.283485 z"
             style="font-family:Cantarell;-inkscape-font-specification:Cantarell;fill:#808080"
             id="path3644" />
          <path
             d="m 28.885825,27.906142 c 0.164123,0 0.328246,-0.03979 0.442634,-0.08952 l -0.08952,-0.288459 c -0.0746,0.03481 -0.184017,0.05471 -0.268565,0.05471 -0.248671,0 -0.412794,-0.159149 -0.412794,-0.397874 v -2.402162 h -0.397873 v 2.45687 c 0,0.397874 0.288458,0.666438 0.726119,0.666438 z m -1.049392,-2.088836 h 1.377638 v -0.333219 h -1.377638 z"
             style="font-family:Cantarell;-inkscape-font-specification:Cantarell;fill:#808080"
             id="path3646" />
          <path
             d="m 32.591011,27.881275 h 0.397873 v -1.571601 c 0,-0.532156 -0.353112,-0.875322 -0.890242,-0.875322 -0.348139,0 -0.691305,0.149203 -0.94495,0.412794 l 0.0945,0.253645 c 0.198937,-0.20391 0.462528,-0.318299 0.74104,-0.318299 0.387927,0 0.601784,0.21883 0.601784,0.606757 z m -1.636255,0 h 0.397873 v -2.118677 l -0.119362,-0.278511 h -0.278511 z"
             style="font-family:Cantarell;-inkscape-font-specification:Cantarell;fill:#808080"
             id="path3648" />
          <path
             d="m 34.739525,27.931009 c 0.706226,0 1.183674,-0.512262 1.183674,-1.278169 0,-0.741039 -0.442634,-1.218488 -1.123993,-1.218488 -0.706225,0 -1.1787,0.507289 -1.1787,1.273196 0,0.74104 0.437661,1.223461 1.119019,1.223461 z m 0.05471,-0.348139 c -0.462528,0 -0.775854,-0.373007 -0.775854,-0.925056 0,-0.532156 0.283485,-0.875322 0.72612,-0.875322 0.462528,0 0.780827,0.37798 0.780827,0.925056 0,0.527183 -0.288459,0.875322 -0.731093,0.875322 z"
             style="font-family:Cantarell;-inkscape-font-specification:Cantarell;fill:#808080"
             id="path3650" />
          <path
             d="m 37.415222,27.906142 c 0.164123,0 0.328246,-0.03979 0.442635,-0.08952 l -0.08952,-0.288459 c -0.0746,0.03481 -0.184016,0.05471 -0.268564,0.05471 -0.248671,0 -0.412794,-0.159149 -0.412794,-0.397874 v -2.402162 h -0.397874 v 2.45687 c 0,0.397874 0.288458,0.666438 0.726119,0.666438 z m -1.049391,-2.088836 h 1.377637 v -0.333219 h -1.377637 z"
             style="font-family:Cantarell;-inkscape-font-specification:Cantarell;fill:#808080"
             id="path3652" />
          <path
             d="m 39.563728,27.881275 h 0.397874 v -2.919397 c 0,-0.308352 0.144229,-0.467502 0.417767,-0.467502 0.129309,0 0.298405,0.02487 0.422741,0.08455 l 0.08455,-0.298405 c -0.154176,-0.0746 -0.308352,-0.124336 -0.477448,-0.124336 -0.507289,0 -0.845482,0.343166 -0.845482,0.855429 z m -0.358086,-2.063969 h 1.501973 v -0.333219 h -1.501973 z"
             style="font-family:Cantarell;-inkscape-font-specification:Cantarell;fill:#808080"
             id="path3654" />
          <path
             d="m 42.000694,27.931009 c 0.338192,0 0.681358,-0.149202 0.925056,-0.412793 l -0.0945,-0.253645 c -0.18899,0.20391 -0.452582,0.318299 -0.711199,0.318299 -0.373007,0 -0.586864,-0.218831 -0.586864,-0.606757 v -1.492026 h -0.397874 v 1.5716 c 0,0.532156 0.353113,0.875322 0.865376,0.875322 z m 0.845481,-0.04973 h 0.278512 v -2.397188 h -0.397874 v 2.118677 z"
             style="font-family:Cantarell;-inkscape-font-specification:Cantarell;fill:#808080"
             id="path3656" />
          <path
             d="m 44.49237,27.911116 c 0.129309,0 0.283485,-0.02984 0.37798,-0.07957 l -0.08952,-0.278512 c -0.05968,0.02487 -0.114389,0.03979 -0.17407,0.03979 -0.169096,0 -0.258618,-0.114389 -0.258618,-0.298405 v -3.088494 h -0.397873 v 3.138228 c 0,0.343166 0.213857,0.56697 0.542102,0.56697 z"
             style="font-family:Cantarell;-inkscape-font-specification:Cantarell;fill:#808080"
             id="path3658" />
          <path
             d="m 45.874981,27.911116 c 0.129309,0 0.283485,-0.02984 0.37798,-0.07957 l -0.08952,-0.278512 c -0.05968,0.02487 -0.114389,0.03979 -0.17407,0.03979 -0.169096,0 -0.258618,-0.114389 -0.258618,-0.298405 v -3.088494 h -0.397873 v 3.138228 c 0,0.343166 0.213857,0.56697 0.542103,0.56697 z"
             style="font-family:Cantarell;-inkscape-font-specification:Cantarell;fill:#808080"
             id="path3660" />
          <path
             d="m 47.968788,28.960507 h 0.422741 l 0.397874,-1.079232 0.935002,-2.397188 h -0.397873 l -0.775854,2.158464 h 0.104442 l -0.75596,-2.158464 h -0.442634 l 0.94495,2.397188 z"
             style="font-family:Cantarell;-inkscape-font-specification:Cantarell;fill:#808080"
             id="path3662" />
          <path
             d="m 51.27611,27.931009 c 0.273538,0 0.571944,-0.06465 0.785801,-0.179043 l -0.08952,-0.288458 c -0.184016,0.08952 -0.417767,0.144229 -0.626651,0.144229 -0.561996,0 -0.895215,-0.373006 -0.895215,-0.994684 0,-0.542103 0.243697,-0.840508 0.681358,-0.840508 0.407821,0 0.646545,0.263591 0.646545,0.721146 h -1.397531 v 0.298405 h 1.750644 c 0.0099,-0.0746 0.01989,-0.248671 0.01989,-0.343166 0,-0.601784 -0.397873,-1.014578 -0.98971,-1.014578 -0.666439,0 -1.11902,0.52221 -1.11902,1.258276 0,0.765906 0.472475,1.238381 1.233408,1.238381 z"
             style="font-family:Cantarell;-inkscape-font-specification:Cantarell;fill:#808080"
             id="path3664" />
          <path
             d="m 53.643458,27.906142 c 0.164122,0 0.328245,-0.03979 0.442634,-0.08952 l -0.08952,-0.288459 c -0.0746,0.03481 -0.184016,0.05471 -0.268564,0.05471 -0.248671,0 -0.412794,-0.159149 -0.412794,-0.397874 v -2.402162 h -0.397874 v 2.45687 c 0,0.397874 0.288459,0.666438 0.72612,0.666438 z m -1.049392,-2.088836 h 1.377637 v -0.333219 h -1.377637 z"
             style="font-family:Cantarell;-inkscape-font-specification:Cantarell;fill:#808080"
             id="path3666" />
          <path
             d="m 56.08042,26.911458 h 0.37798 v -0.263591 c 0,-0.542103 0.800721,-0.750986 0.800721,-1.457212 0,-0.487395 -0.387927,-0.810668 -0.974791,-0.810668 -0.328246,0 -0.691305,0.09947 -0.984737,0.263592 l 0.0945,0.303378 c 0.268565,-0.134282 0.537129,-0.20391 0.7858,-0.20391 0.412794,0 0.656492,0.193963 0.656492,0.492369 0,0.522209 -0.75596,0.701252 -0.75596,1.412451 z m 0.193963,1.019551 c 0.18899,0 0.318299,-0.134282 0.318299,-0.318299 0,-0.184016 -0.129309,-0.318298 -0.318299,-0.318298 -0.18899,0 -0.318299,0.134282 -0.318299,0.318298 0,0.184017 0.129309,0.318299 0.318299,0.318299 z"
             style="font-family:Cantarell;-inkscape-font-specification:Cantarell;fill:#808080"
             id="path3668" />
        </g>
      </g>
    </g>
  </g>
</svg>
