<?xml version="1.0" encoding="UTF-8" standalone="no"?>
<!-- Created with Inkscape (http://www.inkscape.org/) -->

<svg
   width="100mm"
   height="44mm"
   viewBox="0 0 100 44"
   version="1.1"
   id="svg5"
   inkscape:version="1.1.2 (b8e25be833, 2022-02-05)"
   sodipodi:docname="non-exp-header-logo.svg"
   xmlns:inkscape="http://www.inkscape.org/namespaces/inkscape"
   xmlns:sodipodi="http://sodipodi.sourceforge.net/DTD/sodipodi-0.dtd"
   xmlns="http://www.w3.org/2000/svg"
   xmlns:svg="http://www.w3.org/2000/svg">
  <sodipodi:namedview
     id="namedview7"
     pagecolor="#ffffff"
     bordercolor="#666666"
     borderopacity="1.0"
     inkscape:pageshadow="2"
     inkscape:pageopacity="0.0"
     inkscape:pagecheckerboard="0"
     inkscape:document-units="mm"
     showgrid="false"
     width="100mm"
     inkscape:zoom="1.895735"
     inkscape:cx="233.4187"
     inkscape:cy="178.29496"
     inkscape:window-width="1920"
     inkscape:window-height="1027"
     inkscape:window-x="-8"
     inkscape:window-y="-8"
     inkscape:window-maximized="1"
     inkscape:current-layer="text1895"
     showguides="true"
     inkscape:guide-bbox="true" />
  <defs
     id="defs2">
    <rect
       x="397.73491"
       y="448.3749"
       width="621.39486"
       height="247.92494"
       id="rect1097" />
  </defs>
  <g
     inkscape:label="Layer 1"
     inkscape:groupmode="layer"
     id="layer1">
    <g
       inkscape:label="Layer 1"
       id="layer1-4"
       transform="translate(19.791731,2.509862)">
      <g
         aria-label="Is't full yet?"
         transform="matrix(1.1336524,0,0,0.8821046,-2.3140452,0.80830206)"
         id="text6353-3"
         style="font-size:5.01023px;line-height:1.65;letter-spacing:0.0111937px;word-spacing:0.00447742px;fill:#666666;stroke:#575e63;stroke-width:0;stroke-miterlimit:4;stroke-dasharray:none;stroke-opacity:1" />
      <g
         aria-label="TM"
         id="text6353-5-7"
         style="font-size:3.03538px;line-height:1.65;letter-spacing:0.00678142px;word-spacing:0.00271257px;fill:#1a1a1a;stroke:#1a1a1a;stroke-width:0.1;stroke-miterlimit:4;stroke-dasharray:none;stroke-opacity:1"
         transform="translate(-23.702364,-26.618837)">
        <g
           inkscape:label="Layer 1"
           id="layer1-6"
           transform="translate(12.527337,25.48315)">
          <g
             aria-label="Fullcart.com"
             id="text1895"
             style="font-size:12.1711px;line-height:1.25;stroke-width:0.304278">
            <g
               aria-label="Fullcart"
               id="text1972"
               style="font-size:10.5833px;font-family:'Eras Medium ITC';-inkscape-font-specification:'Eras Medium ITC';stroke-width:0.0805069"
               transform="matrix(1.0691452,0,0,1.0691452,-3.8663862,-1.9894049)">
              <path
                 d="m 28.538955,28.731151 q -0.02584,0 -0.05168,0 -0.02584,0 -0.06718,0 -0.124023,0 -0.211873,-0.07235 -0.08268,-0.07235 -0.113687,-0.227376 -0.01034,-0.04651 -0.0155,-0.175699 -0.0052,-0.124023 -0.0052,-0.335896 0,-0.08785 -0.0155,-0.273884 -0.0155,-0.186035 -0.0155,-0.273884 0,-0.03101 0.01034,-0.10852 0.0155,-0.07752 0.02067,-0.211873 0.01033,-0.124023 0.02067,-0.299722 -0.01034,-0.165365 -0.03617,-0.325561 0.03617,-0.273884 0.08268,-0.558104 0.0052,-0.04134 -0.01034,-0.149861 -0.01033,-0.10852 -0.01033,-0.144693 0,-0.03617 0.0155,-0.103353 0.02067,-0.07235 0.02067,-0.113688 0,-0.05168 -0.02067,-0.08268 -0.0155,-0.031 -0.05168,-0.031 -0.02584,0.01033 -0.06201,0.02584 -0.03101,0.01034 -0.06718,0.02584 -0.03101,0.0052 -0.07752,0.02067 -0.04651,0.0155 -0.113687,0.03617 l -0.04651,-0.03101 -0.0155,-0.05168 q 0.04651,-0.08268 0.09302,-0.160197 0.05168,-0.07751 0.09302,-0.155029 0.04651,-0.06718 0.113687,-0.118855 0.06718,-0.05168 0.139526,-0.103353 0.05684,-0.03101 0.09302,-0.165364 0.04134,-0.134358 0.06201,-0.392739 0.02067,-0.294555 0.04651,-0.48059 0.02584,-0.186034 0.05168,-0.253213 0.02067,-0.06201 0.05168,-0.160197 0,-0.03101 -0.0155,-0.09819 -0.0155,-0.06718 -0.0155,-0.09302 0.03617,-0.237711 0.07235,-0.459919 0.06201,-0.320392 0.258382,-0.640785 0.196369,-0.320393 0.527098,-0.671792 0.341063,-0.335896 0.987016,-0.485757 0.07235,0.0155 0.129191,0.03101 l 0.170532,-0.06201 q 0.02584,0 0.06201,0.0155 0.04134,0.0155 0.103353,0.04651 0.118855,-0.03617 0.206705,-0.05168 0.08785,-0.0155 0.139526,-0.0155 0.320393,0 0.475421,0.08785 0.160197,0.08268 0.160197,0.258381 0,0.09819 -0.0155,0.222208 -0.01033,0.124023 -0.04134,0.268716 -0.03617,0.191203 -0.08268,0.289388 -0.04651,0.09302 -0.103353,0.103352 -0.134358,-0.06201 -0.273884,-0.113688 -0.139526,-0.05684 -0.289387,-0.118855 l -0.186035,0.07235 q -0.08785,-0.01034 -0.191202,-0.02584 -0.08785,0 -0.201537,0.02067 -0.10852,0.0155 -0.227376,0.04651 -0.32556,0.07751 -0.377237,0.21704 -0.05168,0.134358 -0.175699,0.366901 -0.04134,0.05168 -0.134358,0.418578 -0.08785,0.366902 -0.237711,1.043861 -0.0052,0.03101 -0.04134,0.10852 -0.03101,0.07751 -0.03101,0.129191 0,0.07235 0.02584,0.113687 0.02584,0.03617 0.06718,0.04134 0.07751,-0.03617 0.206705,-0.07751 0.134358,-0.04651 0.320392,-0.09819 0.165365,-0.02067 0.330729,-0.05168 0.170531,-0.03617 0.351398,-0.08785 0.05168,0 0.129191,0 0.07751,0 0.180867,0 0.175699,-0.03101 0.356566,-0.06201 0.299722,0 0.449584,0.08785 0.149861,0.08268 0.149861,0.237711 0,0.03101 -0.01033,0.160197 -0.0052,0.124023 -0.02067,0.335895 -0.06718,0.118856 -0.139526,0.242879 -0.04651,0 -0.237711,-0.03617 -0.191202,-0.04134 -0.542601,-0.118855 -0.124023,0.03101 -0.268716,0.05168 -0.144694,0.0155 -0.299722,0.0155 -0.09819,0 -0.28422,0.03101 -0.180867,0.03101 -0.279052,0.03617 -0.06718,0.05168 -0.139526,0.07751 -0.06718,0.02067 -0.134358,0.02067 -0.03617,0 -0.160196,-0.0155 -0.06718,0 -0.129191,0.124023 -0.06201,0.118856 -0.10852,0.37207 l -0.05168,0.222207 0.03617,0.160197 -0.09818,0.614947 q 0,0.03617 0.0052,0.08785 0.01034,0.04651 0.01034,0.09819 -0.06718,0.41341 -0.09819,0.811317 -0.02584,0.39274 -0.02584,0.78548 0,0.08268 -0.03617,0.175699 -0.03617,0.09302 -0.113687,0.186035 z"
                 style="font-family:Mistral;-inkscape-font-specification:Mistral"
                 id="path12675" />
              <path
                 d="m 31.863352,26.483233 q 0.02067,-0.0155 0.03617,-0.03617 0.01033,-0.02067 0.01033,-0.05168 0.08785,-0.07235 0.19637,-0.19637 0.113688,-0.12919 0.253214,-0.299722 0.113687,-0.155029 0.232543,-0.310057 0.124023,-0.155029 0.263549,-0.310058 0.113688,-0.155029 0.222208,-0.320393 0.113687,-0.170532 0.237711,-0.330728 0.206705,-0.09819 0.320392,-0.139526 0.113688,-0.04134 0.155029,-0.04134 0.07751,0 0.118856,0.05168 0.04134,0.04651 0.04134,0.139526 0,0.03101 -0.0155,0.08785 -0.0155,0.05684 -0.03617,0.124023 -0.03617,0.103352 -0.08268,0.211873 -0.04134,0.180867 -0.09819,0.361733 -0.05684,0.180867 -0.10852,0.356567 -0.05168,0.222208 -0.08268,0.408242 -0.02584,0.186035 -0.02584,0.341064 0,0.289387 0.02584,0.428913 0.03101,0.139526 0.08268,0.124023 0.05168,-0.03101 0.129191,-0.07235 0.07751,-0.04651 0.180867,-0.103353 0.09302,-0.09818 0.206705,-0.242878 0.118855,-0.144694 0.284219,-0.341063 0.09302,-0.144694 0.191203,-0.28422 0.03617,-0.04134 0.08268,-0.09819 0.05168,-0.05684 0.09302,-0.113688 0.09818,-0.248046 0.21704,-0.366901 0.124023,-0.124023 0.273884,-0.124023 0.134359,0 0.211873,0.03617 0.08268,0.03101 0.113688,0.09819 0.0155,0.03617 0.02584,0.124023 0.01034,0.08785 0.01034,0.232543 0,0.05684 0.02067,0.165364 0.02584,0.108521 0.02584,0.160197 0,0.191202 0.06718,0.289387 0.06718,0.09302 0.206705,0.09302 0.04134,0 0.09819,-0.0155 0.05684,-0.0155 0.113688,-0.03617 l 0.206705,0.475422 q -0.310058,0.186034 -0.511595,0.284219 -0.19637,0.09302 -0.294555,0.09302 -0.258381,0 -0.423745,-0.134358 -0.165364,-0.134358 -0.242879,-0.397907 -0.01033,-0.06201 -0.04651,-0.124023 -0.03101,-0.06201 -0.08268,-0.124023 -0.04651,0.05168 -0.108521,0.124023 -0.05684,0.07235 -0.124023,0.144693 -0.139525,0.170532 -0.279051,0.335896 -0.139526,0.160196 -0.28422,0.320393 -0.180867,0.211873 -0.366901,0.310058 -0.180867,0.09302 -0.341064,0.09302 -0.237711,0 -0.382404,-0.139526 -0.144694,-0.144694 -0.186035,-0.423746 -0.04651,-0.268716 -0.06201,-0.418577 -0.0155,-0.149861 -0.0052,-0.180867 -0.01033,-0.149861 -0.03101,-0.227376 -0.0155,-0.07751 -0.05168,-0.07751 l -0.03101,0.0155 -0.294554,0.30489 q -0.0155,0.03617 -0.05168,0.09302 -0.03617,0.05168 -0.09819,0.129191 -0.02067,-0.07752 -0.07235,-0.191203 -0.05168,-0.113687 -0.134359,-0.284219 z"
                 style="font-family:Mistral;-inkscape-font-specification:Mistral"
                 id="path12677" />
              <path
                 d="m 36.169599,26.483233 q 0.04651,-0.05168 0.09302,-0.124023 0.04651,-0.07751 0.124023,-0.165364 l 0.341064,-0.299723 q 0.02067,-0.0155 0.02067,-0.04134 0.0052,-0.02584 0.0052,-0.07235 -0.0052,-0.06718 -0.0155,-0.10852 0,-0.118856 0.04651,-0.397908 0.04651,-0.279052 0.08268,-0.335895 l -0.03101,-0.09819 q 0.06718,-0.346231 0.186035,-0.754474 0.124023,-0.41341 0.279051,-0.893999 0.05168,-0.08268 0.108521,-0.206705 0.05684,-0.129191 0.12919,-0.289387 0.08785,-0.268717 0.232543,-0.563272 0.144694,-0.294555 0.325561,-0.604612 0.242878,-0.408243 0.428913,-0.614948 0.191202,-0.206705 0.341063,-0.206705 0.299723,0 0.408243,0.118856 0.113688,0.113687 0.113688,0.43408 0,0.08268 -0.03101,0.258382 -0.02584,0.170531 -0.02584,0.258381 0,0.08785 -0.05684,0.248046 -0.05684,0.160196 -0.05684,0.294555 -0.0052,0.04134 -0.02584,0.08268 l 0.0052,0.07235 q -0.02067,0.07235 -0.06201,0.175699 -0.04134,0.103352 -0.10852,0.248046 -0.03617,0.129191 -0.09302,0.299722 -0.05684,0.170532 -0.134358,0.372069 -0.03101,0.05168 -0.08268,0.129191 -0.04651,0.07235 -0.103352,0.165364 -0.0155,0.06718 -0.05168,0.155029 -0.03617,0.08785 -0.09819,0.206705 -0.03101,0.06201 -0.08268,0.134358 -0.05168,0.07235 -0.124023,0.186035 -0.03101,0.05168 -0.06718,0.129191 -0.03617,0.07751 -0.08268,0.175699 -0.05684,0.08785 -0.149861,0.21704 -0.09302,0.129191 -0.211873,0.30489 -0.160196,0.28422 -0.330728,0.542601 0,0.50126 0.19637,0.759641 0.201537,0.253214 0.599445,0.253214 0.02584,0 0.155029,-0.03617 0.12919,-0.03617 0.356566,-0.113687 0.06718,-0.04134 0.160196,-0.113688 0.09302,-0.07752 0.211873,-0.180867 l 0.201537,0.475422 q -0.134358,0.118855 -0.268716,0.242878 -0.134359,0.124023 -0.273884,0.242879 -0.160197,0.134358 -0.325561,0.206705 -0.165364,0.06718 -0.32556,0.06718 -0.08268,0 -0.253214,-0.0155 -0.170532,-0.02067 -0.258381,-0.02067 -0.289388,0 -0.48059,-0.232543 -0.186034,-0.232543 -0.263549,-0.697629 -0.01034,-0.04651 -0.03101,-0.08268 -0.0155,-0.03617 -0.06201,-0.08268 -0.06718,0.06718 -0.160196,0.160197 -0.08785,0.09302 -0.217041,0.211873 z m 2.464958,-4.056587 -0.03617,-0.02067 q -0.289387,0.279052 -0.439249,0.527098 -0.144693,0.248046 -0.144693,0.48059 0,0.03617 -0.03617,0.124023 -0.03101,0.08268 -0.09819,0.21704 -0.08268,0.160196 -0.170532,0.351399 -0.09819,0.289387 -0.149861,0.470254 -0.05168,0.180867 -0.05168,0.258381 l 0.03101,0.04134 q 0.04651,-0.0052 0.113688,-0.09302 0.06718,-0.08785 0.155029,-0.258382 0.04134,-0.09302 0.118855,-0.21704 0.07751,-0.124023 0.1757,-0.294555 0.08268,-0.113687 0.263549,-0.583941 0.180866,-0.470255 0.196369,-0.599445 0.0052,-0.103353 0.02584,-0.201538 0.02584,-0.103352 0.04651,-0.201537 z"
                 style="font-family:Mistral;-inkscape-font-specification:Mistral"
                 id="path12679" />
              <path
                 d="m 39.090922,26.483233 q 0.04651,-0.05168 0.09302,-0.124023 0.04651,-0.07751 0.124023,-0.165364 l 0.341064,-0.299723 q 0.02067,-0.0155 0.02067,-0.04134 0.0052,-0.02584 0.0052,-0.07235 -0.0052,-0.06718 -0.0155,-0.10852 0,-0.118856 0.04651,-0.397908 0.04651,-0.279052 0.08268,-0.335895 l -0.03101,-0.09819 q 0.06718,-0.346231 0.186034,-0.754474 0.124023,-0.41341 0.279052,-0.893999 0.05168,-0.08268 0.10852,-0.206705 0.05684,-0.129191 0.129191,-0.289387 0.08785,-0.268717 0.232543,-0.563272 0.144694,-0.294555 0.325561,-0.604612 0.242878,-0.408243 0.428913,-0.614948 0.191202,-0.206705 0.341063,-0.206705 0.299723,0 0.408243,0.118856 0.113687,0.113687 0.113687,0.43408 0,0.08268 -0.03101,0.258382 -0.02584,0.170531 -0.02584,0.258381 0,0.08785 -0.05684,0.248046 -0.05684,0.160196 -0.05684,0.294555 -0.0052,0.04134 -0.02584,0.08268 l 0.0052,0.07235 q -0.02067,0.07235 -0.06201,0.175699 -0.04134,0.103352 -0.10852,0.248046 -0.03617,0.129191 -0.09302,0.299722 -0.05684,0.170532 -0.134358,0.372069 -0.03101,0.05168 -0.08268,0.129191 -0.04651,0.07235 -0.103353,0.165364 -0.0155,0.06718 -0.05168,0.155029 -0.03617,0.08785 -0.09819,0.206705 -0.03101,0.06201 -0.08268,0.134358 -0.05168,0.07235 -0.124023,0.186035 -0.03101,0.05168 -0.06718,0.129191 -0.03617,0.07751 -0.08268,0.175699 -0.05684,0.08785 -0.149861,0.21704 -0.09302,0.129191 -0.211873,0.30489 -0.160196,0.28422 -0.330728,0.542601 0,0.50126 0.19637,0.759641 0.201537,0.253214 0.599445,0.253214 0.02584,0 0.155028,-0.03617 0.129191,-0.03617 0.356567,-0.113687 0.06718,-0.04134 0.160196,-0.113688 0.09302,-0.07752 0.211873,-0.180867 l 0.201537,0.475422 q -0.134358,0.118855 -0.268716,0.242878 -0.134359,0.124023 -0.273885,0.242879 -0.160196,0.134358 -0.32556,0.206705 -0.165364,0.06718 -0.325561,0.06718 -0.08268,0 -0.253213,-0.0155 -0.170532,-0.02067 -0.258382,-0.02067 -0.289387,0 -0.480589,-0.232543 -0.186034,-0.232543 -0.263549,-0.697629 -0.01034,-0.04651 -0.03101,-0.08268 -0.0155,-0.03617 -0.06201,-0.08268 -0.06718,0.06718 -0.160197,0.160197 -0.08785,0.09302 -0.21704,0.211873 z m 2.464958,-4.056587 -0.03617,-0.02067 q -0.289388,0.279052 -0.439249,0.527098 -0.144693,0.248046 -0.144693,0.48059 0,0.03617 -0.03617,0.124023 -0.03101,0.08268 -0.09819,0.21704 -0.08268,0.160196 -0.170531,0.351399 -0.09819,0.289387 -0.149861,0.470254 -0.05168,0.180867 -0.05168,0.258381 l 0.03101,0.04134 q 0.04651,-0.0052 0.113688,-0.09302 0.06718,-0.08785 0.155029,-0.258382 0.04134,-0.09302 0.118855,-0.21704 0.07751,-0.124023 0.175699,-0.294555 0.08268,-0.113687 0.263549,-0.583941 0.180867,-0.470255 0.19637,-0.599445 0.0052,-0.103353 0.02584,-0.201538 0.02584,-0.103352 0.04651,-0.201537 z"
                 style="font-family:Mistral;-inkscape-font-specification:Mistral"
                 id="path12681" />
              <path
                 d="m 42.012245,26.483233 0.04651,-0.04134 q 0.0052,-0.05684 0.07235,-0.134358 0.06718,-0.07752 0.191202,-0.180867 0.07751,-0.05684 0.160197,-0.10852 0.08785,-0.05168 0.165364,-0.113688 0.32556,-0.279052 0.63045,-0.537433 0.1757,-0.155029 0.351399,-0.263549 0.175699,-0.113688 0.330728,-0.180867 0.10852,-0.139526 0.403075,-0.28422 0.299722,-0.144693 0.485757,-0.144693 0.07235,0 0.113688,0.04134 0.04651,0.04134 0.05684,0.103352 v 0.28422 q 0,0.149861 -0.08785,0.268716 -0.08268,0.113688 -0.253214,0.211873 -0.113688,0.05168 -0.227375,0.113688 -0.113688,0.06201 -0.227376,0.113688 -0.04134,0.05168 -0.222208,0.196369 -0.175699,0.139526 -0.480589,0.377237 -0.139526,0.10852 -0.232543,0.19637 -0.09302,0.08268 -0.129191,0.134358 -0.05168,0.09819 -0.08268,0.217041 -0.02584,0.118855 -0.02584,0.273884 0,0.118855 0.03617,0.206705 0.03617,0.08268 0.10852,0.134358 0.05168,0.03617 0.139526,0.07235 0.09302,0.03617 0.227376,0.07235 0.07751,-0.03101 0.201537,-0.05684 0.129191,-0.03101 0.28422,-0.07752 0.175699,-0.103352 0.356566,-0.21704 0.186035,-0.113688 0.366902,-0.232543 0.02584,-0.0155 0.06201,-0.03101 0.04134,-0.02067 0.08268,-0.05684 0.05168,-0.06718 0.139526,-0.155029 0.09302,-0.08785 0.222208,-0.201537 0.206705,0.449583 0.206705,0.475422 -0.191202,0.155028 -0.387572,0.320392 -0.19637,0.160197 -0.449584,0.263549 -0.08268,0.06718 -0.139525,0.124023 -0.258382,0.258382 -0.604613,0.387572 -0.341063,0.134359 -0.780311,0.134359 -0.09819,0 -0.1757,-0.0155 -0.07751,-0.0155 -0.12919,-0.04134 -0.155029,-0.103353 -0.263549,-0.180867 -0.113688,-0.08268 -0.191203,-0.155029 -0.07751,-0.07751 -0.113687,-0.144693 -0.04651,-0.07235 -0.06201,-0.1757 -0.02067,-0.103352 -0.02067,-0.253213 0,-0.04134 0.02584,-0.134359 0.02584,-0.09302 0.02584,-0.12919 -0.03617,-0.113688 -0.08785,-0.232544 -0.05168,-0.118855 -0.118855,-0.242878 z"
                 style="font-family:Mistral;-inkscape-font-specification:Mistral"
                 id="path12683" />
              <path
                 d="M 45.445163,26.255857 45.915417,25.9458 q 0.02584,-0.02584 0.06201,-0.06718 0.03617,-0.04651 0.08268,-0.129191 0.03617,-0.06718 0.09302,-0.113688 0.06201,-0.04651 0.139526,-0.08268 0.04134,-0.05168 0.118855,-0.129191 0.07751,-0.07751 0.19637,-0.180866 0.05684,-0.03101 0.144694,-0.08785 0.08785,-0.06201 0.191202,-0.160197 0.470254,-0.444415 0.821653,-0.666623 0.356566,-0.222208 0.599444,-0.222208 0.134359,0 0.19637,0.05684 0.06718,0.05684 0.06718,0.160196 0,0.10852 -0.04134,0.191202 -0.03617,0.08268 -0.118855,0.139526 -0.129191,0.09302 -0.279052,0.206705 -0.08268,0.10852 -0.201537,0.232543 -0.118856,0.118856 -0.279052,0.237711 -0.05168,0.06718 -0.08785,0.118856 -0.02584,0.02584 -0.09819,0.09302 -0.07235,0.06718 -0.191202,0.155029 -0.05168,0.113687 -0.227376,0.294554 -0.170531,0.180867 -0.459918,0.434081 -0.03617,0.03617 -0.129191,0.165364 -0.09302,0.129191 -0.242879,0.341063 l 0.03617,0.04651 q 0.113688,-0.03617 0.237711,-0.124023 0.124023,-0.08785 0.273884,-0.232543 0.175699,-0.160197 0.284219,-0.258381 0.113688,-0.103353 0.160197,-0.134359 0.03617,-0.02067 0.07235,-0.04134 0.03617,-0.02067 0.08268,-0.05168 0.23771,-0.28422 0.444415,-0.418578 0.206706,-0.139526 0.382405,-0.139526 0.10852,0 0.165364,0.08785 0.05684,0.08268 0.06718,0.253214 -0.01034,0.258381 -0.01034,0.496092 -0.0052,0.165364 0.08785,0.299722 0.09819,0.129191 0.253214,0.129191 0.04651,0 0.08785,-0.02584 0.04651,-0.02584 0.09302,-0.06718 0.03617,-0.04651 0.06718,-0.08785 0.03617,-0.04134 0.07235,-0.08268 0.02067,-0.01033 0.05684,-0.03617 0.04134,-0.02584 0.07751,-0.06201 0.07235,0.155029 0.118856,0.273884 0.05168,0.113688 0.07751,0.201538 -0.118855,0.10852 -0.237711,0.227375 -0.113687,0.113688 -0.242878,0.217041 -0.155029,0.118855 -0.299722,0.180866 -0.144694,0.05684 -0.289388,0.05684 -0.335895,0 -0.516762,-0.191202 -0.180867,-0.191202 -0.211873,-0.578774 0,-0.04651 -0.0155,-0.09302 -0.01033,-0.05168 -0.05168,-0.103353 -0.02584,0.02584 -0.05684,0.05684 -0.03101,0.02584 -0.07235,0.07235 -0.06718,0.05168 -0.170531,0.12919 -0.09819,0.07752 -0.232544,0.186035 -0.180867,0.186035 -0.30489,0.30489 -0.124023,0.118855 -0.175699,0.170532 -0.103352,0.08785 -0.242878,0.175699 -0.134359,0.08785 -0.30489,0.180867 -0.108521,0.05684 -0.186035,0.08785 -0.07751,0.03617 -0.113688,0.03617 -0.248046,0 -0.366901,-0.118855 -0.118856,-0.124023 -0.118856,-0.377237 0,-0.139526 0.06201,-0.263549 0.05684,-0.129191 0.175699,-0.248046 0.01034,-0.06718 0.01034,-0.10852 0,-0.02584 -0.0155,-0.05168 -0.01034,-0.03101 -0.03101,-0.06718 -0.03101,-0.07235 -0.06718,-0.160196 -0.04134,-0.09302 -0.08785,-0.19637 0.02067,-0.02067 0.06201,-0.07751 0.03617,-0.06201 0.08785,-0.149862 z"
                 style="font-family:Mistral;-inkscape-font-specification:Mistral"
                 id="path12685" />
              <path
                 d="m 49.260485,26.483233 q 0.08268,-0.10852 0.165364,-0.227376 0.377237,-0.310057 0.614948,-0.594277 0.242878,-0.289387 0.351399,-0.537433 l -0.05168,-0.248046 q 0.06718,-0.129191 0.330728,-0.30489 0.268717,-0.175699 0.434081,-0.175699 0.175699,0 0.294555,0.103352 0.124023,0.103353 0.237711,0.217041 0.05684,0.03617 0.08268,0.05684 0.206705,0.155029 0.310057,0.428914 0.103353,0.273884 0.103353,0.666623 0,0.206705 -0.160197,0.594277 -0.160196,0.382405 -0.160196,0.578775 0,0.02584 0.0155,0.04134 0.02067,0.0155 0.05168,0.0155 0.06718,0 0.160196,-0.05684 0.09302,-0.06201 0.201538,-0.165364 0.273884,-0.268717 0.330728,-0.294555 0.05684,-0.03101 0.139526,-0.09819 0.04134,0.103352 0.09819,0.222208 0.05684,0.118855 0.10852,0.253214 -0.04651,0.04134 -0.10852,0.09819 -0.05684,0.05684 -0.139526,0.12919 -0.175699,0.129191 -0.459919,0.315225 -0.279052,0.180867 -0.671791,0.418578 -0.103353,0.06718 -0.237711,0.10852 -0.21704,0 -0.325561,-0.06201 -0.10852,-0.06718 -0.10852,-0.211873 0,-0.05684 0.02067,-0.129191 0.02584,-0.07751 0.06718,-0.165364 0.03101,-0.06718 0.06718,-0.134358 0.03617,-0.07235 0.06201,-0.144693 0.113687,-0.325561 0.170531,-0.604613 0.06201,-0.279052 0.06201,-0.50126 0,-0.273884 -0.08785,-0.418577 -0.08268,-0.144694 -0.253214,-0.165364 -0.113687,0.06201 -0.248046,0.175699 -0.134358,0.113688 -0.273884,0.284219 -0.149861,0.186035 -0.268717,0.30489 -0.118855,0.118856 -0.196369,0.160197 -0.04651,0.07751 -0.149862,0.175699 -0.103352,0.09819 -0.273884,0.211873 -0.01034,0.02067 -0.03101,0.06201 -0.02067,0.04134 -0.06718,0.09302 -0.04134,-0.118856 -0.09302,-0.232544 -0.05168,-0.118855 -0.113688,-0.242878 z"
                 style="font-family:Mistral;-inkscape-font-specification:Mistral"
                 id="path12687" />
              <path
                 d="m 52.714074,26.483233 0.02067,-0.04134 q 0.03101,-0.04134 0.08268,-0.103353 0.04651,-0.06201 0.113688,-0.144693 0.366902,-0.341064 0.713133,-0.811318 0.351398,-0.475421 0.692462,-1.090369 0.04134,-0.05684 0.09302,-0.149861 0.05168,-0.09302 0.113688,-0.232543 0,-0.03101 -0.0155,-0.04651 -0.0155,-0.0155 -0.05168,-0.0155 -0.03101,0 -0.103353,0.02067 -0.06718,0.0155 -0.103353,0.0155 h -0.645953 q -0.04134,0 -0.139526,-0.0052 -0.09302,-0.0052 -0.134358,-0.0052 -0.05168,-0.02584 -0.09819,-0.04134 -0.04134,-0.02067 -0.08268,-0.04134 -0.06201,-0.02067 -0.09819,-0.05168 -0.03101,-0.03617 -0.03101,-0.08268 0,-0.330728 0.06718,-0.506427 0.07235,-0.1757 0.217041,-0.1757 0.144693,0 0.268716,0.0155 0.129191,0.01034 0.227376,0.03101 0.07751,-0.0155 0.144693,-0.03101 0.139526,0 0.237711,0.01034 0.09819,0.01033 0.149861,0.02584 0.06718,-0.0155 0.129191,-0.02584 0.06718,-0.0155 0.144694,-0.03101 l 0.170531,0.05168 q 0.180867,-0.02067 0.382405,-0.506427 0.206705,-0.485757 0.439248,-0.485757 0.124023,0 0.191202,0.07751 0.06718,0.07751 0.06718,0.227376 0,0.118855 -0.07235,0.315225 -0.06718,0.191202 -0.07752,0.289387 0.01034,0.02067 0.02584,0.04651 0.02067,0.02067 0.05684,0.05168 0.03101,0.02067 0.04134,0.07235 0.0155,0.04651 0.0155,0.118855 0,0.310058 -0.03101,0.480589 -0.02584,0.165364 -0.08785,0.170532 l -0.351399,0.07235 q -0.01033,0.05168 -0.02584,0.129191 -0.0155,0.07235 -0.04134,0.170531 -0.08785,0.258382 -0.19637,0.656289 -0.10852,0.397907 -0.242878,0.940508 -0.08268,0.434081 -0.129191,0.702797 -0.04134,0.268717 -0.04134,0.361734 0,0.08268 0.02584,0.124023 0.02584,0.04134 0.07751,0.04134 0.03101,0 0.222208,-0.149861 0.19637,-0.149861 0.542601,-0.444416 l 0.201538,0.475422 q -0.05168,0.05684 -0.144694,0.134358 -0.09302,0.07751 -0.222208,0.165364 -0.05168,0.05684 -0.12919,0.129191 -0.07752,0.06718 -0.170532,0.160196 -0.09302,0.103353 -0.186035,0.206705 -0.08785,0.103353 -0.180867,0.201538 -0.124023,0.134358 -0.242878,0.191202 -0.118856,0.06201 -0.222208,0.06201 -0.227376,0 -0.341063,-0.134358 -0.108521,-0.134358 -0.108521,-0.408243 0,-0.299722 0.02067,-0.516762 0.02067,-0.222208 0.06718,-0.356566 0.02067,-0.04134 0.03101,-0.07235 0,-0.05168 0.0155,-0.139526 0.0155,-0.08785 0.03617,-0.206705 0.03101,-0.201538 0.06718,-0.403075 0.05684,-0.124023 0.118856,-0.263549 0,-0.02584 -0.04134,-0.04651 l -0.05168,0.03101 q -0.07751,0.124023 -0.201537,0.263549 -0.124023,0.134358 -0.294555,0.284219 -0.263549,0.253214 -0.537433,0.511596 -0.0155,0.02584 -0.05684,0.07751 -0.04134,0.05168 -0.09302,0.129191 -0.02584,-0.06201 -0.06201,-0.155029 -0.04134,-0.09819 -0.08268,-0.222208 -0.01034,-0.03101 -0.02584,-0.05684 -0.0155,-0.02584 -0.03617,-0.04134 z"
                 style="font-family:Mistral;-inkscape-font-specification:Mistral"
                 id="path12689" />
            </g>
            <path
               d="m 57.647367,27.781706 q 0,0.0832 -0.04754,0.160459 -0.0416,0.07726 -0.130745,0.148573 -0.02971,0.08914 -0.07726,0.130744 -0.0416,0.04754 -0.112915,0.04754 -0.24366,0 -0.416005,-0.172344 -0.172344,-0.172345 -0.273374,-0.511091 l 0.0416,-0.0416 -0.05943,-0.154516 q 0.02971,-0.09509 0.05349,-0.18423 0.02377,-0.08914 0.04754,-0.178288 0.02972,-0.112915 0.09509,-0.160459 0.07132,-0.05349 0.160459,-0.05349 0.154516,0 0.28526,0.0832 0.136687,0.0832 0.243659,0.255546 0.10103,0.154515 0.142631,0.314974 0.04754,0.154516 0.04754,0.314975 z"
               style="font-family:Mistral;-inkscape-font-specification:Mistral"
               id="path31400" />
            <path
               d="m 62.749389,27.264436 q 0,0.134359 -0.01033,0.227376 -0.0052,0.08785 -0.02067,0.149861 -0.01033,0.06201 -0.03101,0.103353 -0.0155,0.03617 -0.07751,0.09819 -0.06201,0.05684 -0.211873,0.144693 -0.149861,0.08268 -0.341063,0.149861 -0.191202,0.06718 -0.418578,0.108521 -0.222208,0.04134 -0.459919,0.04134 -0.532265,0 -0.945675,-0.165365 -0.408243,-0.165364 -0.687295,-0.485756 -0.279052,-0.325561 -0.423745,-0.790647 -0.139526,-0.465087 -0.139526,-1.064531 0,-0.692462 0.170532,-1.193722 0.175699,-0.506428 0.485756,-0.837156 0.310058,-0.330728 0.733803,-0.490924 0.423746,-0.160197 0.930173,-0.160197 0.206705,0 0.403075,0.03617 0.201538,0.03617 0.372069,0.09819 0.1757,0.06201 0.310058,0.139525 0.139526,0.07752 0.19637,0.134359 0.05684,0.05684 0.07751,0.09819 0.02584,0.03617 0.03617,0.09819 0.0155,0.06201 0.02067,0.155028 0.01034,0.08785 0.01034,0.217041 0,0.299722 -0.05168,0.423745 -0.05168,0.118856 -0.134358,0.118856 -0.08785,0 -0.186035,-0.07235 -0.09819,-0.07235 -0.232543,-0.160197 -0.134358,-0.08785 -0.320393,-0.160196 -0.186034,-0.07235 -0.444416,-0.07235 -0.506427,0 -0.775144,0.39274 -0.268716,0.387572 -0.268716,1.142045 0,0.372069 0.06718,0.656289 0.06718,0.284219 0.19637,0.475422 0.134358,0.191202 0.330728,0.289387 0.201537,0.09302 0.465086,0.09302 0.268717,0 0.459919,-0.07751 0.19637,-0.08268 0.341063,-0.180867 0.144694,-0.09819 0.242879,-0.1757 0.09819,-0.08268 0.165364,-0.08268 0.04651,0 0.07751,0.02584 0.03101,0.02584 0.04651,0.09819 0.02067,0.06718 0.03101,0.1757 0.01033,0.10852 0.01033,0.279051 z"
               style="font-weight:bold;font-size:10.5833px;font-family:Calibri;-inkscape-font-specification:'Calibri Bold'"
               id="path31402" />
            <path
               d="m 68.29942,25.646969 q 0,0.58911 -0.155029,1.074867 -0.155029,0.485757 -0.470254,0.837155 -0.315225,0.351399 -0.790647,0.542601 -0.475422,0.191202 -1.11104,0.191202 -0.614947,0 -1.069698,-0.170532 -0.454751,-0.170531 -0.754474,-0.496092 -0.299722,-0.32556 -0.444416,-0.800982 -0.144693,-0.475422 -0.144693,-1.085201 0,-0.58911 0.155029,-1.074867 0.160196,-0.490924 0.475421,-0.837155 0.315225,-0.351399 0.785479,-0.542601 0.475422,-0.191202 1.11104,-0.191202 0.620115,0 1.074867,0.170531 0.454751,0.165364 0.749305,0.490925 0.299723,0.32556 0.444416,0.800982 0.144694,0.475422 0.144694,1.090369 z m -1.338415,0.05168 q 0,-0.341064 -0.05684,-0.625283 -0.05168,-0.289387 -0.180867,-0.50126 -0.129191,-0.211873 -0.346231,-0.330728 -0.211873,-0.118856 -0.537433,-0.118856 -0.289388,0 -0.506428,0.108521 -0.21704,0.103352 -0.356566,0.310057 -0.139526,0.201538 -0.211873,0.490925 -0.06718,0.284219 -0.06718,0.651121 0,0.341063 0.05684,0.63045 0.05684,0.28422 0.180867,0.496092 0.129191,0.211873 0.346231,0.330728 0.21704,0.113688 0.537433,0.113688 0.294555,0 0.511595,-0.103352 0.21704,-0.108521 0.356566,-0.310058 0.139526,-0.201537 0.206705,-0.485757 0.06718,-0.289387 0.06718,-0.656288 z"
               style="font-weight:bold;font-size:10.5833px;font-family:Calibri;-inkscape-font-specification:'Calibri Bold'"
               id="path31404" />
            <path
               d="m 76.660639,27.998239 q 0,0.05168 -0.03101,0.09302 -0.03101,0.03617 -0.103352,0.06201 -0.07235,0.02584 -0.19637,0.03617 -0.124023,0.0155 -0.315225,0.0155 -0.19637,0 -0.320393,-0.0155 -0.124023,-0.01034 -0.201538,-0.03617 -0.07235,-0.02584 -0.103352,-0.06201 -0.02584,-0.04134 -0.02584,-0.09302 v -2.733674 q 0,-0.232543 -0.04651,-0.423746 -0.04134,-0.191202 -0.134358,-0.32556 -0.08785,-0.139526 -0.227376,-0.211873 -0.134358,-0.07751 -0.32556,-0.07751 -0.232543,0 -0.470254,0.180867 -0.237711,0.180867 -0.516763,0.527098 v 3.064402 q 0,0.05168 -0.03101,0.09302 -0.03101,0.03617 -0.10852,0.06201 -0.07235,0.02584 -0.19637,0.03617 -0.124023,0.0155 -0.310057,0.0155 -0.191203,0 -0.315226,-0.0155 -0.124023,-0.01034 -0.201537,-0.03617 -0.07235,-0.02584 -0.103353,-0.06201 -0.031,-0.04134 -0.031,-0.09302 v -2.733674 q 0,-0.232543 -0.04651,-0.423746 -0.04134,-0.191202 -0.129191,-0.32556 -0.08785,-0.139526 -0.227375,-0.211873 -0.139526,-0.07751 -0.325561,-0.07751 -0.237711,0 -0.475421,0.180867 -0.237711,0.180867 -0.511595,0.527098 v 3.064402 q 0,0.05168 -0.03101,0.09302 -0.03101,0.03617 -0.10852,0.06201 -0.07235,0.02584 -0.19637,0.03617 -0.124023,0.0155 -0.315225,0.0155 -0.191203,0 -0.315226,-0.0155 -0.124023,-0.01034 -0.201537,-0.03617 -0.07235,-0.02584 -0.103353,-0.06201 -0.031,-0.04134 -0.031,-0.09302 v -4.609523 q 0,-0.05168 0.02584,-0.08785 0.02584,-0.04134 0.09302,-0.06718 0.06718,-0.02584 0.170532,-0.03617 0.10852,-0.0155 0.268716,-0.0155 0.165364,0 0.273885,0.0155 0.10852,0.01033 0.165364,0.03617 0.06201,0.02584 0.08785,0.06718 0.02584,0.03617 0.02584,0.08785 v 0.532266 q 0.382405,-0.41341 0.759642,-0.620115 0.382404,-0.206705 0.795814,-0.206705 0.28422,0 0.511595,0.06201 0.227376,0.05684 0.403075,0.170532 0.180867,0.10852 0.310058,0.263549 0.12919,0.155029 0.21704,0.346231 0.206705,-0.222208 0.403075,-0.382405 0.201537,-0.160196 0.392739,-0.258381 0.19637,-0.103352 0.387572,-0.149861 0.19637,-0.05168 0.397908,-0.05168 0.459919,0 0.775144,0.155028 0.315225,0.155029 0.506427,0.423746 0.19637,0.263549 0.279052,0.620115 0.08268,0.356566 0.08268,0.754474 z"
               style="font-weight:bold;font-size:10.5833px;font-family:Calibri;-inkscape-font-specification:'Calibri Bold'"
               id="path31406" />
          </g>
          <g
             id="g890"
             style="font-size:17.6678px;line-height:1.25;fill:#5b2bd6;fill-opacity:1;stroke-width:0.441695"
             transform="matrix(0.22589069,0,0,-0.22589069,-72.726857,53.639863)">
            <g
               id="g896"
               style="fill:#5b2bd6;fill-opacity:1">
              <g
                 id="g898"
                 style="fill:#5b2bd6;fill-opacity:1">
                <path
                   d="m 362.702,180.363 c -3.475,0 -6.293,-2.818 -6.293,-6.294 v 0 -8.792 h 8.793 c 3.475,0 6.292,2.818 6.292,6.294 v 0 8.792 z"
                   style="fill:#5b2bd6;fill-opacity:1;stroke:none"
                   id="path908" />
              </g>
            </g>
          </g>
          <g
             id="g910"
             transform="matrix(0.22589069,0,0,-0.22589069,-72.726857,53.639863)"
             style="font-size:17.6678px;line-height:1.25;fill:#5b2bd6;fill-opacity:1;stroke-width:0.441695">
            <g
               id="g912"
               style="fill:#5b2bd6;fill-opacity:1">
              <g
                 id="g918"
                 style="fill:#5b2bd6;fill-opacity:1">
                <g
                   id="g920"
                   style="fill:#5b2bd6;fill-opacity:1">
                  <path
                     d="m 413.895,160.973 c 0,0 -1.072,-4.703 -3.835,-11.894 v 0 h 2.279 v -8.036 c 0,-3.176 -2.575,-5.751 -5.752,-5.751 v 0 h -2.751 c -0.597,-1.15 -1.226,-2.316 -1.89,-3.501 v 0 c 0.72,0.324 1.516,0.508 2.356,0.508 v 0 h 8.037 v -8.035 c 0,-3.177 -2.575,-5.752 -5.752,-5.752 v 0 h -8.036 v 7.556 c -4.047,-6.438 -9.044,-13.123 -15.183,-19.45 v 0 h 22.242 c 7.939,0 14.631,5.917 15.602,13.795 v 0 l 3.475,35.022 c 0.295,2.967 -2.034,5.538 -5.014,5.538 v 0 z"
                     style="fill:#5b2bd6;fill-opacity:1;stroke:none"
                     id="path930" />
                </g>
              </g>
            </g>
          </g>
          <g
             id="g932"
             transform="matrix(0.22589069,0,0,-0.22589069,-72.726857,53.639863)"
             style="font-size:17.6678px;line-height:1.25;fill:#5b2bd6;fill-opacity:1;stroke-width:0.441695">
            <g
               id="g934"
               style="fill:#5b2bd6;fill-opacity:1">
              <g
                 id="g940"
                 style="fill:#5b2bd6;fill-opacity:1">
                <g
                   id="g942"
                   style="fill:#5b2bd6;fill-opacity:1">
                  <path
                     d="m 377.154,181.162 c -1.737,0 -3.146,-1.408 -3.146,-3.146 v 0 -4.396 h 4.396 c 1.739,0 3.147,1.408 3.147,3.146 v 0 4.396 z"
                     style="fill:#5b2bd6;fill-opacity:1;stroke:none"
                     id="path952" />
                </g>
              </g>
            </g>
          </g>
          <g
             id="g954"
             transform="matrix(0.22589069,0,0,-0.22589069,-72.726857,53.639863)"
             style="font-size:17.6678px;line-height:1.25;fill:#5b2bd6;fill-opacity:1;stroke-width:0.441695">
            <g
               id="g956"
               style="fill:#5b2bd6;fill-opacity:1">
              <g
                 id="g962"
                 style="fill:#5b2bd6;fill-opacity:1">
                <g
                   id="g964"
                   style="fill:#5b2bd6;fill-opacity:1">
                  <path
                     d="m 375.386,197.28 c -2.149,0 -3.892,-1.742 -3.892,-3.893 v 0 -5.436 h 5.439 c 2.149,0 3.891,1.741 3.891,3.891 v 0 5.438 z"
                     style="fill:#5b2bd6;fill-opacity:1;stroke:none"
                     id="path974" />
                </g>
              </g>
            </g>
          </g>
          <g
             id="g976"
             transform="matrix(0.22589069,0,0,-0.22589069,-72.726857,53.639863)"
             style="font-size:17.6678px;line-height:1.25;fill:#5b2bd6;fill-opacity:1;stroke-width:0.441695">
            <g
               id="g978"
               style="fill:#5b2bd6;fill-opacity:1">
              <g
                 id="g984"
                 style="fill:#5b2bd6;fill-opacity:1">
                <g
                   id="g986"
                   style="fill:#5b2bd6;fill-opacity:1">
                  <path
                     d="m 338.145,160.973 c -2.98,0 -5.309,-2.571 -5.015,-5.538 v 0 l 3.476,-35.022 c 0.971,-7.878 7.664,-13.795 15.601,-13.795 v 0 h 11.745 c 0,0 7.591,6.552 16.908,15.43 v 0 4.5 c 0,3.175 2.575,5.751 5.752,5.751 v 0 h 4.667 c 2.48,2.531 4.935,5.112 7.272,7.679 v 0 3.349 c 0,3.177 2.575,5.752 5.751,5.752 v 0 h 2.027 c 3.494,4.435 6.211,8.54 7.566,11.894 v 0 z m 42.715,-17.646 c 0,3.177 2.575,5.752 5.752,5.752 v 0 h 8.035 v -8.036 c 0,-3.176 -2.574,-5.751 -5.751,-5.751 v 0 h -8.036 z m -17.69,0 c 0,3.177 2.575,5.752 5.752,5.752 v 0 h 8.035 v -8.036 c 0,-3.176 -2.575,-5.751 -5.751,-5.751 v 0 h -8.036 z m -17.691,0 c 0,3.177 2.575,5.752 5.752,5.752 v 0 h 8.035 v -8.036 c 0,-3.176 -2.574,-5.751 -5.75,-5.751 v 0 h -8.037 z m 17.691,-16.779 c 0,3.175 2.575,5.751 5.752,5.751 v 0 h 8.035 v -8.035 c 0,-3.177 -2.575,-5.752 -5.751,-5.752 v 0 h -8.036 z m -17.691,0 c 0,3.175 2.575,5.751 5.752,5.751 v 0 h 8.035 v -8.035 c 0,-3.177 -2.574,-5.752 -5.75,-5.752 v 0 h -8.037 z"
                     style="fill:#5b2bd6;fill-opacity:1;stroke:none"
                     id="path996" />
                </g>
              </g>
            </g>
          </g>
          <g
             id="g998"
             transform="matrix(0.22589069,0,0,-0.22589069,-72.726857,53.639863)"
             style="font-size:17.6678px;line-height:1.25;fill:#5b2bd6;fill-opacity:1;stroke-width:0.441695">
            <g
               id="g1000"
               style="fill:#5b2bd6;fill-opacity:1">
              <g
                 id="g1006"
                 style="fill:#5b2bd6;fill-opacity:1">
                <g
                   id="g1008"
                   style="fill:#5b2bd6;fill-opacity:1">
                  <path
                     d="m 394.908,185.076 c -1.746,0 -3.369,-0.896 -4.299,-2.373 v 0 l -15.012,-23.766 c -2.13,-3.382 0.301,-7.786 4.298,-7.786 v 0 c 1.728,0 3.338,0.88 4.272,2.332 v 0 l 15.229,23.766 c 2.173,3.381 -0.253,7.827 -4.273,7.827 v 0 z"
                     style="fill:#5b2bd6;fill-opacity:1;stroke:none"
                     id="path1018" />
                </g>
              </g>
            </g>
          </g>
          <g
             id="g1020"
             transform="matrix(0.22589069,0,0,-0.22589069,-72.726857,53.639863)"
             style="font-size:17.6678px;line-height:1.25;fill:#5b2bd6;fill-opacity:1;stroke-width:0.441695">
            <g
               id="g1022"
               style="fill:#5b2bd6;fill-opacity:1">
              <g
                 id="g1028"
                 style="fill:#5b2bd6;fill-opacity:1">
                <g
                   id="g1030"
                   style="fill:#5b2bd6;fill-opacity:1">
                  <path
                     d="m 411.968,159.233 c -1.26,-1.978 -2.555,-3.934 -3.888,-5.865 v 0 c -2.88,-4.171 -5.934,-8.223 -9.185,-12.113 v 0 c -14.878,-17.802 -35.859,-35.777 -60.347,-35.98 v 0 c -3.087,-0.026 -6.5,0.48 -8.49,2.838 v 0 c -2.881,3.411 -2.13,9.313 -1.552,13.383 v 0 c 0.425,3.001 1.04,6.012 1.904,8.919 v 0 c 0,0 -6.792,-8.986 -7.627,-26.127 v 0 c -0.286,-5.883 2.174,-11.839 8.376,-13.277 v 0 c 10.758,-2.494 23.134,6.509 31.531,12.12 v 0 c 10.35,6.917 19.76,15.203 28.13,24.408 v 0 c 9.894,10.88 19.621,23.804 24.843,37.738 v 0 c -0.781,-2.084 -2.501,-4.165 -3.695,-6.044"
                     style="fill:#5b2bd6;fill-opacity:1;stroke:none"
                     id="path1040" />
                </g>
              </g>
            </g>
          </g>
          <g
             aria-label="Is't full yet?"
             transform="matrix(1.1336524,0,0,0.8821046,-2.3140452,0.80830206)"
             id="text6353"
             style="font-size:5.01023px;line-height:1.65;letter-spacing:0.0111937px;word-spacing:0.00447742px;fill:#666666;stroke:#575e63;stroke-width:0;stroke-miterlimit:4;stroke-dasharray:none;stroke-opacity:1" />
          <g
             aria-label="TM"
             id="text6353-5"
             style="font-size:3.03538px;line-height:1.65;letter-spacing:0.00678142px;word-spacing:0.00271257px;fill:#1a1a1a;stroke:none;stroke-width:0.1;stroke-miterlimit:4;stroke-dasharray:none;stroke-opacity:1"
             transform="matrix(1.2747567,0,0,1.2747567,-19.782304,-2.1682922)">
            <path
               d="m 75.484538,11.761974 h 1.871917 v 0.251961 h -0.785523 v 1.960843 h -0.300871 v -1.960843 h -0.785523 z"
               style="-inkscape-font-specification:sans-serif;baseline-shift:baseline;stroke:none;stroke-width:0.1;stroke-miterlimit:4;stroke-dasharray:none;stroke-opacity:1"
               id="path861" />
            <path
               d="m 77.652249,11.761974 h 0.446118 l 0.564688,1.505833 0.567651,-1.505833 h 0.446118 v 2.212804 H 79.384847 V 12.03172 l -0.570616,1.51769 h -0.30087 l -0.570616,-1.51769 v 1.943058 h -0.290496 z"
               style="-inkscape-font-specification:sans-serif;baseline-shift:baseline;stroke:none;stroke-width:0.1;stroke-miterlimit:4;stroke-dasharray:none;stroke-opacity:1"
               id="path863" />
          </g>
          <g
             transform="scale(0.26458333)"
             id="text1095"
             style="font-size:40px;line-height:1.25;white-space:pre;shape-inside:url(#rect1097)" />
        </g>
      </g>
    </g>
  </g>
</svg>
