<?xml version="1.0" encoding="UTF-8" standalone="no"?>
<!-- Created with Inkscape (http://www.inkscape.org/) -->

<svg
   width="50mm"
   height="30mm"
   viewBox="0 0 50 30"
   version="1.1"
   id="svg5"
   inkscape:version="1.1.1 (3bf5ae0d25, 2021-09-20)"
   sodipodi:docname="sm-logo.svg"
   xmlns:inkscape="http://www.inkscape.org/namespaces/inkscape"
   xmlns:sodipodi="http://sodipodi.sourceforge.net/DTD/sodipodi-0.dtd"
   xmlns="http://www.w3.org/2000/svg"
   xmlns:svg="http://www.w3.org/2000/svg">
  <sodipodi:namedview
     id="namedview7"
     pagecolor="#ffffff"
     bordercolor="#666666"
     borderopacity="1.0"
     inkscape:pageshadow="2"
     inkscape:pageopacity="0.0"
     inkscape:pagecheckerboard="0"
     inkscape:document-units="mm"
     showgrid="false"
     width="90mm"
     inkscape:zoom="0.90509672"
     inkscape:cx="106.06601"
     inkscape:cy="50.27087"
     inkscape:window-width="1366"
     inkscape:window-height="720"
     inkscape:window-x="0"
     inkscape:window-y="23"
     inkscape:window-maximized="1"
     inkscape:current-layer="g454"
     showguides="true"
     inkscape:guide-bbox="true" />
  <defs
     id="defs2" />
  <g
     inkscape:label="Layer 1"
     inkscape:groupmode="layer"
     id="layer1">
    <g
       aria-label="Redux "
       id="text2492"
       style="font-size:17.6678px;line-height:1.25;stroke-width:0.441695"
       transform="matrix(0.92212352,0,0,0.92212352,2.0813178,1.8526887)">
      <g
         id="g384"
         transform="matrix(0.1605197,0,0,-0.1605197,-37.007668,38.669176)"
         style="fill:#d39e5f;fill-opacity:1">
        <g
           id="g386"
           style="fill:#d39e5f;fill-opacity:1">
          <g
             id="g392"
             style="fill:#d39e5f;fill-opacity:1">
            <g
               id="g394"
               style="fill:#d39e5f;fill-opacity:1">
              <path
                 d="m 356.935,115.255 c 0,-4.482 3.634,-8.115 8.116,-8.115 v 0 c 4.481,0 8.115,3.633 8.115,8.115 v 0 c 0,4.481 -3.634,8.115 -8.115,8.115 v 0 c -4.482,0 -8.116,-3.634 -8.116,-8.115"
                 style="fill:#d39e5f;fill-opacity:1;stroke:none"
                 id="path402" />
            </g>
          </g>
        </g>
      </g>
      <g
         id="g404"
         transform="matrix(0.1605197,0,0,-0.1605197,-33.959797,38.304959)"
         style="fill:#d39e5f;fill-opacity:1">
        <g
           id="g406"
           style="fill:#d39e5f;fill-opacity:1">
          <g
             id="g412"
             style="fill:#d39e5f;fill-opacity:1">
            <g
               id="g414"
               style="fill:#d39e5f;fill-opacity:1">
              <path
                 d="m 386.703,115.255 c 0,-4.482 3.634,-8.115 8.115,-8.115 v 0 c 4.483,0 8.116,3.633 8.116,8.115 v 0 c 0,4.481 -3.633,8.115 -8.116,8.115 v 0 c -4.481,0 -8.115,-3.634 -8.115,-8.115"
                 style="fill:#d39e5f;fill-opacity:1;stroke:none"
                 id="path422" />
            </g>
          </g>
        </g>
      </g>
      <g
         id="g444"
         transform="matrix(0.25692854,0,0,-0.25692854,-70.840505,51.610817)"
         style="fill:#f2f2f2;fill-opacity:1">
        <g
           id="g446"
           style="fill:#f2f2f2;fill-opacity:1">
          <g
             id="g452"
             style="fill:#f2f2f2;fill-opacity:1">
            <g
               id="g454"
               style="fill:#f2f2f2;fill-opacity:1">
              <path
                 d="m 322.13815,179.8122 c 9.219,0 17.111,-6.274 19.191,-15.256 v 0 l 8.557,-36.98501 h 28.439 c 19.716,0 35.698,15.98201 35.698,35.69801 v 0 21.585 h -29.572 c 0,-5.861 4.751,-10.612 10.613,-10.612 v 0 h 8.347 v -10.973 c 0,-13.854 -11.232,-25.086 -25.084,-25.086 v 0 h -20.004 l -6.656,28.767 c -3.199,13.82 -15.342,23.473 -29.529,23.473 v 0 z"
                 style="font-size:17.6678px;line-height:1.25;fill:#e6e6e6;fill-opacity:1;stroke:none;stroke-width:0.441695"
                 id="path464" />
            </g>
          </g>
        </g>
      </g>
    </g>
  </g>
</svg>
