<?xml version="1.0" encoding="UTF-8" standalone="no"?>
<!-- Created with Inkscape (http://www.inkscape.org/) -->

<svg
   width="50mm"
   height="30mm"
   viewBox="0 0 50 30"
   version="1.1"
   id="svg5"
   inkscape:version="1.1.1 (3bf5ae0d25, 2021-09-20)"
   sodipodi:docname="sm-logo.svg"
   xmlns:inkscape="http://www.inkscape.org/namespaces/inkscape"
   xmlns:sodipodi="http://sodipodi.sourceforge.net/DTD/sodipodi-0.dtd"
   xmlns="http://www.w3.org/2000/svg"
   xmlns:svg="http://www.w3.org/2000/svg">
  <sodipodi:namedview
     id="namedview7"
     pagecolor="#ffffff"
     bordercolor="#666666"
     borderopacity="1.0"
     inkscape:pageshadow="2"
     inkscape:pageopacity="0.0"
     inkscape:pagecheckerboard="0"
     inkscape:document-units="mm"
     showgrid="false"
     width="90mm"
     inkscape:zoom="1.8101935"
     inkscape:cx="108.82814"
     inkscape:cy="50.547082"
     inkscape:window-width="1366"
     inkscape:window-height="720"
     inkscape:window-x="0"
     inkscape:window-y="23"
     inkscape:window-maximized="1"
     inkscape:current-layer="g28"
     showguides="true"
     inkscape:guide-bbox="true" />
  <defs
     id="defs2">
    <clipPath
       clipPathUnits="userSpaceOnUse"
       id="clipPath32">
      <path
         d="M 0,500 H 500 V 0 H 0 Z"
         id="path30" />
    </clipPath>
  </defs>
  <g
     inkscape:label="Layer 1"
     inkscape:groupmode="layer"
     id="layer1">
    <g
       aria-label="Redux "
       id="text2492"
       style="font-size:17.6678px;line-height:1.25;stroke-width:0.441695"
       transform="matrix(0.92212352,0,0,0.92212352,2.0813178,1.8526887)">
      <g
         id="g444"
         transform="matrix(0.25692854,0,0,-0.25692854,-70.840505,51.610817)"
         style="fill:#f2f2f2;fill-opacity:1">
        <g
           id="g446"
           style="fill:#f2f2f2;fill-opacity:1">
          <g
             id="g452"
             style="fill:#f2f2f2;fill-opacity:1">
            <g
               id="g454"
               style="fill:#f2f2f2;fill-opacity:1">
              <g
                 id="g26"
                 transform="matrix(0.72285895,0,0,0.72285895,240.17742,-111.71214)"
                 style="font-size:17.6678px;line-height:1.25;fill:#e6e6e6;fill-opacity:1;stroke-width:0.441695">
                <g
                   id="g28"
                   clip-path="url(#clipPath32)"
                   style="fill:#e6e6e6;fill-opacity:1">
                  <g
                     id="g146"
                     transform="matrix(1.0699076,0,0,1.0699076,217.0947,325.68265)"
                     style="fill:#385cc4;fill-opacity:1" />
                  <g
                     id="g162"
                     transform="matrix(0.91409827,0,0,0.91409827,136.81037,371.86735)"
                     style="fill:#e6e6e6;fill-opacity:1">
                    <path
                       d="M 0,0 -5.632,-0.038 -5.67,5.594 c -0.014,2.069 1.652,3.759 3.721,3.772 L 3.684,9.404 3.721,3.772 C 3.735,1.703 2.069,0.014 0,0"
                       style="fill:#e6e6e6;fill-opacity:1;fill-rule:nonzero;stroke:none"
                       id="path164" />
                  </g>
                  <g
                     id="g21739"
                     transform="matrix(0.99929195,0,0,0.15195765,138.65194,397.47534)"
                     style="fill:#385cc4;fill-opacity:1" />
                  <g
                     id="g888"
                     transform="matrix(1.1269118,0,0,1.1269118,-245.17825,213.87528)"
                     style="font-size:17.6678px;line-height:1.25;fill:#e6e6e6;fill-opacity:1;stroke-width:0.441695">
                    <g
                       id="g890"
                       style="fill:#e6e6e6;fill-opacity:1">
                      <g
                         id="g896"
                         style="fill:#e6e6e6;fill-opacity:1">
                        <g
                           id="g898"
                           style="fill:#e6e6e6;fill-opacity:1">
                          <path
                             d="m 362.702,180.363 c -3.475,0 -6.293,-2.818 -6.293,-6.294 v 0 -8.792 h 8.793 c 3.475,0 6.292,2.818 6.292,6.294 v 0 8.792 z"
                             style="fill:#e6e6e6;fill-opacity:1;stroke:none"
                             id="path908" />
                        </g>
                      </g>
                    </g>
                  </g>
                  <g
                     id="g910"
                     transform="matrix(1.1269118,0,0,1.1269118,-245.17825,213.87528)"
                     style="font-size:17.6678px;line-height:1.25;fill:#e6e6e6;fill-opacity:1;stroke-width:0.441695">
                    <g
                       id="g912"
                       style="fill:#e6e6e6;fill-opacity:1">
                      <g
                         id="g918"
                         style="fill:#e6e6e6;fill-opacity:1">
                        <g
                           id="g920"
                           style="fill:#e6e6e6;fill-opacity:1">
                          <path
                             d="m 413.895,160.973 c 0,0 -1.072,-4.703 -3.835,-11.894 v 0 h 2.279 v -8.036 c 0,-3.176 -2.575,-5.751 -5.752,-5.751 v 0 h -2.751 c -0.597,-1.15 -1.226,-2.316 -1.89,-3.501 v 0 c 0.72,0.324 1.516,0.508 2.356,0.508 v 0 h 8.037 v -8.035 c 0,-3.177 -2.575,-5.752 -5.752,-5.752 v 0 h -8.036 v 7.556 c -4.047,-6.438 -9.044,-13.123 -15.183,-19.45 v 0 h 22.242 c 7.939,0 14.631,5.917 15.602,13.795 v 0 l 3.475,35.022 c 0.295,2.967 -2.034,5.538 -5.014,5.538 v 0 z"
                             style="fill:#e6e6e6;fill-opacity:1;stroke:none"
                             id="path930" />
                        </g>
                      </g>
                    </g>
                  </g>
                  <g
                     id="g932"
                     transform="matrix(1.1269118,0,0,1.1269118,-245.17825,213.87528)"
                     style="font-size:17.6678px;line-height:1.25;fill:#e6e6e6;fill-opacity:1;stroke-width:0.441695">
                    <g
                       id="g949"
                       style="fill:#e6e6e6;fill-opacity:1">
                      <g
                         id="g940"
                         style="fill:#e6e6e6;fill-opacity:1">
                        <g
                           id="g942"
                           style="fill:#e6e6e6;fill-opacity:1">
                          <path
                             d="m 377.154,181.162 c -1.737,0 -3.146,-1.408 -3.146,-3.146 v 0 -4.396 h 4.396 c 1.739,0 3.147,1.408 3.147,3.146 v 0 4.396 z"
                             style="fill:#e6e6e6;fill-opacity:1;stroke:none"
                             id="path952" />
                        </g>
                      </g>
                    </g>
                  </g>
                  <g
                     id="g954"
                     transform="matrix(1.1269118,0,0,1.1269118,-245.17825,213.87528)"
                     style="font-size:17.6678px;line-height:1.25;fill:#e6e6e6;fill-opacity:1;stroke-width:0.441695">
                    <g
                       id="g956"
                       style="fill:#e6e6e6;fill-opacity:1">
                      <g
                         id="g962"
                         style="fill:#e6e6e6;fill-opacity:1">
                        <g
                           id="g964"
                           style="fill:#e6e6e6;fill-opacity:1">
                          <path
                             d="m 375.386,197.28 c -2.149,0 -3.892,-1.742 -3.892,-3.893 v 0 -5.436 h 5.439 c 2.149,0 3.891,1.741 3.891,3.891 v 0 5.438 z"
                             style="fill:#e6e6e6;fill-opacity:1;stroke:none"
                             id="path974" />
                        </g>
                      </g>
                    </g>
                  </g>
                  <g
                     id="g976"
                     transform="matrix(1.1269118,0,0,1.1269118,-245.17825,213.87528)"
                     style="font-size:17.6678px;line-height:1.25;fill:#e6e6e6;fill-opacity:1;stroke-width:0.441695">
                    <g
                       id="g978"
                       style="fill:#e6e6e6;fill-opacity:1">
                      <g
                         id="g984"
                         style="fill:#e6e6e6;fill-opacity:1">
                        <g
                           id="g986"
                           style="fill:#e6e6e6;fill-opacity:1">
                          <path
                             d="m 338.145,160.973 c -2.98,0 -5.309,-2.571 -5.015,-5.538 v 0 l 3.476,-35.022 c 0.971,-7.878 7.664,-13.795 15.601,-13.795 v 0 h 11.745 c 0,0 7.591,6.552 16.908,15.43 v 0 4.5 c 0,3.175 2.575,5.751 5.752,5.751 v 0 h 4.667 c 2.48,2.531 4.935,5.112 7.272,7.679 v 0 3.349 c 0,3.177 2.575,5.752 5.751,5.752 v 0 h 2.027 c 3.494,4.435 6.211,8.54 7.566,11.894 v 0 z m 42.715,-17.646 c 0,3.177 2.575,5.752 5.752,5.752 v 0 h 8.035 v -8.036 c 0,-3.176 -2.574,-5.751 -5.751,-5.751 v 0 h -8.036 z m -17.69,0 c 0,3.177 2.575,5.752 5.752,5.752 v 0 h 8.035 v -8.036 c 0,-3.176 -2.575,-5.751 -5.751,-5.751 v 0 h -8.036 z m -17.691,0 c 0,3.177 2.575,5.752 5.752,5.752 v 0 h 8.035 v -8.036 c 0,-3.176 -2.574,-5.751 -5.75,-5.751 v 0 h -8.037 z m 17.691,-16.779 c 0,3.175 2.575,5.751 5.752,5.751 v 0 h 8.035 v -8.035 c 0,-3.177 -2.575,-5.752 -5.751,-5.752 v 0 h -8.036 z m -17.691,0 c 0,3.175 2.575,5.751 5.752,5.751 v 0 h 8.035 v -8.035 c 0,-3.177 -2.574,-5.752 -5.75,-5.752 v 0 h -8.037 z"
                             style="fill:#e6e6e6;fill-opacity:1;stroke:none"
                             id="path996" />
                        </g>
                      </g>
                    </g>
                  </g>
                  <g
                     id="g998"
                     transform="matrix(1.1269118,0,0,1.1269118,-245.17825,213.87528)"
                     style="font-size:17.6678px;line-height:1.25;fill:#e6e6e6;fill-opacity:1;stroke-width:0.441695">
                    <g
                       id="g1000"
                       style="fill:#e6e6e6;fill-opacity:1">
                      <g
                         id="g1006"
                         style="fill:#e6e6e6;fill-opacity:1">
                        <g
                           id="g1008"
                           style="fill:#e6e6e6;fill-opacity:1">
                          <path
                             d="m 394.908,185.076 c -1.746,0 -3.369,-0.896 -4.299,-2.373 v 0 l -15.012,-23.766 c -2.13,-3.382 0.301,-7.786 4.298,-7.786 v 0 c 1.728,0 3.338,0.88 4.272,2.332 v 0 l 15.229,23.766 c 2.173,3.381 -0.253,7.827 -4.273,7.827 v 0 z"
                             style="fill:#e6e6e6;fill-opacity:1;stroke:none"
                             id="path1018" />
                        </g>
                      </g>
                    </g>
                  </g>
                  <g
                     id="g1020"
                     transform="matrix(1.1269118,0,0,1.1269118,-245.17825,213.87528)"
                     style="font-size:17.6678px;line-height:1.25;fill:#e6e6e6;fill-opacity:1;stroke-width:0.441695">
                    <g
                       id="g1022"
                       style="fill:#e6e6e6;fill-opacity:1">
                      <g
                         id="g1028"
                         style="fill:#e6e6e6;fill-opacity:1">
                        <g
                           id="g1030"
                           style="fill:#e6e6e6;fill-opacity:1">
                          <path
                             d="m 411.968,159.233 c -1.26,-1.978 -2.555,-3.934 -3.888,-5.865 v 0 c -2.88,-4.171 -5.934,-8.223 -9.185,-12.113 v 0 c -14.878,-17.802 -35.859,-35.777 -60.347,-35.98 v 0 c -3.087,-0.026 -6.5,0.48 -8.49,2.838 v 0 c -2.881,3.411 -2.13,9.313 -1.552,13.383 v 0 c 0.425,3.001 1.04,6.012 1.904,8.919 v 0 c 0,0 -6.792,-8.986 -7.627,-26.127 v 0 c -0.286,-5.883 2.174,-11.839 8.376,-13.277 v 0 c 10.758,-2.494 23.134,6.509 31.531,12.12 v 0 c 10.35,6.917 19.76,15.203 28.13,24.408 v 0 c 9.894,10.88 19.621,23.804 24.843,37.738 v 0 c -0.781,-2.084 -2.501,-4.165 -3.695,-6.044"
                             style="fill:#e6e6e6;fill-opacity:1;stroke:none"
                             id="path1040" />
                        </g>
                      </g>
                    </g>
                  </g>
                </g>
              </g>
            </g>
          </g>
        </g>
      </g>
    </g>
  </g>
</svg>
