<?xml version="1.0" encoding="UTF-8" standalone="no"?>
<!-- Created with Inkscape (http://www.inkscape.org/) -->

<svg
   width="100mm"
   height="60mm"
   viewBox="0 0 100 60"
   version="1.1"
   id="svg5"
   inkscape:version="1.1.2 (b8e25be833, 2022-02-05)"
   sodipodi:docname="customized-products.svg"
   xmlns:inkscape="http://www.inkscape.org/namespaces/inkscape"
   xmlns:sodipodi="http://sodipodi.sourceforge.net/DTD/sodipodi-0.dtd"
   xmlns="http://www.w3.org/2000/svg"
   xmlns:svg="http://www.w3.org/2000/svg">
  <sodipodi:namedview
     id="namedview7"
     pagecolor="#ffffff"
     bordercolor="#666666"
     borderopacity="1.0"
     inkscape:pageshadow="2"
     inkscape:pageopacity="0.0"
     inkscape:pagecheckerboard="0"
     inkscape:document-units="mm"
     showgrid="false"
     width="100mm"
     inkscape:zoom="1"
     inkscape:cx="206.5"
     inkscape:cy="76"
     inkscape:window-width="1920"
     inkscape:window-height="1057"
     inkscape:window-x="-8"
     inkscape:window-y="-8"
     inkscape:window-maximized="1"
     inkscape:current-layer="text52038"
     height="80mm" />
  <defs
     id="defs2">
    <rect
       x="599.62652"
       y="431.33512"
       width="861.25602"
       height="528.91585"
       id="rect16368" />
    <rect
       x="397.73492"
       y="448.37491"
       width="621.39484"
       height="247.92494"
       id="rect1097" />
  </defs>
  <g
     inkscape:label="Layer 1"
     inkscape:groupmode="layer"
     id="layer1">
    <g
       aria-label="Is't full yet?"
       transform="matrix(1.1336524,0,0,0.8821046,-2.3140452,0.80830206)"
       id="text6353"
       style="font-size:5.01023px;line-height:1.65;letter-spacing:0.0111937px;word-spacing:0.00447742px;fill:#666666;stroke:#575e63;stroke-width:0;stroke-miterlimit:4;stroke-dasharray:none;stroke-opacity:1" />
    <g
       transform="scale(0.26458333)"
       id="text1095"
       style="font-size:40px;line-height:1.25;white-space:pre;shape-inside:url(#rect1097)" />
    <g
       aria-label="Global trade starts here"
       id="text1558"
       style="font-size:5.65978px;line-height:1.25;font-family:'Eras Medium ITC';-inkscape-font-specification:'Eras Medium ITC';fill:#000000;fill-opacity:1;stroke-width:0.141493"
       transform="matrix(0.71901224,0,0,0.71901224,2.6423134,0.94909198)">
      <g
         aria-label="Global trade starts here"
         id="text52038"
         style="font-size:6.30308px;fill:#000000;fill-opacity:1;stroke-width:0.0222961"
         transform="translate(126.97874,14.050926)">
        <text
           xml:space="preserve"
           transform="matrix(0.36798168,0,0,0.36798168,-130.65366,-15.37092)"
           id="text16366"
           style="line-height:1.25;font-family:'Eras Medium ITC';font-size:40px;-inkscape-font-specification:'Eras Medium ITC';white-space:pre;shape-inside:url(#rect16368)" />
        <g
           id="g16644"
           style="font-size:6.30308px;line-height:1.25;font-family:'Eras Medium ITC';-inkscape-font-specification:'Eras Medium ITC';fill:#000000;fill-opacity:1;stroke-width:0.0222961;stroke:none"
           transform="translate(-0.19205636,-0.0934372)" />
        <path
           style="font-size:6.30308px;line-height:1.25;font-family:'Eras Medium ITC';-inkscape-font-specification:'Eras Medium ITC';fill:#2f4ca5;fill-opacity:1;stroke:none;stroke-width:0.666115px;stroke-linecap:butt;stroke-linejoin:miter;stroke-opacity:1"
           d="m -60.389771,-14.735046 8.007347,12.3641207 -14.954651,-0.117663 z"
           id="path24986" />
        <path
           style="font-size:6.30308px;line-height:1.25;font-family:'Eras Medium ITC';-inkscape-font-specification:'Eras Medium ITC';fill:#333333;fill-opacity:1;stroke:none;stroke-width:0.666115px;stroke-linecap:butt;stroke-linejoin:miter;stroke-opacity:1"
           d="M -4.3242545,-0.72237328 H -51.072422 L -33.962567,28.912752 v 34.893785 h 29.9914793 z"
           id="path24988" />
        <path
           style="font-size:6.30308px;line-height:1.25;font-family:'Eras Medium ITC';-inkscape-font-specification:'Eras Medium ITC';fill:#f2f3f7;fill-opacity:1;stroke:none;stroke-width:0.666115px;stroke-linecap:butt;stroke-linejoin:miter;stroke-opacity:1"
           d="M -51.440404,-0.72237328 H -67.976612 L -85.0012,28.765168 h 49.69297 l -17.015544,-29.47170218 0.30031,0.080372 z"
           id="path24990" />
        <path
           style="font-size:6.30308px;line-height:1.25;font-family:'Eras Medium ITC';-inkscape-font-specification:'Eras Medium ITC';fill:#2f4ca5;fill-opacity:1;stroke:none;stroke-width:0.701041px;stroke-linecap:butt;stroke-linejoin:miter;stroke-opacity:1"
           d="m -50.61624,29.775775 v 34.266268 h 15.543515 V 29.775775 Z"
           id="path25107" />
        <path
           style="font-size:6.30308px;line-height:1.25;font-family:'Eras Medium ITC';-inkscape-font-specification:'Eras Medium ITC';fill:#385cc4;fill-opacity:1;stroke:none;stroke-width:0.666115px;stroke-linecap:butt;stroke-linejoin:miter;stroke-opacity:1"
           d="m -49.203199,29.775775 h -22.019796 v 34.266268 h 21.431124 z"
           id="path25109" />
        <path
           style="font-size:6.30308px;line-height:1.25;font-family:'Eras Medium ITC';-inkscape-font-specification:'Eras Medium ITC';fill:#6586be;fill-opacity:1;stroke:none;stroke-width:0.689003px;stroke-linecap:butt;stroke-linejoin:miter;stroke-opacity:1"
           d="M -70.276407,64.042043 V 29.775775 H -84.76479 v 33.91301 z"
           id="path25113" />
        <path
           style="font-size:6.30308px;line-height:1.25;font-family:'Eras Medium ITC';-inkscape-font-specification:'Eras Medium ITC';fill:none;fill-opacity:1;stroke:#cccccc;stroke-width:0.435467;stroke-linecap:butt;stroke-linejoin:miter;stroke-miterlimit:4;stroke-dasharray:1.74187, 3.48373;stroke-dashoffset:0;stroke-opacity:1"
           d="m -127.18122,-11.668739 43.498268,42.560438 z"
           id="path25232" />
        <path
           style="font-size:6.30308px;line-height:1.25;font-family:'Eras Medium ITC';-inkscape-font-specification:'Eras Medium ITC';fill:none;fill-opacity:1;stroke:#cccccc;stroke-width:0.415403;stroke-linecap:butt;stroke-linejoin:miter;stroke-miterlimit:4;stroke-dasharray:1.66161, 3.32323;stroke-dashoffset:0;stroke-opacity:1"
           d="M 5.2960127,-10.359451 -33.754911,28.691493 5.7123368,-10.775775 Z"
           id="path25234" />
        <g
           id="g53513"
           style="font-size:6.30308px;line-height:1.25;font-family:'Eras Medium ITC';-inkscape-font-specification:'Eras Medium ITC';fill:#000000;fill-opacity:1;stroke-width:0.0222961"
           transform="matrix(1.8101835,0,0,1.8101835,-16.1373,-437.3769)">
          <path
             style="fill:none;stroke:#cccccc;stroke-width:0.229481;stroke-linecap:butt;stroke-linejoin:miter;stroke-miterlimit:4;stroke-dasharray:0.917924, 1.83585;stroke-dashoffset:0;stroke-opacity:1"
             d="m -19.502501,241.22111 -35.905202,-0.18788 z"
             id="path51668" />
          <path
             style="fill:none;stroke:#cccccc;stroke-width:0.229481;stroke-linecap:butt;stroke-linejoin:miter;stroke-miterlimit:4;stroke-dasharray:0.917924, 1.83585;stroke-dashoffset:0;stroke-opacity:1"
             d="m -55.407703,240.94123 -0.183497,35.0617 z"
             id="path51670" />
        </g>
        <g
           aria-label="45"
           id="text1393"
           style="font-size:9.5746px;opacity:1;stroke-width:0.00533689"
           transform="translate(0,-2.2078901)">
          <path
             d="m -96.271358,13.115733 q 0.0748,-0.860218 0.121553,-2.201971 l -2.683506,0.02338 q 0.01402,-0.126228 0.02338,-0.350633 0.0093,-0.22908 0.0093,-0.388033 0.350633,-0.4441341 0.878919,-1.1687743 l 0.911644,-1.243576 q 0.383358,-0.5189359 0.73399,-1.051897 0.308557,0.00468 0.593738,0.00468 0.27583,0 0.537636,-0.00468 -0.112203,1.7578368 -0.168304,3.5764493 l 0.144928,0.0047 q 0.691915,0 0.766716,-0.0047 0.0748,-0.0047 0.149603,-0.0187 -0.01403,0.23843 -0.01403,0.537636 v 0.102852 q -0.374008,-0.0187 -1.075272,-0.0187 l -0.0374,1.379154 q -0.0093,0.345957 -0.0093,0.453484 0,0.121553 0.0093,0.369333 -0.25713,-0.0094 -0.434784,-0.0094 -0.163629,0 -0.45816,0.0094 z m 0.21038,-2.781683 q 0.01403,-0.294531 0.01403,-0.3459573 l 0.0935,-2.6648057 -2.187946,3.010763 z"
             style="fill:#cccccc"
             id="path16555" />
          <path
             d="m -93.082941,13.036256 q -0.02338,-0.388033 -0.06545,-0.682564 0.476859,0.135578 0.785416,0.187004 0.313231,0.04675 0.598412,0.04675 0.388034,0 0.743341,-0.09818 0.359983,-0.102852 0.621788,-0.317907 0.261805,-0.215054 0.402058,-0.509585 0.140253,-0.299207 0.140253,-0.621788 0,-0.359983 -0.187004,-0.631138 -0.187003,-0.271156 -0.551661,-0.402059 -0.359983,-0.1355777 -0.930345,-0.1355777 -0.603087,0 -1.407204,0.1402527 l 0.294531,-3.2772433 q 1.168775,0.00468 1.879389,0.00468 h 0.68724 l 1.075272,-0.00468 q -0.02805,0.2805059 -0.03272,0.6451635 l -0.575037,-0.032726 -0.350633,-0.00468 -0.621788,-0.014025 q -0.458159,-0.00468 -0.841517,-0.00468 l -0.416084,0.00468 -0.196354,2.1131442 q 0.49556,-0.074802 0.883593,-0.074802 0.43946,0 0.799442,0.070126 0.364658,0.070127 0.612438,0.191679 0.24778,0.1215526 0.439459,0.331932 0.191679,0.2103796 0.289856,0.4908846 0.102852,0.275831 0.102852,0.570362 0,0.486211 -0.224404,0.92567 -0.224405,0.434784 -0.617113,0.719965 -0.392709,0.280506 -0.906969,0.416083 -0.514261,0.135578 -1.051897,0.135578 -0.177654,0 -0.45816,-0.02805 -0.280506,-0.02338 -0.462835,-0.0561 -0.177653,-0.02805 -0.458159,-0.09818 z"
             style="fill:#cccccc"
             id="path16557" />
        </g>
        <path
           style="opacity:1;fill:none;stroke:#cccccc;stroke-width:0.695398;stroke-miterlimit:4;stroke-dasharray:none;stroke-opacity:1;paint-order:stroke fill markers"
           id="path2489"
           sodipodi:type="arc"
           sodipodi:cx="-86.379829"
           sodipodi:cy="3.3080359"
           sodipodi:rx="1.2949202"
           sodipodi:ry="1.2949202"
           sodipodi:start="0.76163725"
           sodipodi:end="0.76131262"
           sodipodi:open="true"
           sodipodi:arc-type="arc"
           d="m -85.442686,4.2016697 a 1.2949202,1.2949202 0 0 1 -1.830701,0.043582 1.2949202,1.2949202 0 0 1 -0.04373,-1.8306972 1.2949202,1.2949202 0 0 1 1.830693,-0.043879 1.2949202,1.2949202 0 0 1 0.04403,1.83069" />
        <g
           aria-label="45"
           id="text15544"
           style="font-size:9.5746px;opacity:1;stroke-width:0.00533689"
           transform="translate(0,-2.2078901)">
          <path
             d="m -16.129037,-3.5372169 q 0.0748,-0.860218 0.121552,-2.201971 l -2.683506,0.023375 q 0.01403,-0.1262276 0.02338,-0.3506323 0.0094,-0.2290798 0.0094,-0.3880331 0.350632,-0.4441343 0.878918,-1.1687744 l 0.911644,-1.2435761 q 0.383358,-0.5189358 0.733991,-1.0518969 0.308556,0.00468 0.593737,0.00468 0.275831,0 0.537636,-0.00468 -0.112202,1.7578367 -0.168303,3.5764497 l 0.144928,0.00468 q 0.691914,0 0.766716,-0.00468 0.0748,-0.00468 0.149603,-0.0187 -0.01403,0.23843 -0.01403,0.5376363 v 0.1028521 q -0.374008,-0.0187 -1.075273,-0.0187 l -0.0374,1.3791538 q -0.0094,0.3459572 -0.0094,0.4534845 0,0.1215525 0.0094,0.3693327 -0.257131,-0.00935 -0.434785,-0.00935 -0.163628,0 -0.458159,0.00935 z m 0.210379,-2.7816832 q 0.01403,-0.2945311 0.01403,-0.3459572 l 0.0935,-2.6648057 -2.187946,3.0107629 z"
             style="fill:#cccccc"
             id="path16550" />
          <path
             d="m -12.94062,-3.6166936 q -0.02338,-0.3880331 -0.06545,-0.6825642 0.47686,0.1355778 0.785417,0.1870039 0.313231,0.046751 0.598412,0.046751 0.388033,0 0.743341,-0.098177 0.359982,-0.1028522 0.621788,-0.3179067 0.2618051,-0.2150544 0.402058,-0.5095856 0.140253,-0.2992063 0.140253,-0.621788 0,-0.3599825 -0.1870039,-0.6311382 -0.1870041,-0.2711557 -0.5516611,-0.4020584 -0.359983,-0.1355778 -0.930345,-0.1355778 -0.603088,0 -1.407204,0.1402529 l 0.294531,-3.2772435 q 1.168774,0.00468 1.879389,0.00468 h 0.6872395 l 1.0752725,-0.00468 q -0.028051,0.2805058 -0.032726,0.6451634 l -0.575037,-0.032726 -0.3506324,-0.00468 -0.6217876,-0.014025 q -0.45816,-0.00468 -0.841518,-0.00468 l -0.416083,0.00468 -0.196354,2.1131442 q 0.49556,-0.074802 0.883593,-0.074802 0.439459,0 0.799442,0.070126 0.364657,0.070126 0.6124372,0.191679 0.2477802,0.1215525 0.4394592,0.3319319 0.191679,0.2103794 0.2898561,0.4908853 0.1028521,0.2758307 0.1028521,0.5703619 0,0.4862102 -0.2244047,0.9256694 -0.2244047,0.434784 -0.6171129,0.719965 -0.3927082,0.2805059 -0.906969,0.4160837 -0.51426,0.1355778 -1.051897,0.1355778 -0.177653,0 -0.458159,-0.02805 -0.280506,-0.023376 -0.462835,-0.056101 -0.177654,-0.028051 -0.458159,-0.098177 z"
             style="fill:#cccccc"
             id="path16552" />
        </g>
        <path
           style="opacity:1;fill:none;stroke:#cccccc;stroke-width:0.695398;stroke-miterlimit:4;stroke-dasharray:none;stroke-opacity:1;paint-order:stroke fill markers"
           id="path15546"
           sodipodi:type="arc"
           sodipodi:cx="-6.2375078"
           sodipodi:cy="-13.344915"
           sodipodi:rx="1.2949202"
           sodipodi:ry="1.2949202"
           sodipodi:start="0.76163725"
           sodipodi:end="0.76131262"
           sodipodi:open="true"
           sodipodi:arc-type="arc"
           d="m -5.3003649,-12.451282 a 1.2949202,1.2949202 0 0 1 -1.8307007,0.04358 1.2949202,1.2949202 0 0 1 -0.04373,-1.830697 1.2949202,1.2949202 0 0 1 1.8306936,-0.04388 1.2949202,1.2949202 0 0 1 0.044027,1.83069" />
      </g>
    </g>
    <g
       aria-label="TM"
       id="text6353-5"
       style="font-size:3.03538px;line-height:1.65;letter-spacing:0.00678142px;word-spacing:0.00271257px;fill:#4a67be;fill-opacity:1;stroke:none;stroke-width:0.1;stroke-miterlimit:4;stroke-dasharray:none;stroke-opacity:1"
       transform="matrix(1.0433305,0,0,1.0433305,2.4014551,0.18837884)" />
  </g>
</svg>
