<?xml version="1.0" encoding="UTF-8" standalone="no"?>
<!-- Created with Inkscape (http://www.inkscape.org/) -->

<svg
   width="50mm"
   height="40mm"
   viewBox="0 0 50 40"
   version="1.1"
   id="svg5"
   inkscape:version="1.1.1 (3bf5ae0d25, 2021-09-20)"
   sodipodi:docname="icon.svg"
   xmlns:inkscape="http://www.inkscape.org/namespaces/inkscape"
   xmlns:sodipodi="http://sodipodi.sourceforge.net/DTD/sodipodi-0.dtd"
   xmlns="http://www.w3.org/2000/svg"
   xmlns:svg="http://www.w3.org/2000/svg">
  <sodipodi:namedview
     id="namedview7"
     pagecolor="#ffffff"
     bordercolor="#666666"
     borderopacity="1.0"
     inkscape:pageshadow="2"
     inkscape:pageopacity="0.0"
     inkscape:pagecheckerboard="0"
     inkscape:document-units="mm"
     showgrid="false"
     width="90mm"
     inkscape:zoom="1.2800001"
     inkscape:cx="76.562494"
     inkscape:cy="5.0781246"
     inkscape:window-width="1366"
     inkscape:window-height="720"
     inkscape:window-x="0"
     inkscape:window-y="23"
     inkscape:window-maximized="1"
     inkscape:current-layer="g454"
     showguides="true"
     inkscape:guide-bbox="true" />
  <defs
     id="defs2" />
  <g
     inkscape:label="Layer 1"
     inkscape:groupmode="layer"
     id="layer1">
    <g
       aria-label="Redux "
       id="text2492"
       style="font-size:17.6678px;line-height:1.25;stroke-width:0.441695"
       transform="matrix(0.92212352,0,0,0.92212352,2.0813178,1.8526887)">
      <g
         id="g384"
         transform="matrix(0.27253982,0,0,-0.27253982,-77.723871,66.620387)"
         style="fill:#d39e5f;fill-opacity:1">
        <g
           id="g386"
           style="fill:#d39e5f;fill-opacity:1">
          <g
             id="g392"
             style="fill:#d39e5f;fill-opacity:1">
            <g
               id="g394"
               style="fill:#d39e5f;fill-opacity:1">
              <path
                 d="m 356.935,115.255 c 0,-4.482 3.634,-8.115 8.116,-8.115 v 0 c 4.481,0 8.115,3.633 8.115,8.115 v 0 c 0,4.481 -3.634,8.115 -8.115,8.115 v 0 c -4.482,0 -8.116,-3.634 -8.116,-8.115"
                 style="fill:#d39e5f;fill-opacity:1;stroke:none"
                 id="path402" />
            </g>
          </g>
        </g>
      </g>
      <g
         id="g404"
         transform="matrix(0.27253982,0,0,-0.27253982,-72.549015,66.001999)"
         style="fill:#d39e5f;fill-opacity:1">
        <g
           id="g406"
           style="fill:#d39e5f;fill-opacity:1">
          <g
             id="g412"
             style="fill:#d39e5f;fill-opacity:1">
            <g
               id="g414"
               style="fill:#d39e5f;fill-opacity:1">
              <path
                 d="m 386.703,115.255 c 0,-4.482 3.634,-8.115 8.115,-8.115 v 0 c 4.483,0 8.116,3.633 8.116,8.115 v 0 c 0,4.481 -3.633,8.115 -8.116,8.115 v 0 c -4.481,0 -8.115,-3.634 -8.115,-8.115"
                 style="fill:#d39e5f;fill-opacity:1;stroke:none"
                 id="path422" />
            </g>
          </g>
        </g>
      </g>
      <g
         id="g444"
         transform="matrix(0.44688079,0,0,-0.44688079,-139.35865,90.070537)"
         style="fill:#f2f2f2;fill-opacity:1">
        <g
           id="g446"
           style="fill:#ffff00;fill-opacity:1">
          <g
             id="g452"
             style="fill:#ffff00;fill-opacity:1">
            <g
               id="g454"
               style="fill:#ffff00;fill-opacity:1">
              <path
                 d="m 311.30325,178.83128 c 11.26496,0 20.90842,-6.12445 23.45003,-14.89234 v 0 l 10.45604,-36.1034 h 34.75042 c 24.09155,0 43.62041,15.60105 43.62041,34.84707 v 0 21.07048 h -36.13487 c 0,-5.72129 5.80538,-10.35904 12.96832,-10.35904 v 0 h 10.19944 v -10.71144 c 0,-13.52376 -13.7247,-24.48802 -30.65085,-24.48802 v 0 h -24.44346 l -8.13315,28.08128 c -3.90896,13.49057 -18.74683,22.91347 -36.08233,22.91347 v 0 z"
                 style="font-size:17.6678px;line-height:1.25;fill:#e6e6e6;fill-opacity:1;stroke:none;stroke-width:0.482399"
                 id="path464" />
            </g>
          </g>
        </g>
      </g>
    </g>
  </g>
</svg>
