<?xml version="1.0" encoding="UTF-8" standalone="no"?>
<!-- Created with Inkscape (http://www.inkscape.org/) -->

<svg
   width="50mm"
   height="50mm"
   viewBox="0 0 50 50"
   version="1.1"
   id="svg5"
   inkscape:version="1.1.2 (b8e25be833, 2022-02-05)"
   sodipodi:docname="3.svg"
   xmlns:inkscape="http://www.inkscape.org/namespaces/inkscape"
   xmlns:sodipodi="http://sodipodi.sourceforge.net/DTD/sodipodi-0.dtd"
   xmlns="http://www.w3.org/2000/svg"
   xmlns:svg="http://www.w3.org/2000/svg">
  <sodipodi:namedview
     id="namedview7"
     pagecolor="#ffffff"
     bordercolor="#666666"
     borderopacity="1.0"
     inkscape:pageshadow="2"
     inkscape:pageopacity="0.0"
     inkscape:pagecheckerboard="0"
     inkscape:document-units="mm"
     showgrid="false"
     width="50mm"
     inkscape:zoom="1.9999999"
     inkscape:cx="134.25001"
     inkscape:cy="57.000003"
     inkscape:window-width="1920"
     inkscape:window-height="1057"
     inkscape:window-x="-8"
     inkscape:window-y="-8"
     inkscape:window-maximized="1"
     inkscape:current-layer="text52038"
     height="80mm"
     showguides="false" />
  <defs
     id="defs2">
    <rect
       x="599.62653"
       y="431.33511"
       width="861.25604"
       height="528.91583"
       id="rect16368" />
    <rect
       x="397.73492"
       y="448.37491"
       width="621.39484"
       height="247.92494"
       id="rect1097" />
    <rect
       x="599.62653"
       y="431.33511"
       width="861.25604"
       height="528.91583"
       id="rect16368-3" />
    <rect
       x="397.73492"
       y="448.37491"
       width="621.39484"
       height="247.92494"
       id="rect1097-5" />
    <clipPath
       clipPathUnits="userSpaceOnUse"
       id="clipPath1715">
      <path
         id="path1717"
         style="fill:#ff0000;fill-opacity:1;fill-rule:nonzero;stroke:none;stroke-width:0.367982"
         d="m -124.77242,-3.9555823 v 12.614153 c 0.0151,-0.011165 0.0354,-0.021166 0.0625,-0.030186 0.049,-0.016272 0.10212,0.01579 0.15308,0.023716 0.041,0.036231 0.0333,0.024055 0.0676,0.091995 0.005,0.00907 0.002,0.021818 0.009,0.029468 -9.9e-4,-0.00482 -0.006,-0.019713 -0.001,-0.020125 0.008,-6.991e-4 0.0105,0.012846 0.0165,0.018686 0.002,0.00199 0.004,0.00381 0.006,0.00575 0.006,-5.152e-4 0.0203,0.00527 0.0309,0.00863 -0.005,-0.030605 -0.007,-0.061717 -0.004,-0.092714 9.9e-4,-0.012504 0.005,-0.049026 0.007,-0.036655 0.003,0.014951 -0.004,0.030189 -0.006,0.045279 0.001,0.00566 0.001,0.019172 0.004,0.01653 0.0909,-0.048898 0.16964,-0.1203392 0.26448,-0.1609919 0.0139,-0.00595 0.0203,0.022701 0.0288,0.035216 0.0125,0.018649 0.0221,0.038661 0.0331,0.058216 0.005,0.00891 0.0125,0.023731 0.0194,0.036655 0.002,-0.010337 0.003,-0.020622 0.005,-0.030903 0.005,-0.028497 0.0161,-0.063503 0.0237,-0.091277 0.0198,-0.072412 0.0598,-0.137128 0.10494,-0.1962089 0.0216,-0.028232 0.0495,-0.056426 0.0733,-0.081933 0.003,-0.00269 0.005,-0.00525 0.008,-0.0079 -0.003,-0.00888 -0.006,-0.017715 -0.009,-0.026594 -1.8e-4,-5.152e-4 -5.6e-4,-9.2e-4 -7.4e-4,-0.00144 -4e-4,-0.00121 -7.4e-4,-0.00239 -7.4e-4,-0.00361 -0.007,-0.021074 -0.0134,-0.04217 -0.0201,-0.063247 -0.003,-0.01002 -0.007,-0.020169 -0.0101,-0.030186 -0.005,-0.01423 -0.0106,-0.027996 -0.0151,-0.042404 -0.0118,-0.037709 -0.0178,-0.059692 -0.0237,-0.081933 -0.0211,-0.066262 -0.0426,-0.1327034 -0.0633,-0.199084 -0.0107,-0.041293 -0.0231,-0.081798 -0.0316,-0.1236186 -0.003,-0.013089 -0.011,-0.031208 -7.4e-4,-0.040248 0.009,-0.00847 0.0185,-0.016946 0.028,-0.025155 -0.004,0.025759 -0.002,0.052162 -0.004,0.07834 0.002,0.00491 0.004,0.00815 0.006,0.012217 0.008,-0.042727 0.0173,-0.081306 0.0259,-0.1142756 -0.009,0.00745 -0.0183,0.014594 -0.0273,0.022281 4e-4,-0.00265 5.1e-4,-0.00532 7.3e-4,-0.0079 0.004,-0.015827 0.01,-0.042036 0.0259,-0.041685 0.002,4.53e-5 0.005,1.22e-5 0.008,0 -0.002,0.00868 -0.004,0.017873 -0.006,0.027312 0.0117,-0.00949 0.0239,-0.01901 0.0359,-0.028029 -0.0103,5.519e-4 -0.0192,6.623e-4 -0.028,7.359e-4 0.0365,-0.1287637 0.0735,-0.1759688 0.10852,-0.1775224 0.0453,-0.00202 0.0871,0.072804 0.11715,0.1480548 0.002,0.00217 0.004,0.00709 0.006,0.00934 0.0125,-0.02443 0.0253,-0.048604 0.041,-0.071153 0.007,-0.00969 0.0129,-0.020081 0.0223,-0.027312 0.0245,-0.018774 0.0522,-0.033166 0.0783,-0.049591 0.0682,0.051862 0.12897,0.1161424 0.20484,0.1559613 0.0307,0.016092 -0.0258,-0.084994 -0.0237,-0.081934 0.008,0.01246 0.0144,0.026318 0.0216,0.039529 0.007,0.012784 0.008,0.017476 0.0115,0.025155 9.5e-4,-0.046027 0.005,-0.091706 0.0122,-0.1372741 0.003,-0.01929 0.005,-0.038429 0.009,-0.057497 0.004,-0.016313 0.008,-0.032655 0.0122,-0.048873 0.0158,-0.051845 0.0364,-0.1015939 0.051,-0.153805 0.018,-0.07284 0.0595,-0.1369248 0.0985,-0.1998022 0.0395,-0.06374 0.0309,-0.048082 0.0733,-0.1063699 0.008,-0.00936 0.0144,-0.021376 0.0244,-0.02875 0.0174,-0.012883 0.0346,-0.026852 0.0539,-0.036655 0.0103,-0.015069 0.0248,-0.031709 0.0331,-0.042404 0.0203,-0.031779 0.048,-0.056612 0.074,-0.083371 6.3e-4,-6.624e-4 5.6e-4,-0.00147 7.4e-4,-0.00217 0.0204,-0.1596971 0.0502,-0.3179196 0.0783,-0.4765072 0.009,-0.050008 0.0175,-0.1003655 0.0273,-0.1502112 0.005,-0.023926 0.0116,-0.059758 0.0223,-0.098464 -9.9e-4,-0.018156 -0.002,-0.036386 0.002,-0.053903 0.004,-0.020916 0.0103,-0.041125 0.0158,-0.06181 0.0195,-0.073758 0.0415,-0.1048379 0.0647,-0.1070881 0.0149,-0.00144 0.0308,0.00919 0.0467,0.027312 0.0207,-0.00707 0.0446,-0.008 0.0712,-7.36e-4 0.11502,0.031617 0.32416,0.1597828 0.25155,0.2544247 -0.008,0.010495 -0.0175,0.01887 -0.0273,0.025873 0.003,-0.00823 0.005,-0.01689 0.008,-0.026594 0.005,-0.01993 0.0107,-0.039556 0.0151,-0.059653 4.8e-4,-0.00217 7.3e-4,-0.00843 7.3e-4,-0.014373 -0.0689,0.00433 -0.15157,-0.015716 -0.22855,-0.025873 0.0276,0.055159 0.0552,0.1115702 0.0819,0.1516486 0.0466,0.00392 0.089,-0.00125 0.12218,-0.024438 -0.0355,0.1122208 -0.0779,0.091883 -0.1229,0.024438 -0.0942,-0.00791 -0.20581,-0.050944 -0.29611,-0.051029 -9.6e-4,-0.013023 -0.002,-0.026749 -0.004,-0.040248 -0.0531,0.092992 0.14814,0.2037886 0.25802,0.2299885 0.0716,0.01706 0.11827,-0.087039 0.17393,-0.1351184 0.002,-0.00631 0.003,-0.01236 0.004,-0.018686 l 7.4e-4,-7.36e-4 c 1.5e-4,0.0035 -0.001,0.016173 -0.005,0.019404 -0.005,0.021354 -0.0102,0.042422 -0.0144,0.063966 -0.01,0.049753 -0.0177,0.1002956 -0.0266,0.1502112 -0.0382,0.215383 -0.081,0.430249 -0.0949,0.648999 -0.0251,0.2415104 -0.0598,0.4820472 -0.10781,0.7201516 -0.005,0.035856 -0.0125,0.071716 -0.0158,0.1078072 -0.003,0.027981 -0.002,0.055995 -0.002,0.08409 -9.2e-4,0.056355 -0.002,0.1125428 -0.002,0.1688977 -0.002,0.1996087 -0.003,0.3992792 0.008,0.5986889 0.006,0.084587 0.0107,0.1693823 0.0194,0.2537061 0.006,0.057275 0.0174,0.1141983 0.0266,0.171054 0.0113,0.069534 0.023,0.1390404 0.0352,0.2084271 0.0176,0.1000222 0.0425,0.1991127 0.046,0.3011415 0.002,0.049744 -0.003,0.094283 -0.0108,0.1336807 h 55.199444 c -0.0018,-0.024835 -0.0029,-0.049898 -0.005,-0.074746 0.0011,-0.025689 0.0026,-0.051215 0.0029,-0.076902 7.36e-4,-0.081794 -0.0018,-0.1237037 -0.0029,-0.2033964 -0.0018,-0.160698 -0.0022,-0.3215505 -0.0022,-0.4822573 0.0018,-0.1119897 7.36e-4,-0.2243573 7.36e-4,-0.3363581 -1.33e-4,-0.096093 -0.0015,-0.1013712 0.0065,-0.2005213 0.0018,-0.01982 0.0055,-0.039848 0.0072,-0.059653 0.0048,-0.057245 -0.0011,-0.025461 7.36e-4,-0.071872 0.0011,-0.028456 0.0037,-0.05638 0.005,-0.084808 0.005,-0.090384 0.01818,-0.1799213 0.04384,-0.2666428 -7.36e-4,0.00173 -0.0015,0.00335 -0.0022,0.00503 -0.0011,0.00221 -0.0011,-0.00468 -7.36e-4,-0.00719 0.0033,-0.037718 0.0066,-0.075287 0.01148,-0.1128383 0.0055,-0.042447 0.01553,-0.087478 0.02443,-0.1293687 0.0029,-0.011183 0.006,-0.021796 0.0086,-0.03306 3.2e-4,-0.00144 0.0011,-0.00576 0.0015,-0.00863 7.36e-4,0.017538 0.0042,0.067146 0.0057,0.05031 0.004,-0.040124 0.0011,-0.080425 0.0015,-0.120744 0.0037,-0.013597 0.0058,-0.021612 0.0072,-0.027312 -7.36e-4,0.00461 -0.0018,0.010568 -0.0022,0.015812 -0.0018,0.026285 -0.0018,0.026741 0,0.043123 0.03987,0.3515391 0.253264,-0.1861476 0.373012,-0.1969277 0.03051,-0.00276 0.05499,0.028784 0.069,0.1178694 0.0062,0.039219 0.0079,0.081803 -0.0029,0.120744 0.02734,0.0018 0.04836,0.033766 0.05965,0.1178689 7.36e-4,0.0064 0.0018,0.013008 0.0029,0.019404 0.0067,0.085297 -1.84e-4,0.1702213 -0.0086,0.2551434 7.36e-4,0.065276 0.0015,0.083524 -0.0015,0.1566796 -0.0042,0.107118 -0.01494,0.2141046 -0.01869,0.3212653 -0.0068,0.081161 -0.0084,0.1036148 -0.01726,0.1976466 -0.004,0.042056 -0.0055,0.074821 -0.0086,0.1063696 0.0047,9.935e-4 0.0091,0.0021 0.01439,0.00361 0.02995,0.00191 0.07234,0.014285 0.14015,0.033781 0.0067,-0.010193 0.0138,-0.020235 0.02083,-0.030185 0.04953,-0.07005 0.04989,-0.029472 0.046,-0.071153 0.01457,-0.036073 0.02517,-0.073114 0.03522,-0.1106819 -0.0026,-0.00221 7.36e-4,-0.00772 0.0037,-0.013656 -7.36e-4,0.00373 -0.0015,0.00782 -0.0022,0.010061 -3.35e-4,0.00125 -0.0011,0.00236 -0.0015,0.00361 3.68e-4,3.161e-4 7.36e-4,5.888e-4 0.0015,7.36e-4 0.06934,0.015466 0.139649,0.027083 0.209864,0.038092 0.01321,4.784e-4 0.02635,0.00158 0.03953,0.00217 V -3.9555823 Z m 0.65546,12.6687754 c -1.8e-4,0.00166 -1.4e-4,0.00269 0,0.00431 1.5e-4,0.00188 4.5e-4,0.00387 7.4e-4,0.00575 2.2e-4,-0.00283 5.2e-4,-0.0062 7.4e-4,-0.0079 -2.9e-4,-5.52e-4 -2.1e-4,-0.00125 -7.4e-4,-0.00217 z m -0.65474,0.1954903 v 0.029468 c 0.003,0.00313 0.005,0.00615 0.008,0.00934 0.0104,0.013074 0.0198,0.027102 0.0302,0.040248 -0.007,-0.012574 -0.0132,-0.025273 -0.0194,-0.038092 -0.007,-0.013501 -0.0125,-0.0273 -0.0187,-0.040967 z m 58.501177,0.4039173 c -7.36e-4,0.00195 -0.0022,0.0073 -0.0029,0.00934 0.0051,0.00364 0.0096,0.00764 0.01439,0.011499 v -0.012938 c -0.0033,-0.00291 -0.0067,-0.00566 -0.01148,-0.0079 z m -57.113347,0.076902 c 1e-4,5.152e-4 6.3e-4,9.199e-4 7.4e-4,0.00144 9.9e-4,0.00605 4e-4,0.00342 -7.4e-4,-0.00144 z" />
    </clipPath>
  </defs>
  <g
     inkscape:label="Layer 1"
     inkscape:groupmode="layer"
     id="layer1">
    <g
       aria-label="Is't full yet?"
       transform="matrix(1.1336524,0,0,0.8821046,-2.3140452,0.80830206)"
       id="text6353"
       style="font-size:5.01023px;line-height:1.65;letter-spacing:0.0111937px;word-spacing:0.00447742px;fill:#666666;stroke:#575e63;stroke-width:0;stroke-miterlimit:4;stroke-dasharray:none;stroke-opacity:1" />
    <g
       transform="scale(0.26458333)"
       id="text1095"
       style="font-size:40px;line-height:1.25;white-space:pre;shape-inside:url(#rect1097)" />
    <g
       aria-label="Global trade starts here"
       id="text1558"
       style="font-size:5.65978px;line-height:1.25;font-family:'Eras Medium ITC';-inkscape-font-specification:'Eras Medium ITC';fill:#000000;fill-opacity:1;stroke-width:0.141493"
       transform="matrix(0.71901224,0,0,0.71901224,2.6423134,0.94909198)">
      <g
         aria-label="Global trade starts here"
         id="text52038"
         style="font-size:6.30308px;fill:#000000;fill-opacity:1;stroke-width:0.0222961"
         transform="translate(126.97874,14.050926)">
        <text
           xml:space="preserve"
           transform="matrix(0.36798168,0,0,0.36798168,-130.65366,-15.37092)"
           id="text16366"
           style="font-size:40px;line-height:1.25;font-family:'Eras Medium ITC';-inkscape-font-specification:'Eras Medium ITC';white-space:pre;shape-inside:url(#rect16368);fill:none" />
        <g
           id="g16644"
           style="font-size:6.30308px;line-height:1.25;font-family:'Eras Medium ITC';-inkscape-font-specification:'Eras Medium ITC';fill:none;fill-opacity:1;stroke:none;stroke-width:0.0222961"
           transform="translate(-0.19205636,-0.0934372)" />
        <rect
           style="font-size:6.30308px;line-height:1.25;font-family:'Eras Medium ITC';-inkscape-font-specification:'Eras Medium ITC';fill:none;fill-opacity:1;stroke:#3a3a3a;stroke-width:3.12076;stroke-miterlimit:4;stroke-dasharray:none;stroke-dashoffset:0;stroke-opacity:1;paint-order:stroke fill markers"
           id="rect62297-4"
           width="60.589588"
           height="60.589588"
           x="-125.5302"
           y="-10.615457"
           ry="3.5053616" />
        <path
           style="font-size:6.30308px;line-height:1.25;font-family:'Eras Medium ITC';-inkscape-font-specification:'Eras Medium ITC';fill:none;fill-opacity:1;stroke:#3a3a3a;stroke-width:3.11588px;stroke-linecap:butt;stroke-linejoin:miter;stroke-opacity:1"
           d="m -90.890585,4.6625889 -25.000425,6.6988251 v 37.312942 h 26.168828 V 4.0783767 Z"
           id="path62457-5" />
        <path
           style="font-size:6.30308px;line-height:1.25;font-family:'Eras Medium ITC';-inkscape-font-specification:'Eras Medium ITC';fill:#2f4ca5;fill-opacity:1;stroke:none;stroke-width:3.11588px;stroke-linecap:butt;stroke-linejoin:miter;stroke-opacity:1"
           d="m -87.38538,18.489295 9.354412,2.506499 V 48.8691 h -6.433131 V 26.473738 l -4.435629,-1.18849 v -6.795953 z"
           id="path62459-0" />
        <path
           style="font-size:6.30308px;line-height:1.25;font-family:'Eras Medium ITC';-inkscape-font-specification:'Eras Medium ITC';fill:none;fill-opacity:1;stroke:#3a3a3a;stroke-width:3.11588px;stroke-linecap:butt;stroke-linejoin:miter;stroke-opacity:1"
           d="m -93.616965,17.905072 -9.932015,1.947424 z"
           id="path62596-3" />
        <path
           style="font-size:6.30308px;line-height:1.25;font-family:'Eras Medium ITC';-inkscape-font-specification:'Eras Medium ITC';fill:none;fill-opacity:1;stroke:#3a3a3a;stroke-width:3.11588px;stroke-linecap:butt;stroke-linejoin:miter;stroke-opacity:1"
           d="m -94.396011,29.784364 -9.542319,1.75267 z"
           id="path62598-7" />
        <path
           style="font-size:6.30308px;line-height:1.25;font-family:'Eras Medium ITC';-inkscape-font-specification:'Eras Medium ITC';fill:none;fill-opacity:1;stroke:#3a3a3a;stroke-width:3.47577px;stroke-linecap:butt;stroke-linejoin:miter;stroke-opacity:1"
           d="M -90.890474,4.6625779 V 47.353223 h -2.666693 l -0.305639,-40.0919783 4.142063,-3.182868 z"
           id="path62791" />
      </g>
    </g>
    <g
       aria-label="TM"
       id="text6353-5"
       style="font-size:3.03538px;line-height:1.65;letter-spacing:0.00678142px;word-spacing:0.00271257px;fill:#4a67be;fill-opacity:1;stroke:none;stroke-width:0.1;stroke-miterlimit:4;stroke-dasharray:none;stroke-opacity:1"
       transform="matrix(1.0433305,0,0,1.0433305,2.4014551,0.18837884)" />
  </g>
</svg>
