<?xml version="1.0" encoding="UTF-8" standalone="no"?>
<!-- Created with Inkscape (http://www.inkscape.org/) -->

<svg
   width="50mm"
   height="50mm"
   viewBox="0 0 50 50"
   version="1.1"
   id="svg5"
   inkscape:version="1.1.2 (b8e25be833, 2022-02-05)"
   sodipodi:docname="6.svg"
   xmlns:inkscape="http://www.inkscape.org/namespaces/inkscape"
   xmlns:sodipodi="http://sodipodi.sourceforge.net/DTD/sodipodi-0.dtd"
   xmlns="http://www.w3.org/2000/svg"
   xmlns:svg="http://www.w3.org/2000/svg">
  <sodipodi:namedview
     id="namedview7"
     pagecolor="#ffffff"
     bordercolor="#666666"
     borderopacity="1.0"
     inkscape:pageshadow="2"
     inkscape:pageopacity="0.0"
     inkscape:pagecheckerboard="0"
     inkscape:document-units="mm"
     showgrid="false"
     width="50mm"
     inkscape:zoom="1.9999999"
     inkscape:cx="74.250004"
     inkscape:cy="116.50001"
     inkscape:window-width="1920"
     inkscape:window-height="1057"
     inkscape:window-x="-8"
     inkscape:window-y="-8"
     inkscape:window-maximized="1"
     inkscape:current-layer="text52038"
     height="80mm"
     showguides="false" />
  <defs
     id="defs2">
    <rect
       x="599.62653"
       y="431.33511"
       width="861.25604"
       height="528.91583"
       id="rect16368" />
    <rect
       x="397.73492"
       y="448.37491"
       width="621.39484"
       height="247.92494"
       id="rect1097" />
    <rect
       x="599.62653"
       y="431.33511"
       width="861.25604"
       height="528.91583"
       id="rect16368-3" />
    <rect
       x="397.73492"
       y="448.37491"
       width="621.39484"
       height="247.92494"
       id="rect1097-5" />
    <clipPath
       clipPathUnits="userSpaceOnUse"
       id="clipPath1715">
      <path
         id="path1717"
         style="fill:#ff0000;fill-opacity:1;fill-rule:nonzero;stroke:none;stroke-width:0.367982"
         d="m -124.77242,-3.9555823 v 12.614153 c 0.0151,-0.011165 0.0354,-0.021166 0.0625,-0.030186 0.049,-0.016272 0.10212,0.01579 0.15308,0.023716 0.041,0.036231 0.0333,0.024055 0.0676,0.091995 0.005,0.00907 0.002,0.021818 0.009,0.029468 -9.9e-4,-0.00482 -0.006,-0.019713 -0.001,-0.020125 0.008,-6.991e-4 0.0105,0.012846 0.0165,0.018686 0.002,0.00199 0.004,0.00381 0.006,0.00575 0.006,-5.152e-4 0.0203,0.00527 0.0309,0.00863 -0.005,-0.030605 -0.007,-0.061717 -0.004,-0.092714 9.9e-4,-0.012504 0.005,-0.049026 0.007,-0.036655 0.003,0.014951 -0.004,0.030189 -0.006,0.045279 0.001,0.00566 0.001,0.019172 0.004,0.01653 0.0909,-0.048898 0.16964,-0.1203392 0.26448,-0.1609919 0.0139,-0.00595 0.0203,0.022701 0.0288,0.035216 0.0125,0.018649 0.0221,0.038661 0.0331,0.058216 0.005,0.00891 0.0125,0.023731 0.0194,0.036655 0.002,-0.010337 0.003,-0.020622 0.005,-0.030903 0.005,-0.028497 0.0161,-0.063503 0.0237,-0.091277 0.0198,-0.072412 0.0598,-0.137128 0.10494,-0.1962089 0.0216,-0.028232 0.0495,-0.056426 0.0733,-0.081933 0.003,-0.00269 0.005,-0.00525 0.008,-0.0079 -0.003,-0.00888 -0.006,-0.017715 -0.009,-0.026594 -1.8e-4,-5.152e-4 -5.6e-4,-9.2e-4 -7.4e-4,-0.00144 -4e-4,-0.00121 -7.4e-4,-0.00239 -7.4e-4,-0.00361 -0.007,-0.021074 -0.0134,-0.04217 -0.0201,-0.063247 -0.003,-0.01002 -0.007,-0.020169 -0.0101,-0.030186 -0.005,-0.01423 -0.0106,-0.027996 -0.0151,-0.042404 -0.0118,-0.037709 -0.0178,-0.059692 -0.0237,-0.081933 -0.0211,-0.066262 -0.0426,-0.1327034 -0.0633,-0.199084 -0.0107,-0.041293 -0.0231,-0.081798 -0.0316,-0.1236186 -0.003,-0.013089 -0.011,-0.031208 -7.4e-4,-0.040248 0.009,-0.00847 0.0185,-0.016946 0.028,-0.025155 -0.004,0.025759 -0.002,0.052162 -0.004,0.07834 0.002,0.00491 0.004,0.00815 0.006,0.012217 0.008,-0.042727 0.0173,-0.081306 0.0259,-0.1142756 -0.009,0.00745 -0.0183,0.014594 -0.0273,0.022281 4e-4,-0.00265 5.1e-4,-0.00532 7.3e-4,-0.0079 0.004,-0.015827 0.01,-0.042036 0.0259,-0.041685 0.002,4.53e-5 0.005,1.22e-5 0.008,0 -0.002,0.00868 -0.004,0.017873 -0.006,0.027312 0.0117,-0.00949 0.0239,-0.01901 0.0359,-0.028029 -0.0103,5.519e-4 -0.0192,6.623e-4 -0.028,7.359e-4 0.0365,-0.1287637 0.0735,-0.1759688 0.10852,-0.1775224 0.0453,-0.00202 0.0871,0.072804 0.11715,0.1480548 0.002,0.00217 0.004,0.00709 0.006,0.00934 0.0125,-0.02443 0.0253,-0.048604 0.041,-0.071153 0.007,-0.00969 0.0129,-0.020081 0.0223,-0.027312 0.0245,-0.018774 0.0522,-0.033166 0.0783,-0.049591 0.0682,0.051862 0.12897,0.1161424 0.20484,0.1559613 0.0307,0.016092 -0.0258,-0.084994 -0.0237,-0.081934 0.008,0.01246 0.0144,0.026318 0.0216,0.039529 0.007,0.012784 0.008,0.017476 0.0115,0.025155 9.5e-4,-0.046027 0.005,-0.091706 0.0122,-0.1372741 0.003,-0.01929 0.005,-0.038429 0.009,-0.057497 0.004,-0.016313 0.008,-0.032655 0.0122,-0.048873 0.0158,-0.051845 0.0364,-0.1015939 0.051,-0.153805 0.018,-0.07284 0.0595,-0.1369248 0.0985,-0.1998022 0.0395,-0.06374 0.0309,-0.048082 0.0733,-0.1063699 0.008,-0.00936 0.0144,-0.021376 0.0244,-0.02875 0.0174,-0.012883 0.0346,-0.026852 0.0539,-0.036655 0.0103,-0.015069 0.0248,-0.031709 0.0331,-0.042404 0.0203,-0.031779 0.048,-0.056612 0.074,-0.083371 6.3e-4,-6.624e-4 5.6e-4,-0.00147 7.4e-4,-0.00217 0.0204,-0.1596971 0.0502,-0.3179196 0.0783,-0.4765072 0.009,-0.050008 0.0175,-0.1003655 0.0273,-0.1502112 0.005,-0.023926 0.0116,-0.059758 0.0223,-0.098464 -9.9e-4,-0.018156 -0.002,-0.036386 0.002,-0.053903 0.004,-0.020916 0.0103,-0.041125 0.0158,-0.06181 0.0195,-0.073758 0.0415,-0.1048379 0.0647,-0.1070881 0.0149,-0.00144 0.0308,0.00919 0.0467,0.027312 0.0207,-0.00707 0.0446,-0.008 0.0712,-7.36e-4 0.11502,0.031617 0.32416,0.1597828 0.25155,0.2544247 -0.008,0.010495 -0.0175,0.01887 -0.0273,0.025873 0.003,-0.00823 0.005,-0.01689 0.008,-0.026594 0.005,-0.01993 0.0107,-0.039556 0.0151,-0.059653 4.8e-4,-0.00217 7.3e-4,-0.00843 7.3e-4,-0.014373 -0.0689,0.00433 -0.15157,-0.015716 -0.22855,-0.025873 0.0276,0.055159 0.0552,0.1115702 0.0819,0.1516486 0.0466,0.00392 0.089,-0.00125 0.12218,-0.024438 -0.0355,0.1122208 -0.0779,0.091883 -0.1229,0.024438 -0.0942,-0.00791 -0.20581,-0.050944 -0.29611,-0.051029 -9.6e-4,-0.013023 -0.002,-0.026749 -0.004,-0.040248 -0.0531,0.092992 0.14814,0.2037886 0.25802,0.2299885 0.0716,0.01706 0.11827,-0.087039 0.17393,-0.1351184 0.002,-0.00631 0.003,-0.01236 0.004,-0.018686 l 7.4e-4,-7.36e-4 c 1.5e-4,0.0035 -0.001,0.016173 -0.005,0.019404 -0.005,0.021354 -0.0102,0.042422 -0.0144,0.063966 -0.01,0.049753 -0.0177,0.1002956 -0.0266,0.1502112 -0.0382,0.215383 -0.081,0.430249 -0.0949,0.648999 -0.0251,0.2415104 -0.0598,0.4820472 -0.10781,0.7201516 -0.005,0.035856 -0.0125,0.071716 -0.0158,0.1078072 -0.003,0.027981 -0.002,0.055995 -0.002,0.08409 -9.2e-4,0.056355 -0.002,0.1125428 -0.002,0.1688977 -0.002,0.1996087 -0.003,0.3992792 0.008,0.5986889 0.006,0.084587 0.0107,0.1693823 0.0194,0.2537061 0.006,0.057275 0.0174,0.1141983 0.0266,0.171054 0.0113,0.069534 0.023,0.1390404 0.0352,0.2084271 0.0176,0.1000222 0.0425,0.1991127 0.046,0.3011415 0.002,0.049744 -0.003,0.094283 -0.0108,0.1336807 h 55.199444 c -0.0018,-0.024835 -0.0029,-0.049898 -0.005,-0.074746 0.0011,-0.025689 0.0026,-0.051215 0.0029,-0.076902 7.36e-4,-0.081794 -0.0018,-0.1237037 -0.0029,-0.2033964 -0.0018,-0.160698 -0.0022,-0.3215505 -0.0022,-0.4822573 0.0018,-0.1119897 7.36e-4,-0.2243573 7.36e-4,-0.3363581 -1.33e-4,-0.096093 -0.0015,-0.1013712 0.0065,-0.2005213 0.0018,-0.01982 0.0055,-0.039848 0.0072,-0.059653 0.0048,-0.057245 -0.0011,-0.025461 7.36e-4,-0.071872 0.0011,-0.028456 0.0037,-0.05638 0.005,-0.084808 0.005,-0.090384 0.01818,-0.1799213 0.04384,-0.2666428 -7.36e-4,0.00173 -0.0015,0.00335 -0.0022,0.00503 -0.0011,0.00221 -0.0011,-0.00468 -7.36e-4,-0.00719 0.0033,-0.037718 0.0066,-0.075287 0.01148,-0.1128383 0.0055,-0.042447 0.01553,-0.087478 0.02443,-0.1293687 0.0029,-0.011183 0.006,-0.021796 0.0086,-0.03306 3.2e-4,-0.00144 0.0011,-0.00576 0.0015,-0.00863 7.36e-4,0.017538 0.0042,0.067146 0.0057,0.05031 0.004,-0.040124 0.0011,-0.080425 0.0015,-0.120744 0.0037,-0.013597 0.0058,-0.021612 0.0072,-0.027312 -7.36e-4,0.00461 -0.0018,0.010568 -0.0022,0.015812 -0.0018,0.026285 -0.0018,0.026741 0,0.043123 0.03987,0.3515391 0.253264,-0.1861476 0.373012,-0.1969277 0.03051,-0.00276 0.05499,0.028784 0.069,0.1178694 0.0062,0.039219 0.0079,0.081803 -0.0029,0.120744 0.02734,0.0018 0.04836,0.033766 0.05965,0.1178689 7.36e-4,0.0064 0.0018,0.013008 0.0029,0.019404 0.0067,0.085297 -1.84e-4,0.1702213 -0.0086,0.2551434 7.36e-4,0.065276 0.0015,0.083524 -0.0015,0.1566796 -0.0042,0.107118 -0.01494,0.2141046 -0.01869,0.3212653 -0.0068,0.081161 -0.0084,0.1036148 -0.01726,0.1976466 -0.004,0.042056 -0.0055,0.074821 -0.0086,0.1063696 0.0047,9.935e-4 0.0091,0.0021 0.01439,0.00361 0.02995,0.00191 0.07234,0.014285 0.14015,0.033781 0.0067,-0.010193 0.0138,-0.020235 0.02083,-0.030185 0.04953,-0.07005 0.04989,-0.029472 0.046,-0.071153 0.01457,-0.036073 0.02517,-0.073114 0.03522,-0.1106819 -0.0026,-0.00221 7.36e-4,-0.00772 0.0037,-0.013656 -7.36e-4,0.00373 -0.0015,0.00782 -0.0022,0.010061 -3.35e-4,0.00125 -0.0011,0.00236 -0.0015,0.00361 3.68e-4,3.161e-4 7.36e-4,5.888e-4 0.0015,7.36e-4 0.06934,0.015466 0.139649,0.027083 0.209864,0.038092 0.01321,4.784e-4 0.02635,0.00158 0.03953,0.00217 V -3.9555823 Z m 0.65546,12.6687754 c -1.8e-4,0.00166 -1.4e-4,0.00269 0,0.00431 1.5e-4,0.00188 4.5e-4,0.00387 7.4e-4,0.00575 2.2e-4,-0.00283 5.2e-4,-0.0062 7.4e-4,-0.0079 -2.9e-4,-5.52e-4 -2.1e-4,-0.00125 -7.4e-4,-0.00217 z m -0.65474,0.1954903 v 0.029468 c 0.003,0.00313 0.005,0.00615 0.008,0.00934 0.0104,0.013074 0.0198,0.027102 0.0302,0.040248 -0.007,-0.012574 -0.0132,-0.025273 -0.0194,-0.038092 -0.007,-0.013501 -0.0125,-0.0273 -0.0187,-0.040967 z m 58.501177,0.4039173 c -7.36e-4,0.00195 -0.0022,0.0073 -0.0029,0.00934 0.0051,0.00364 0.0096,0.00764 0.01439,0.011499 v -0.012938 c -0.0033,-0.00291 -0.0067,-0.00566 -0.01148,-0.0079 z m -57.113347,0.076902 c 1e-4,5.152e-4 6.3e-4,9.199e-4 7.4e-4,0.00144 9.9e-4,0.00605 4e-4,0.00342 -7.4e-4,-0.00144 z" />
    </clipPath>
  </defs>
  <g
     inkscape:label="Layer 1"
     inkscape:groupmode="layer"
     id="layer1">
    <g
       aria-label="Is't full yet?"
       transform="matrix(1.1336524,0,0,0.8821046,-2.3140452,0.80830206)"
       id="text6353"
       style="font-size:5.01023px;line-height:1.65;letter-spacing:0.0111937px;word-spacing:0.00447742px;fill:#666666;stroke:#575e63;stroke-width:0;stroke-miterlimit:4;stroke-dasharray:none;stroke-opacity:1" />
    <g
       transform="scale(0.26458333)"
       id="text1095"
       style="font-size:40px;line-height:1.25;white-space:pre;shape-inside:url(#rect1097)" />
    <g
       aria-label="Global trade starts here"
       id="text1558"
       style="font-size:5.65978px;line-height:1.25;font-family:'Eras Medium ITC';-inkscape-font-specification:'Eras Medium ITC';fill:#000000;fill-opacity:1;stroke-width:0.141493"
       transform="matrix(0.71901224,0,0,0.71901224,2.6423134,0.94909198)">
      <g
         aria-label="Global trade starts here"
         id="text52038"
         style="font-size:6.30308px;fill:#000000;fill-opacity:1;stroke-width:0.0222961"
         transform="translate(126.97874,14.050926)">
        <text
           xml:space="preserve"
           transform="matrix(0.36798168,0,0,0.36798168,-130.65366,-15.37092)"
           id="text16366"
           style="font-size:40px;line-height:1.25;font-family:'Eras Medium ITC';-inkscape-font-specification:'Eras Medium ITC';white-space:pre;shape-inside:url(#rect16368);fill:none" />
        <g
           id="g16644"
           style="font-size:6.30308px;line-height:1.25;font-family:'Eras Medium ITC';-inkscape-font-specification:'Eras Medium ITC';fill:none;fill-opacity:1;stroke:none;stroke-width:0.0222961"
           transform="translate(-0.19205636,-0.0934372)" />
        <path
           style="font-size:5.65978px;line-height:1.25;font-family:'Eras Medium ITC';-inkscape-font-specification:'Eras Medium ITC';fill:none;fill-opacity:1;stroke:#000000;stroke-width:3.1909px;stroke-linecap:butt;stroke-linejoin:miter;stroke-opacity:1"
           d="m -127.46607,20.937301 c 0.0731,-0.377793 0.0915,-0.766638 0.20961,-1.133569 0.76247,-2.280859 0.0367,0.307184 0.84119,-1.133569 0.10161,-0.190815 0.56752,-1.224529 0.63158,-1.511471 0.0367,-0.185335 -0.064,-0.387567 0,-0.566872 0.0733,-0.215569 0.32678,-0.355961 0.42106,-0.566872 0.36064,-0.807101 0.46223,-1.573428 1.05282,-2.456125 0.23066,-0.345822 0.62791,-0.590712 0.84118,-0.944655 1.39139,-0.03197 0.27095,-0.918877 0.42105,-1.322528 0.18215,-0.490144 0.54463,-0.732749 0.84119,-1.133569 0.85217,-1.1470331 -0.60595,0.591625 0.42106,-0.9446545 0.29748,-0.4454773 1.24247,-0.8223558 1.47368,-1.1335689 0.0731,-0.1054138 -0.055,-0.258408 0,-0.3777927 0.12724,-0.3298379 2.02636,-2.1612905 2.52604,-2.833982 0.27277,-0.3662832 0.8833,-0.6895442 1.26289,-0.9446636 1.20943,-0.814044 -0.65264,0.1420375 1.05281,-1.1335691 0.65355,-0.4889558 0.50709,0.073987 0.84119,-0.3777923 1.50279,-2.02302531 3.67058,-3.01481202 5.89446,-4.3454347 0.45676,-0.273479 1.16477,-1.1671103 1.68402,-1.3225385 1.18271,-0.3536775 2.57137,-0.9581272 3.78939,-1.3225289 0.0915,-0.028314 0.14004,-0.1257789 0.20962,-0.1888963 0.14004,-0.062113 0.26909,-0.1548255 0.42105,-0.1889877 0.51258,-0.1156393 1.18774,-0.039273 1.68411,-0.1890791 0.40824,-0.121942 0.75332,-0.2864489 1.262792,-0.3777915 0.0915,-0.015528 6.413762,-0.1448697 6.736594,0 0.176664,0.080383 0.227928,0.3345867 0.421058,0.3777915 0.203203,0.045671 0.4238,-0.030143 0.631574,0 0.57026,-0.3210682 0.544624,0.2887341 0.841192,0.3777926 0.199542,0.059371 0.443027,-0.084943 0.631577,0 0.374372,0.1677051 0.678269,0.3990751 1.052822,0.5668716 0.169335,0.074899 0.455829,-0.062113 0.631576,0 0.07317,0.029229 2.246137,0.6933806 2.315697,0.7557678 0.114421,0.099111 0.101608,0.2785032 0.210522,0.3777915 0.153786,0.1375627 0.844856,0.00255 1.052822,0.1890791 0.05496,0.044757 0,0.1257788 0,0.1888963 0.06412,0.062113 0.127233,0.1395714 0.209605,0.1890791 0.140046,0.062113 0.280093,0.1257788 0.421055,0.1889876 0.07317,0 0.147373,-0.028314 0.209617,0 0.251708,0.1130821 0.37894,0.4535153 0.631576,0.5668717 0.351483,0.1577484 1.118994,0.2484509 1.473588,0.5668705 0.114421,0.099111 0.07328,0.29996854 0.209616,0.37779257 0.114411,0.0694256 0.309382,-0.0748986 0.421055,0 0.202288,0.13628303 0.241643,0.40629183 0.421044,0.56687166 0.590389,0.5298769 1.747919,0.62405188 2.315697,1.13356893 0.435699,0.39103674 -0.665445,-0.0155284 0.210532,0.37779244 0.07328,0.034713 1.430017,0.7165817 1.473588,0.7557669 0.25172,0.2265297 0.771634,0.8813637 1.052727,1.1335602 0.80366,0.7207833 1.985355,1.4852557 2.526218,2.4561255 0.429298,0.7701084 0.849437,1.7139867 1.262887,2.4561259 0.127233,0.2266203 0.505269,0.3400673 0.631576,0.566871 0.101608,0.178026 0.09149,0.4011757 0.210532,0.566871 0.03664,0.052069 0.172083,-0.052069 0.209606,0 0.127233,0.1656954 0.09149,0.4011766 0.209616,0.566872 0.03664,0.052069 0.162009,-0.044761 0.210523,0 0.221512,0.1992174 0.247138,0.5214734 0.421053,0.7557664 0.07328,0.06211 0.140046,0.125779 0.209617,0.18908 0.07328,0 0.160176,-0.04476 0.209606,0 0.101608,0.0886 -0.101608,0.288733 0,0.377792 0.155607,0.140027 0.370708,0.143315 0.631576,0.377792 0.221513,0.199218 0.198635,0.55655 0.421054,0.755768 0.05496,0.04475 0.162019,-0.04476 0.210533,0 0.220586,0.19803 0.260867,0.801347 0.421054,0.944654 0.05496,0.04476 0.162008,-0.04476 0.210522,0 0.221513,0.199218 0.232494,0.530517 0.421054,0.755768 0.518987,0.621219 0.995511,0.867844 1.473685,1.51147 0.127233,0.165696 0.09149,0.401177 0.210521,0.566872 0.389933,0.52394 0.748563,0.965499 1.052812,1.511471 0.437893,0.786276 -0.01278,-0.201867 0.421416,0.188897 0.02566,0.02376 0.210064,1.100794 0.210064,1.322528"
           id="path64727-0" />
        <path
           style="font-size:5.65978px;line-height:1.25;font-family:'Eras Medium ITC';-inkscape-font-specification:'Eras Medium ITC';fill:none;fill-opacity:1;stroke:#000000;stroke-width:3.1909px;stroke-linecap:butt;stroke-linejoin:miter;stroke-opacity:1"
           d="m -127.46607,17.159211 c 0.0731,0.377793 0.0915,0.766638 0.20961,1.133569 0.76247,2.280859 0.0367,-0.307184 0.84119,1.13357 0.10161,0.190814 0.56752,1.224528 0.63158,1.511452 0.0367,0.185335 -0.064,0.387567 0,0.566872 0.0733,0.215569 0.32678,0.355962 0.42106,0.566872 0.36064,0.807101 0.46223,1.573428 1.05282,2.456133 0.23066,0.345824 0.62791,0.590713 0.84118,0.944656 1.39139,0.03197 0.27095,0.918877 0.42105,1.322529 0.18215,0.490143 0.54463,0.732749 0.84119,1.133569 0.85217,1.147032 -0.60595,-0.591625 0.42106,0.944654 0.29748,0.445478 1.24247,0.822356 1.47368,1.133569 0.0731,0.105404 -0.055,0.258408 0,0.377792 0.12724,0.329747 2.02636,2.1613 2.52604,2.833982 0.27277,0.366284 0.8833,0.689545 1.26289,0.944664 1.20943,0.814044 -0.65264,-0.142038 1.05281,1.133569 0.65355,0.488956 0.50709,-0.07398 0.84119,0.377793 1.50279,2.023034 3.67058,3.014822 5.89446,4.345434 0.45676,0.27348 1.16477,1.16711 1.68402,1.322539 1.18271,0.353677 2.57137,0.958127 3.78939,1.322529 0.0915,0.02831 0.14004,0.125778 0.20962,0.188896 0.14004,0.06211 0.26909,0.154825 0.42105,0.189078 0.51258,0.115641 1.18774,0.03928 1.68411,0.188896 0.40824,0.121943 0.75332,0.286633 1.262792,0.377793 0.0915,0.01553 6.413762,0.14487 6.736594,0 0.176664,-0.08038 0.227928,-0.334588 0.421058,-0.377793 0.203203,-0.04567 0.4238,0.03014 0.631574,0 0.57026,0.321069 0.544624,-0.288733 0.841192,-0.377792 0.199542,-0.05937 0.443027,0.08495 0.631577,0 0.374372,-0.167704 0.678269,-0.399075 1.052822,-0.566871 0.169335,-0.0749 0.455829,0.06211 0.631576,0 0.07317,-0.02923 2.246137,-0.69338 2.315697,-0.755767 0.114421,-0.09911 0.101608,-0.278504 0.210522,-0.377793 0.153786,-0.137562 0.844856,-0.0025 1.052822,-0.189078 0.05496,-0.04475 0,-0.125779 0,-0.188896 0.06412,-0.06211 0.127233,-0.139663 0.209605,-0.189079 0.140046,-0.06211 0.280093,-0.125779 0.421055,-0.188896 0.07317,0 0.147373,0.02831 0.209617,0 0.251708,-0.113082 0.37894,-0.453516 0.631576,-0.566872 0.351483,-0.157749 1.118994,-0.248452 1.473588,-0.566871 0.114421,-0.09911 0.07328,-0.299969 0.209616,-0.377792 0.114411,-0.06941 0.309382,0.0749 0.421055,0 0.202288,-0.136283 0.241643,-0.406292 0.421044,-0.566872 0.590389,-0.529878 1.747919,-0.624052 2.315697,-1.133569 0.435699,-0.391036 -0.665445,0.01553 0.210532,-0.377793 0.07328,-0.03471 1.430017,-0.716581 1.473588,-0.755767 0.25172,-0.226529 0.771634,-0.881546 1.052727,-1.13356 0.80366,-0.720783 1.985355,-1.485256 2.526218,-2.456125 0.429298,-0.770108 0.849437,-1.713986 1.262887,-2.456116 0.127233,-0.226622 0.505269,-0.340069 0.631576,-0.566872 0.101608,-0.177935 0.09149,-0.401176 0.210532,-0.566871 0.03664,-0.05207 0.172083,0.05207 0.209606,0 0.127233,-0.165696 0.09149,-0.401176 0.209616,-0.566871 0.03664,-0.05207 0.162009,0.04476 0.210523,0 0.221512,-0.199219 0.247138,-0.521474 0.421053,-0.755768 0.07328,-0.06211 0.140046,-0.125779 0.209617,-0.188896 0.07328,0 0.160176,0.04476 0.209606,0 0.101608,-0.0886 -0.101608,-0.288733 0,-0.377793 0.155607,-0.140027 0.370708,-0.143316 0.631576,-0.377792 0.221513,-0.199309 0.198635,-0.55655 0.421054,-0.755767 0.05496,-0.04476 0.162019,0.04476 0.210533,0 0.220586,-0.198031 0.260867,-0.801347 0.421054,-0.944665 0.05496,-0.04475 0.162008,0.04476 0.210522,0 0.221513,-0.199217 0.232494,-0.530516 0.421054,-0.755766 0.518987,-0.62122 0.995511,-0.867846 1.473685,-1.511463 0.127233,-0.165695 0.09149,-0.401175 0.210521,-0.566871 0.389933,-0.52394 0.748563,-0.96549 1.052812,-1.511471 0.437893,-0.786276 -0.01278,0.201867 0.421416,-0.189079 0.02566,-0.02376 0.210064,-1.100786 0.210064,-1.322519"
           id="path64809-3" />
        <path
           style="font-size:5.65978px;line-height:1.25;font-family:'Eras Medium ITC';-inkscape-font-specification:'Eras Medium ITC';opacity:1;fill:#2f4ca5;fill-opacity:1;stroke:none;stroke-width:1.00157;stroke-miterlimit:4;stroke-dasharray:none;stroke-dashoffset:0;stroke-opacity:1;paint-order:stroke fill markers"
           id="path64833-9"
           sodipodi:type="arc"
           sodipodi:cx="-95.544098"
           sodipodi:cy="19.725698"
           sodipodi:rx="14.736859"
           sodipodi:ry="13.225946"
           sodipodi:start="0.76163725"
           sodipodi:end="0.76131262"
           sodipodi:open="true"
           sodipodi:arc-type="arc"
           d="m -84.878928,28.85302 a 14.736859,13.225946 0 0 1 -20.834322,0.445131 14.736859,13.225946 0 0 1 -0.49767,-18.69822 14.736859,13.225946 0 0 1 20.834239,-0.448166 14.736859,13.225946 0 0 1 0.501054,18.698147" />
        <path
           style="font-size:5.65978px;line-height:1.25;font-family:'Eras Medium ITC';-inkscape-font-specification:'Eras Medium ITC';opacity:1;fill:#ffffff;fill-opacity:1;stroke:none;stroke-width:1.00157;stroke-miterlimit:4;stroke-dasharray:none;stroke-dashoffset:0;stroke-opacity:1;paint-order:stroke fill markers"
           id="path951"
           sodipodi:type="arc"
           sodipodi:cx="-95.125694"
           sodipodi:cy="20.553658"
           sodipodi:rx="3.5638309"
           sodipodi:ry="3.1984451"
           sodipodi:start="0.76163725"
           sodipodi:end="0.76131262"
           sodipodi:open="true"
           sodipodi:arc-type="arc"
           d="m -92.546525,22.760928 a 3.5638309,3.1984451 0 0 1 -5.038385,0.107646 3.5638309,3.1984451 0 0 1 -0.120353,-4.521811 3.5638309,3.1984451 0 0 1 5.038366,-0.10838 3.5638309,3.1984451 0 0 1 0.121171,4.521793" />
      </g>
    </g>
    <g
       aria-label="TM"
       id="text6353-5"
       style="font-size:3.03538px;line-height:1.65;letter-spacing:0.00678142px;word-spacing:0.00271257px;fill:#4a67be;fill-opacity:1;stroke:none;stroke-width:0.1;stroke-miterlimit:4;stroke-dasharray:none;stroke-opacity:1"
       transform="matrix(1.0433305,0,0,1.0433305,2.4014551,0.18837884)" />
  </g>
</svg>
