<?xml version="1.0" encoding="UTF-8" standalone="no"?>
<svg
   role="img"
   viewBox="0 0 24 24"
   version="1.1"
   id="svg6"
   sodipodi:docname="mastercard (copy).svg"
   inkscape:version="1.1.2 (0a00cf5339, 2022-02-04, custom)"
   xmlns:inkscape="http://www.inkscape.org/namespaces/inkscape"
   xmlns:sodipodi="http://sodipodi.sourceforge.net/DTD/sodipodi-0.dtd"
   xmlns="http://www.w3.org/2000/svg"
   xmlns:svg="http://www.w3.org/2000/svg">
  <defs
     id="defs10" />
  <sodipodi:namedview
     id="namedview8"
     pagecolor="#ffffff"
     bordercolor="#666666"
     borderopacity="1.0"
     inkscape:pageshadow="2"
     inkscape:pageopacity="0.0"
     inkscape:pagecheckerboard="0"
     showgrid="false"
     inkscape:zoom="11.0625"
     inkscape:cx="14.463277"
     inkscape:cy="15.00565"
     inkscape:window-width="1366"
     inkscape:window-height="713"
     inkscape:window-x="0"
     inkscape:window-y="24"
     inkscape:window-maximized="1"
     inkscape:current-layer="g20" />
  <title
     id="title2">MasterCard</title>
  <style
     type="text/css"
     id="style2">
	.st0{fill:#006E9C;}
	.st1{fill:#FFD200;}
</style>
  <g
     id="g20"
     style="fill:#535d6c"
     transform="matrix(0.0279628,0,0,0.0279628,-2.4085648,1.2484385)">
	
	
	
	
	
	
	
	<g
   id="g1363"
   transform="matrix(1.0172703,0,0,1.0172703,-4.9735531,-4.6249914)">
  <path
     class="st0"
     d="m 612.9,391.1 c 2.1,-6.7 3.9,-13.4 6,-20.4 2.6,-8.8 5,-17.4 7.7,-26.1 1.9,-6.2 5,-8.6 11.4,-8.6 4.5,0 9,0 13.4,0 5.8,0 9.2,2.4 10.8,8 4.3,14.2 8.4,28.6 12.5,42.8 0.4,1.3 0.9,2.8 1.9,4.1 0.7,-2.2 1.3,-4.3 2.1,-6.5 3.7,-12.7 7.5,-25.6 11.4,-38.3 2.2,-7.5 6,-10.3 13.6,-10.3 4.9,0 9.7,0 14.4,0 4.1,0 5.8,1.9 4.9,5.8 -1.3,5 -3,10.1 -4.5,14.9 -7.3,22.8 -14.8,45.8 -22,68.5 -2.1,6.2 -6,8.8 -12.3,9 -3.5,0 -7.1,0 -10.6,0 -6.3,0 -10.5,-3 -12.3,-9 -5,-16.2 -10.3,-32.5 -15.3,-48.7 -0.2,-0.9 -0.6,-1.7 -1.1,-3.4 -0.6,1.5 -0.7,2.2 -1.1,3 -5.2,16.2 -10.3,32.7 -15.5,48.9 -1.9,6.2 -6,9 -12.5,9 -3.7,0 -7.3,0 -11,0 -6,0 -9.9,-3 -11.8,-8.6 -8,-24.8 -15.9,-49.5 -23.9,-74.3 -0.7,-2.6 -1.7,-5 -2.4,-7.7 -0.4,-1.3 -0.6,-2.6 -0.6,-3.9 0,-2.6 1.3,-3.9 3.9,-3.9 6,0 11.8,-0.2 17.7,0 5.4,0.2 9.3,3.4 11,8.6 4.3,14.6 8.6,29.1 13.1,43.7 0.2,0.9 0.6,1.7 0.7,2.6 -0.1,0.8 0.1,0.8 0.4,0.8 z"
     id="path4-3"
     style="fill:#535d6c" />
  <path
     class="st0"
     d="m 528.9,426.6 c -1.5,0.9 -2.8,1.7 -4.1,2.4 -9.3,5.8 -19.8,7.7 -30.6,7.3 -7.1,-0.4 -13.8,-1.5 -20.4,-4.5 -11.8,-5.4 -18.3,-15.5 -17.9,-27.5 0.4,-13.4 7.3,-22.2 19.6,-27.1 6.5,-2.6 13.4,-3.7 20.5,-3.7 9.2,0 18.5,0 27.6,0 2.4,0 3,-0.7 2.8,-3 -1.3,-11.4 -6,-15.9 -17.6,-15.9 -4.7,0 -9.2,0.6 -13.3,2.8 -1.5,0.9 -3,2.1 -4.3,3.4 -2.8,3.2 -6.2,4.7 -10.3,4.7 -3.9,0 -7.8,0 -11.8,0 -4.7,0 -6.7,-2.4 -6.3,-7.1 0.7,-9.2 5.6,-15.1 13.8,-18.9 6.7,-3 13.8,-4.1 21.1,-4.9 10.1,-0.7 20.2,-1.1 30.1,1.5 10.8,2.6 19.6,8 24.8,18.3 2.8,5.6 3.9,11.4 3.9,17.6 0,18.7 0,37.4 0,56.2 0,4.5 -1.9,6.2 -6.2,6.2 -4.9,0 -9.7,0 -14.4,0 -4.9,0 -6.5,-1.5 -6.7,-6.5 -0.1,-0.2 -0.1,-0.6 -0.3,-1.3 z m -17.7,-32.7 c -4.5,0.2 -9.2,0 -13.6,0.2 -4.5,0.2 -8.2,2.2 -10.3,6.5 -3,6.3 0.7,13.3 8,14.8 11,2.2 20.9,-1.3 30.3,-6.9 0.6,-0.4 0.9,-1.5 0.9,-2.4 0.2,-3.2 0,-6.5 0,-9.7 0,-1.9 -0.7,-2.4 -2.4,-2.4 -4.4,-0.1 -8.6,-0.1 -12.9,-0.1 z"
     id="path6"
     style="fill:#535d6c" />
  <path
     class="st0"
     d="m 870.1,427.1 c -3,-0.4 -5.6,-0.6 -8,-1.1 -8.4,-1.5 -15.1,-5.8 -20.4,-12.5 -5.8,-7.5 -9.3,-15.9 -12.1,-24.7 -4.9,-15.5 -9.5,-31 -14,-46.5 -1.1,-3.7 0.6,-6 4.5,-6 5.6,0 11.4,0 17,0 4.5,0 7.5,2.2 8.8,6.7 4.3,13.8 8.4,27.6 12.7,41.5 1.7,5.6 3.9,11 7.7,15.7 2,2.4 4.5,4.3 7.7,4.9 1.9,0.4 2.8,0 3.4,-2.1 5,-18.3 10.1,-36.6 15.1,-54.9 0.6,-1.9 1.1,-3.9 1.7,-5.8 1.1,-3.9 3.9,-6 8,-6 5.6,0 11.2,0 16.8,0 4.3,0 6,2.2 4.9,6.2 -8,29.1 -15.9,58.5 -24.1,87.6 -1.9,6.7 -4.9,13.3 -8,19.4 -6,11.4 -15.9,17.4 -28.8,17.2 -7.8,0 -15.7,-0.9 -23.5,-1.9 -3.9,-0.4 -5.6,-2.6 -5.6,-6.5 0,-3 0,-5.8 0,-8.8 0,-3.5 2.1,-5.6 5.6,-5.6 3.7,0.2 7.7,0.6 11.4,1.1 5.4,0.9 10.1,-0.6 13.6,-4.7 2.6,-3.6 4.3,-8.1 5.6,-13.2 z"
     id="path8"
     style="fill:#535d6c" />
  <path
     class="st0"
     d="m 380.8,385.1 c 0,-14.2 -0.4,-28.2 0.2,-42.4 0.2,-5.6 1.5,-11.4 3.2,-16.8 3.7,-11.2 12.5,-17 23.5,-19.6 12.1,-3 24.5,-2.8 36.8,-1.7 3.2,0.2 6.3,0.7 9.3,1.3 3.9,0.7 5.6,2.8 5.6,6.7 0,2.8 0,5.4 0,8.2 -0.2,3.9 -2.1,6 -6.2,6 -2.8,0 -5.6,-0.2 -8.4,-0.7 -7.5,-1.5 -14.9,-0.9 -22.2,0.9 -7.1,1.7 -10.5,6 -11.4,14.2 -0.4,2.4 -0.4,5 -0.6,7.5 -0.2,2.2 0.6,3 3,3 9.2,-0.2 18.5,0 27.6,0 4.9,0 6.5,1.7 6.7,6.5 0,3 0,6 0,9 0,3.9 -2.1,6 -6.2,6 -9.3,0 -18.9,0 -28.2,0 -2.2,0 -3,0.7 -3,3 0,17.2 0,34.4 0,51.7 0,5.2 -1.7,6.9 -6.9,6.9 -5.4,0 -11,0 -16.4,0 -5,0 -6.7,-1.7 -6.7,-6.7 0.1,-14.6 0.1,-28.8 0.3,-43 z"
     id="path10"
     style="fill:#535d6c" />
  <path
     class="st0"
     d="m 766.1,347.2 c 2.8,-1.9 4.9,-3.4 6.9,-4.7 9.7,-6.3 20.5,-8.2 31.9,-8.2 3.2,0 5.2,2.1 5.4,5.4 0.2,4.5 0.2,9.2 0,13.6 -0.2,3.5 -2.1,5.4 -5.6,5.4 -4.1,0 -8.4,0 -12.5,-0.4 -8.2,-0.7 -14.9,2.2 -21.1,7.7 -3.7,3.4 -5.4,6.9 -5.2,12.1 0.4,16.4 0.2,32.9 0.2,49.5 0,5.2 -1.7,6.9 -7.1,6.9 -5.8,0 -11.4,0 -17.2,0 -3.9,0 -6,-2.1 -6,-6 0,-28.8 0,-57.5 0,-86.3 0,-3.9 2.1,-6 6,-6 6.2,0 12.3,0 18.5,0 3.7,0 5.6,2.1 5.8,5.8 0,1.5 0,3 0,5.2 z"
     id="path12"
     style="fill:#535d6c" />
  <path
     class="st1"
     d="m 333.9,384.4 c 0,64.4 -52.1,116.5 -116.5,116.5 -12.3,0 -24.1,-1.9 -35.1,-5.4 -16.6,-5.2 -31.7,-14.2 -44.3,-26 -23,-21.1 -37.2,-51.5 -37.2,-85.2 0,-64.4 52.1,-116.5 116.5,-116.5 14,0 27.3,2.4 39.6,6.9 16.1,5.8 30.6,15.1 42.4,26.9 21.4,21.3 34.6,50.5 34.6,82.8 z"
     id="path14"
     style="fill:#535d6c" />
  <path
     class="st0"
     d="m 271.4,433.9 -15.7,-7.8 c 0,0 -26.7,48.7 -73.6,69.5 -16.6,-5.2 -31.7,-14.2 -44.3,-26 10.3,-1.5 26.9,-6.7 44.3,-23.9 28.6,-28 35.1,-43.5 35.1,-43.5 L 204.9,394 c -4.3,-2.8 -3.4,-9.2 1.3,-10.8 L 260,364.5 c 3.7,-1.3 7.7,1.1 8,5 l 8,60.9 c 0.8,2.7 -2,4.8 -4.6,3.5 z"
     id="path16"
     style="fill:#6f7c91" />
  <path
     class="st0"
     d="m 287.6,366.4 c -1.3,3.4 -6.2,2.8 -6.7,-0.7 l -3.5,-20.5 -26.5,8.2 c -3,0.9 -5.6,-2.1 -4.3,-4.9 3.5,-7.5 8.6,-20 12.7,-36 3.7,-15.3 1.1,-28.8 -2.1,-37.5 16.1,5.8 30.6,15.1 42.4,26.9 2,24.2 -6.4,50.2 -12,64.5 z"
     id="path18"
     style="fill:#6f7c91" />
</g>

</g>
</svg>
