<?xml version="1.0" encoding="UTF-8" standalone="no"?>
<svg
   role="img"
   viewBox="0 0 24 24"
   version="1.1"
   id="svg6"
   sodipodi:docname="mastercard.svg"
   inkscape:version="1.1.2 (0a00cf5339, 2022-02-04, custom)"
   xmlns:inkscape="http://www.inkscape.org/namespaces/inkscape"
   xmlns:sodipodi="http://sodipodi.sourceforge.net/DTD/sodipodi-0.dtd"
   xmlns="http://www.w3.org/2000/svg"
   xmlns:svg="http://www.w3.org/2000/svg">
  <defs
     id="defs10" />
  <sodipodi:namedview
     id="namedview8"
     pagecolor="#ffffff"
     bordercolor="#666666"
     borderopacity="1.0"
     inkscape:pageshadow="2"
     inkscape:pageopacity="0.0"
     inkscape:pagecheckerboard="0"
     showgrid="false"
     inkscape:zoom="15.644738"
     inkscape:cx="10.546677"
     inkscape:cy="12.400336"
     inkscape:window-width="1366"
     inkscape:window-height="713"
     inkscape:window-x="0"
     inkscape:window-y="24"
     inkscape:window-maximized="1"
     inkscape:current-layer="svg6" />
  <title
     id="title2">MasterCard</title>
  <path
     d="m 11.556601,14.525441 c 0.02886,0.02438 0.05972,0.04877 0.09007,0.07266 -0.585706,0.389641 -1.288852,0.616061 -2.0437508,0.616061 -2.0387749,4.93e-4 -3.6908942,-1.651626 -3.6908942,-3.689903 0,-2.0377805 1.6521193,-3.6903974 3.6903966,-3.6903974 0.7553964,0 1.4585424,0.2269176 2.0427554,0.6160614 -0.02986,0.025379 -0.05972,0.048767 -0.08211,0.074644 -0.873831,0.754899 -1.373946,1.84918 -1.373946,2.999692 0,1.150014 0.498124,2.244294 1.367477,3.001184 z m 2.60806,-6.6915814 c -0.756393,0 -1.458543,0.2269176 -2.042756,0.6160614 0.02986,0.025379 0.05972,0.048767 0.08211,0.074644 0.873831,0.754899 1.373946,1.84918 1.373946,2.999692 0,1.149516 -0.498124,2.242801 -1.367477,3.001184 -0.02886,0.02438 -0.05972,0.04877 -0.09007,0.07266 0.585707,0.389641 1.287857,0.616061 2.043752,0.616061 2.038775,4.93e-4 3.690894,-1.651626 3.690894,-3.689903 0,-2.0372831 -1.652119,-3.6903977 -3.690396,-3.6903977 z m -2.28112,0.7912258 c -0.04777,0.037322 -0.09405,0.074644 -0.139335,0.1149517 -0.778287,0.6762741 -1.269445,1.6720249 -1.269445,2.7842199 0,1.112692 0.491158,2.107945 1.269445,2.784219 0.04478,0.03981 0.09206,0.07863 0.139335,0.115449 0.04777,-0.03682 0.09405,-0.07564 0.139335,-0.115449 0.777791,-0.676274 1.269446,-1.671527 1.269446,-2.784219 0,-1.112195 -0.491158,-2.1079458 -1.269446,-2.7842199 -0.04478,-0.03981 -0.09156,-0.077629 -0.139335,-0.1149517 z"
     id="path4"
     style="fill:#535d6c;stroke-width:0.497626" />
</svg>
