<?xml version="1.0" encoding="UTF-8" standalone="no"?>
<svg
   role="img"
   viewBox="0 0 24 24"
   version="1.1"
   id="svg6"
   sodipodi:docname="paypal.svg"
   inkscape:version="1.1.2 (0a00cf5339, 2022-02-04, custom)"
   xmlns:inkscape="http://www.inkscape.org/namespaces/inkscape"
   xmlns:sodipodi="http://sodipodi.sourceforge.net/DTD/sodipodi-0.dtd"
   xmlns="http://www.w3.org/2000/svg"
   xmlns:svg="http://www.w3.org/2000/svg">
  <defs
     id="defs10">
    <clipPath
       clipPathUnits="userSpaceOnUse"
       id="clipPath16">
      <path
         d="M 0,0 H 2500 V 812 H 0 Z"
         id="path14" />
    </clipPath>
  </defs>
  <sodipodi:namedview
     id="namedview8"
     pagecolor="#ffffff"
     bordercolor="#666666"
     borderopacity="1.0"
     inkscape:pageshadow="2"
     inkscape:pageopacity="0.0"
     inkscape:pagecheckerboard="0"
     showgrid="false"
     inkscape:zoom="11.0625"
     inkscape:cx="5.8757062"
     inkscape:cy="5.3333333"
     inkscape:window-width="1366"
     inkscape:window-height="713"
     inkscape:window-x="0"
     inkscape:window-y="24"
     inkscape:window-maximized="1"
     inkscape:current-layer="g12" />
  <title
     id="title2">PayPal</title>
  <g
     id="g10"
     transform="matrix(0.01039405,0,0,-0.01039405,-0.74083948,15.918517)"
     style="fill:#6f7c91">
    <g
       id="g12"
       clip-path="url(#clipPath16)"
       style="fill:#6f7c91">
      <g
         id="g18"
         transform="matrix(0.90307819,0,0,0.90307819,569.27156,669.8499)"
         style="fill:#6f7c91">
        <path
           d="m 0,0 c -26.653,30.378 -74.832,43.402 -136.464,43.402 h -178.879 c -12.605,0.007 -23.342,-9.156 -25.316,-21.605 l -74.449,-472.41 c -1.319,-8.374 4.4,-16.231 12.773,-17.55 0.794,-0.125 1.597,-0.188 2.4,-0.187 h 110.432 l 27.736,175.918 -0.86,-5.509 c 1.937,12.425 12.629,21.591 25.204,21.606 h 52.478 c 103.092,0 183.815,41.873 207.394,163.005 0.701,3.582 1.306,7.069 1.831,10.476 7.006,44.772 -0.047,75.246 -24.264,102.838"
           style="fill:#6f7c91;fill-opacity:1;fill-rule:nonzero;stroke:none"
           id="path20" />
      </g>
      <g
         id="g22"
         transform="matrix(0.90307819,0,0,0.90307819,1777.3057,571.2856)"
         style="fill:#6f7c91">
        <path
           d="m 0,0 h -123.488 c -8.449,-0.004 -15.642,-6.145 -16.972,-14.489 l -49.899,-316.633 c -0.879,-5.62 2.965,-10.89 8.586,-11.769 0.52,-0.082 1.046,-0.123 1.572,-0.124 h 63.368 c 5.907,0 10.938,4.299 11.862,10.126 l 14.17,89.798 c 1.306,8.327 8.502,14.489 16.941,14.489 h 39.072 c 81.359,0 128.296,39.342 140.555,117.374 5.525,34.104 0.223,60.916 -15.746,79.687 C 72.46,-10.906 41.333,0.016 0.016,0.016 M 14.25,-115.655 c -6.751,-44.325 -40.6,-44.325 -73.335,-44.325 h -18.628 l 13.071,82.76 c 0.796,5 5.095,8.678 10.158,8.678 h 8.55 c 22.29,0 43.339,0 54.197,-12.69 6.48,-7.595 8.439,-18.867 5.987,-34.423"
           style="fill:#6f7c91;fill-opacity:1;fill-rule:nonzero;stroke:none"
           id="path24" />
      </g>
      <g
         id="g26"
         transform="matrix(0.90307819,0,0,0.90307819,1315.2252,468.13456)"
         style="fill:#6f7c91">
        <path
           d="m 0,0 h -59.133 c -5.079,0.006 -9.405,-3.691 -10.19,-8.709 l -2.579,-16.527 -4.14,5.987 c -12.801,18.58 -41.348,24.806 -69.848,24.806 -65.326,0 -121.131,-49.517 -131.99,-118.935 -5.652,-34.661 2.372,-67.762 22.02,-90.864 18.039,-21.224 43.784,-30.06 74.465,-30.06 52.669,0 81.869,33.817 81.869,33.817 l -2.643,-16.431 c -0.888,-5.611 2.94,-10.879 8.551,-11.767 0.537,-0.085 1.079,-0.127 1.623,-0.126 h 53.242 c 8.438,0 15.635,6.129 16.956,14.488 L 10.174,-11.909 C 11.053,-6.288 7.21,-1.019 1.589,-0.14 1.058,-0.057 0.521,-0.015 -0.016,-0.016 M -82.41,-115.113 c -5.732,-33.786 -32.528,-56.474 -66.744,-56.474 -17.147,0 -30.888,5.525 -39.708,15.969 -8.757,10.349 -12.037,25.109 -9.267,41.524 5.318,33.499 32.576,56.904 66.266,56.904 16.798,0 30.411,-5.573 39.422,-16.113 9.06,-10.62 12.626,-25.459 10.031,-41.81 m -286.701,229.335 h -123.488 c -8.438,0 -15.635,-6.146 -16.956,-14.489 L -559.469,-216.9 c -0.888,-5.611 2.94,-10.879 8.55,-11.767 0.532,-0.084 1.069,-0.126 1.608,-0.126 h 58.973 c 8.439,0 15.619,6.145 16.941,14.488 l 13.486,85.42 c 1.305,8.343 8.502,14.488 16.94,14.488 h 39.072 c 81.359,0 128.296,39.358 140.556,117.39 5.524,34.104 0.223,60.916 -15.747,79.688 -17.561,20.634 -48.688,31.557 -90.005,31.557 m 14.234,-115.671 c -6.75,-44.326 -40.6,-44.326 -73.35,-44.326 h -18.629 l 13.072,82.761 c 0.796,4.999 5.095,8.677 10.158,8.677 h 8.55 c 22.29,0 43.338,0 54.197,-12.689 6.496,-7.595 8.454,-18.868 6.002,-34.423"
           style="fill:#6f7c91;fill-opacity:1;fill-rule:nonzero;stroke:none"
           id="path28" />
      </g>
      <g
         id="g30"
         transform="matrix(0.90307819,0,0,0.90307819,2110.6412,468.13456)"
         style="fill:#6f7c91">
        <path
           d="m 0,0 h -59.133 c -5.079,0.006 -9.405,-3.691 -10.19,-8.709 l -2.579,-16.527 -4.14,5.987 c -12.801,18.58 -41.348,24.806 -69.848,24.806 -65.31,0 -121.115,-49.517 -131.99,-118.935 -5.652,-34.661 2.389,-67.762 22.036,-90.864 18.039,-21.224 43.784,-30.06 74.465,-30.06 52.685,0 81.885,33.817 81.885,33.817 l -2.643,-16.431 c -0.906,-5.59 2.892,-10.856 8.482,-11.761 0.549,-0.089 1.104,-0.134 1.66,-0.132 h 53.226 c 8.438,0 15.635,6.129 16.972,14.488 l 31.971,202.412 c 0.879,5.621 -2.965,10.89 -8.586,11.769 -0.53,0.083 -1.067,0.125 -1.604,0.124 M -82.41,-115.113 c -5.732,-33.786 -32.528,-56.474 -66.744,-56.474 -17.147,0 -30.888,5.525 -39.708,15.969 -8.757,10.349 -12.037,25.109 -9.266,41.524 5.317,33.499 32.559,56.904 66.265,56.904 16.798,0 30.411,-5.573 39.422,-16.113 9.06,-10.62 12.626,-25.459 10.031,-41.81"
           style="fill:#6f7c91;fill-opacity:1;fill-rule:nonzero;stroke:none"
           id="path32" />
      </g>
      <g
         id="g34"
         transform="matrix(0.90307819,0,0,0.90307819,1599.6454,468.1202)"
         style="fill:#6f7c91">
        <path
           d="m 0,0 h -59.451 c -5.684,0 -10.986,-2.818 -14.17,-7.531 l -81.997,-120.749 -34.757,116.036 c -2.177,7.268 -8.86,12.249 -16.447,12.26 h -58.416 c -5.689,-0.003 -10.299,-4.617 -10.296,-10.306 0,-1.131 0.187,-2.253 0.552,-3.323 l 65.438,-192.11 -61.553,-86.852 c -3.28,-4.649 -2.17,-11.076 2.478,-14.356 1.735,-1.224 3.806,-1.882 5.929,-1.884 h 59.387 c 5.605,0 10.875,2.754 14.091,7.371 L 8.439,-16.16 c 3.244,4.662 2.095,11.072 -2.567,14.317 C 4.148,-0.644 2.1,-0.001 0,0"
           style="fill:#6f7c91;fill-opacity:1;fill-rule:nonzero;stroke:none"
           id="path36" />
      </g>
      <g
         id="g38"
         transform="matrix(0.90307819,0,0,0.90307819,2173.576,563.4206)"
         style="fill:#6f7c91">
        <path
           d="m 0,0 -50.695,-322.428 c -0.879,-5.621 2.965,-10.891 8.586,-11.77 0.525,-0.082 1.057,-0.124 1.588,-0.124 h 50.966 c 8.438,0 15.635,6.146 16.956,14.489 L 77.379,-3.184 c 0.888,5.61 -2.94,10.879 -8.55,11.767 -0.537,0.085 -1.08,0.127 -1.624,0.126 H 10.174 C 5.101,8.722 0.779,5.029 0,0.016"
           style="fill:#6f7c91;fill-opacity:1;fill-rule:nonzero;stroke:none"
           id="path40" />
      </g>
      <g
         id="g42"
         transform="matrix(0.90307819,0,0,0.90307819,569.27156,669.8499)"
         style="fill:#6f7c91">
        <path
           d="m 0,0 c -26.653,30.378 -74.832,43.402 -136.464,43.402 h -178.879 c -12.605,0.007 -23.342,-9.156 -25.316,-21.605 l -74.449,-472.41 c -1.319,-8.374 4.4,-16.231 12.773,-17.55 0.794,-0.125 1.597,-0.188 2.4,-0.187 h 110.432 l 27.736,175.918 -0.86,-5.509 c 1.937,12.425 12.629,21.591 25.204,21.606 h 52.478 c 103.092,0 183.815,41.873 207.394,163.005 0.701,3.582 1.306,7.069 1.831,10.476 7.006,44.772 -0.047,75.246 -24.264,102.838"
           style="fill:#6f7c91;fill-opacity:1;fill-rule:nonzero;stroke:none"
           id="path44" />
      </g>
      <g
         id="g46"
         transform="matrix(0.90307819,0,0,0.90307819,359.77747,576.43305)"
         style="fill:#535d6c">
        <path
           d="m 0,0 c 1.729,10.877 11.102,18.887 22.115,18.899 h 140.238 c 16.606,0 32.098,-1.083 46.252,-3.344 7.739,-1.245 15.395,-2.957 22.927,-5.126 8.554,-2.405 16.831,-5.703 24.694,-9.84 7.038,44.788 -0.031,75.246 -24.248,102.854 -26.669,30.362 -74.832,43.386 -136.464,43.386 H -83.381 c -12.593,-0.009 -23.312,-9.168 -25.284,-21.606 l -74.481,-472.362 c -1.328,-8.372 4.382,-16.235 12.755,-17.563 0.794,-0.126 1.598,-0.189 2.402,-0.189 h 110.448 l 27.736,175.933 z"
           style="fill:#535d6c;fill-opacity:1;fill-rule:nonzero;stroke:none"
           id="path48" />
      </g>
      <g
         id="g50"
         transform="matrix(0.90307819,0,0,0.90307819,591.18439,576.97942)"
         style="fill:#6f7c91">
        <path
           d="m 0,0 c -0.547,-3.503 -1.157,-6.996 -1.831,-10.476 -23.58,-121.116 -104.302,-163.006 -207.395,-163.006 h -52.493 c -12.574,-0.009 -23.265,-9.18 -25.188,-21.605 l -26.876,-170.393 -7.642,-48.338 c -1.161,-7.331 3.84,-14.214 11.17,-15.375 0.698,-0.11 1.402,-0.165 2.108,-0.165 h 93.094 c 11.018,0 20.379,8.025 22.115,18.899 l 0.907,4.745 17.546,111.196 1.115,6.146 c 1.723,10.886 11.109,18.901 22.131,18.899 h 13.931 c 90.18,0 160.792,36.62 181.427,142.594 8.597,44.262 4.139,81.248 -18.629,107.216 C 18.261,-11.612 9.623,-4.948 0,0"
           style="fill:#6f7c91;fill-opacity:1;fill-rule:nonzero;stroke:none"
           id="path52" />
      </g>
      <g
         id="g54"
         transform="matrix(0.90307819,0,0,0.90307819,568.88333,585.85099)"
         style="fill:#535d6c">
        <path
           d="m 0,0 c -3.598,1.067 -7.308,2.022 -11.129,2.866 -3.821,0.844 -7.77,1.592 -11.814,2.229 -14.17,2.309 -29.646,3.391 -46.268,3.391 h -140.222 c -11.028,0.014 -20.418,-8.018 -22.115,-18.915 l -29.805,-188.989 -0.86,-5.493 c 1.923,12.426 12.614,21.597 25.188,21.606 h 52.494 c 103.092,0 183.815,41.873 207.394,163.005 0.701,3.582 1.29,7.053 1.831,10.476 C 18.467,-6.565 11.981,-3.828 5.302,-1.64 3.566,-1.067 1.799,-0.525 0,0.016"
           style="fill:#535d6c;fill-opacity:1;fill-rule:nonzero;stroke:none"
           id="path56" />
      </g>
    </g>
  </g>
</svg>
