<?xml version="1.0" encoding="UTF-8" standalone="no"?>
<svg
   role="img"
   viewBox="0 0 24 24"
   version="1.1"
   id="svg6"
   sodipodi:docname="visa.svg"
   inkscape:version="1.1.2 (0a00cf5339, 2022-02-04, custom)"
   xmlns:inkscape="http://www.inkscape.org/namespaces/inkscape"
   xmlns:sodipodi="http://sodipodi.sourceforge.net/DTD/sodipodi-0.dtd"
   xmlns="http://www.w3.org/2000/svg"
   xmlns:svg="http://www.w3.org/2000/svg">
  <defs
     id="defs10" />
  <sodipodi:namedview
     id="namedview8"
     pagecolor="#ffffff"
     bordercolor="#666666"
     borderopacity="1.0"
     inkscape:pageshadow="2"
     inkscape:pageopacity="0.0"
     inkscape:pagecheckerboard="0"
     showgrid="false"
     inkscape:zoom="15.644738"
     inkscape:cx="9.0765345"
     inkscape:cy="12.272497"
     inkscape:window-width="1366"
     inkscape:window-height="713"
     inkscape:window-x="0"
     inkscape:window-y="24"
     inkscape:window-maximized="1"
     inkscape:current-layer="svg6" />
  <title
     id="title2">Visa</title>
  <path
     d="M 9.7026987,9.092667 7.754882,13.739654 H 6.4840278 L 5.5256177,10.030619 C 5.4673444,9.8024856 5.4171302,9.7187952 5.2398305,9.6227062 4.9509436,9.4658641 4.4735983,9.318941 4.0539065,9.2271916 L 4.0824232,9.092667 H 6.1281886 A 0.56041572,0.56041572 0 0 1 6.682405,9.5662927 L 7.1888869,12.255544 8.4399034,9.092667 Z m 4.9798893,3.130021 c 0.005,-1.226839 -1.696125,-1.294412 -1.684347,-1.842428 0.0037,-0.166762 0.162421,-0.344061 0.509582,-0.389316 a 2.2689398,2.2689398 0 0 1 1.185923,0.208296 l 0.210776,-0.9856868 a 3.2279698,3.2279698 0 0 0 -1.12455,-0.2064364 c -1.188404,0 -2.024688,0.6323275 -2.032128,1.5368042 -0.0075,0.668903 0.596992,1.04148 1.05264,1.264655 0.468666,0.227514 0.626128,0.373817 0.623648,0.577154 -0.0031,0.312444 -0.373197,0.449448 -0.719117,0.455027 -0.604431,0.0093 -0.954691,-0.163041 -1.234899,-0.293226 l -0.217595,1.017923 c 0.280828,0.128945 0.799089,0.241772 1.336567,0.246732 1.262795,0 2.08916,-0.623648 2.0935,-1.589498 m 3.13746,1.516966 h 1.112153 L 17.962012,9.092667 H 16.93541 a 0.54739722,0.54739722 0 0 0 -0.512062,0.3409608 l -1.803372,4.3060262 h 1.262174 l 0.251071,-0.69432 h 1.542384 z m -1.340906,-1.646531 0.632327,-1.7451 0.364519,1.7451 z m -5.05862,-3.000456 -0.993747,4.646987 H 9.2241135 L 10.219099,9.092667 Z"
     id="path4"
     style="fill:#535d6c;stroke-width:0.619929" />
</svg>
