<?xml version="1.0" encoding="UTF-8" standalone="no"?>
<!-- Created with Inkscape (http://www.inkscape.org/) -->

<svg
   width="50mm"
   height="40mm"
   viewBox="0 0 50 40"
   version="1.1"
   id="svg5"
   inkscape:version="1.2.1 (9c6d41e410, 2022-07-14, custom)"
   sodipodi:docname="req-for-qutation.svg"
   xmlns:inkscape="http://www.inkscape.org/namespaces/inkscape"
   xmlns:sodipodi="http://sodipodi.sourceforge.net/DTD/sodipodi-0.dtd"
   xmlns="http://www.w3.org/2000/svg"
   xmlns:svg="http://www.w3.org/2000/svg">
  <sodipodi:namedview
     id="namedview7"
     pagecolor="#ffffff"
     bordercolor="#666666"
     borderopacity="1.0"
     inkscape:pageshadow="2"
     inkscape:pageopacity="0.0"
     inkscape:pagecheckerboard="0"
     inkscape:document-units="mm"
     showgrid="false"
     width="90mm"
     inkscape:zoom="3.1936036"
     inkscape:cx="89.240881"
     inkscape:cy="43.5245"
     inkscape:window-width="1920"
     inkscape:window-height="1023"
     inkscape:window-x="0"
     inkscape:window-y="29"
     inkscape:window-maximized="1"
     inkscape:current-layer="g28"
     showguides="true"
     inkscape:guide-bbox="true"
     height="50mm"
     inkscape:showpageshadow="0"
     inkscape:deskcolor="#d1d1d1" />
  <defs
     id="defs2">
    <clipPath
       clipPathUnits="userSpaceOnUse"
       id="clipPath32">
      <path
         d="M 0,500 H 500 V 0 H 0 Z"
         id="path30" />
    </clipPath>
  </defs>
  <g
     inkscape:label="Layer 1"
     inkscape:groupmode="layer"
     id="layer1">
    <g
       aria-label="Redux "
       id="text2492"
       style="font-size:17.6678px;line-height:1.25;stroke-width:0.441695"
       transform="matrix(0.92212352,0,0,0.92212352,2.0813178,1.8526887)">
      <g
         id="g444"
         transform="matrix(0.25692854,0,0,-0.25692854,-70.840505,51.610817)"
         style="fill:#f2f2f2;fill-opacity:1">
        <g
           id="g446"
           style="fill:#f2f2f2;fill-opacity:1">
          <g
             id="g452"
             style="fill:#f2f2f2;fill-opacity:1">
            <g
               id="g454"
               style="fill:#f2f2f2;fill-opacity:1">
              <g
                 id="g26"
                 transform="matrix(0.72285895,0,0,0.72285895,240.17742,-111.71214)"
                 style="font-size:17.6678px;line-height:1.25;fill:#e6e6e6;fill-opacity:1;stroke-width:0.441695">
                <g
                   id="g28"
                   clip-path="url(#clipPath32)"
                   style="fill:#e6e6e6;fill-opacity:1">
                  <g
                     id="g146"
                     transform="matrix(1.0699076,0,0,1.0699076,217.0947,325.68265)"
                     style="fill:#385cc4;fill-opacity:1" />
                  <g
                     id="g21739"
                     transform="matrix(0.99929195,0,0,0.15195765,138.65194,397.47534)"
                     style="fill:#385cc4;fill-opacity:1" />
                  <path
                     style="fill:#000000;stroke-width:0.682386"
                     id="path845"
                     d="" />
                  <g
                     id="g26809"
                     transform="matrix(0.97694013,0,0,-0.66916621,2.6920284,524.98421)"
                     style="fill:#4a67be;fill-opacity:1">
                    <rect
                       style="fill:#4a67be;fill-opacity:1;stroke-width:1.54735;paint-order:stroke fill markers"
                       id="rect971"
                       width="288.46844"
                       height="285.05521"
                       x="39.57774"
                       y="-440.69095"
                       transform="scale(1,-1)"
                       ry="81.661377" />
                    <path
                       style="font-size:17.6678px;line-height:1.25;fill:#4a67be;fill-opacity:1;stroke:none;stroke-width:1.00157;stroke-opacity:1;paint-order:stroke fill markers"
                       id="path24864-6"
                       transform="matrix(0.99999244,0.00388888,0.00155246,-0.99999879,0,0)"
                       sodipodi:type="arc"
                       sodipodi:cx="184.05585"
                       sodipodi:cy="-398.11276"
                       sodipodi:rx="128.46803"
                       sodipodi:ry="51.767246"
                       sodipodi:start="0.76163725"
                       sodipodi:end="0.76131262"
                       sodipodi:open="true"
                       sodipodi:arc-type="arc"
                       d="m 277.02908,-362.38781 a 128.46803,51.767246 0 0 1 -181.622409,1.74227 128.46803,51.767246 0 0 1 -4.338441,-73.18609 128.46803,51.767246 0 0 1 181.6217,-1.75415 128.46803,51.767246 0 0 1 4.36792,73.18581" />
                    <path
                       style="font-size:17.6678px;line-height:1.25;fill:#4a67be;fill-opacity:1;stroke:none;stroke-width:1.00157;stroke-opacity:1;paint-order:stroke fill markers"
                       id="path26702"
                       transform="matrix(0.99999244,0.00388888,0.00155246,-0.99999879,0,0)"
                       sodipodi:type="arc"
                       sodipodi:cx="183.74399"
                       sodipodi:cy="-197.27344"
                       sodipodi:rx="128.46803"
                       sodipodi:ry="51.767246"
                       sodipodi:start="0.76163725"
                       sodipodi:end="0.76131262"
                       sodipodi:open="true"
                       sodipodi:arc-type="arc"
                       d="m 276.71722,-161.54849 a 128.46803,51.767246 0 0 1 -181.622408,1.74228 128.46803,51.767246 0 0 1 -4.338441,-73.1861 128.46803,51.767246 0 0 1 181.621699,-1.75415 128.46803,51.767246 0 0 1 4.36792,73.18581" />
                  </g>
                  <g
                     id="g27072"
                     transform="matrix(2.0156349,0,0,2.0156349,-203.18562,-300.38629)">
                    <g
                       aria-label="RFO"
                       transform="matrix(0.9668835,0,0,0.9668835,39.194643,654.24947)"
                       id="g27066"
                       style="font-size:61.797px;font-family:'Eras Medium ITC';-inkscape-font-specification:'Eras Medium ITC';fill:#ffffff;stroke-width:0.682386">
                      <path
                         d="m 129.134,-358.96069 c 3.64602,2.41008 5.74712,6.1179 5.74712,10.99987 0,8.34259 -6.1179,14.2751 -14.52229,15.20206 -1.29774,0.12359 -2.65727,0.24719 -7.72463,0.24719 h -6.79767 v -42.63993 h 10.50549 v 11.43244 c 4.94376,0 8.3426,-3.89321 8.3426,-8.65158 v -2.78086 h 10.50549 v 2.78086 c 0,6.05611 -2.1629,10.56729 -6.05611,13.40995 z m -12.79198,16.5616 c 4.32579,0 8.03361,-1.54493 8.03361,-5.87072 0,-4.32579 -3.70782,-5.56173 -8.03361,-5.56173 z"
                         style="font-family:'Marvin Visions';-inkscape-font-specification:'Marvin Visions';fill:#ffffff"
                         id="path27060" />
                      <path
                         d="m 163.61673,-342.70808 v 10.19651 h -26.8817 v -42.63993 h 10.50549 v 16.3762 h 11.12346 v 9.88752 h -11.12346 v 6.1797 z"
                         style="font-family:'Marvin Visions';-inkscape-font-specification:'Marvin Visions';fill:#ffffff"
                         id="path27062" />
                    </g>
                    <g
                       id="g976"
                       transform="matrix(1,0,0,-1,0,621.40069)">
                      <path
                         d="m 219.26724,289.07104 c 12.0696,0 21.62968,9.56008 21.62968,21.56993 0,11.9501 -9.56008,21.45043 -21.62968,21.45043 -12.00985,0 -21.51018,-9.50033 -21.51018,-21.45043 0,-12.00985 9.50033,-21.56993 21.51018,-21.56993 z m 0.0598,9.91858 c -6.33355,0 -11.41235,5.1983 -11.41235,11.53185 0,6.2738 5.0788,11.65135 11.41235,11.65135 6.21405,0 11.41234,-5.37755 11.41234,-11.65135 0,-6.33355 -5.19829,-11.53185 -11.41234,-11.53185 z"
                         style="font-size:61.797px;line-height:1.25;font-family:'Marvin Visions';-inkscape-font-specification:'Marvin Visions';fill:#ffffff;fill-opacity:1;stroke-width:0.659788"
                         id="path27064" />
                      <path
                         id="path27068"
                         style="fill:#384e9d;fill-opacity:1;stroke-width:1.79222;paint-order:stroke fill markers"
                         d="m 214.4039,320.27075 30.14985,30.14984 12.3565,-12.35649 -30.14986,-30.14986 z" />
                      <path
                         style="font-size:17.6678px;line-height:1.25;fill:#ffffff;fill-opacity:1;stroke:#ffffff;stroke-width:2.82927px;stroke-linecap:butt;stroke-linejoin:miter;stroke-opacity:1"
                         d="m 237.97609,343.20109 -6.05649,-6.05642 v -9.47547 l -11.23378,-11.23376 3.46782,-3.46782 10.8919,10.89188 h 9.28008 l 7.27754,7.27754 H 238.4645 Z"
                         id="path27070" />
                    </g>
                  </g>
                </g>
              </g>
            </g>
          </g>
        </g>
      </g>
    </g>
  </g>
  <g
     inkscape:groupmode="layer"
     id="layer2"
     inkscape:label="Layer 2" />
</svg>
